<svg width="292.6mm" height="33.505mm" version="1.1" viewBox="0 0 292.6 33.505" xmlns="http://www.w3.org/2000/svg">
 <defs>
  <clipPath id="clipPath25322">
   <rect x="100.6" y="16.833" width="156.9" height="29.723" fill="#abbea9" stroke-width="0" style="paint-order:stroke fill markers"/>
  </clipPath>
  <clipPath id="clipPath25558">
   <rect x="106.45" y="-18.007" width="151.54" height="32.89" fill="#0f0" stroke-width="0" style="paint-order:stroke fill markers"/>
  </clipPath>
  <clipPath id="clipPath31303">
   <rect x="-106.6" y="-73.208" width="292.6" height="33.505" fill="#fff" stroke="#000" stroke-linecap="square" stroke-width="1.1392" style="paint-order:stroke fill markers"/>
  </clipPath>
 </defs>
 <g transform="translate(106.6 73.208)">
  <g clip-path="url(#clipPath31303)" stroke-width=".26458">
   <path transform="matrix(1 0 0 1.2377 -69.871 -95.12)" d="m106.53 78.129c-0.0795-0.20732-0.11316-4.1859-0.0747-8.8413 0.0672-8.1373 0.0874-8.4337 0.52238-7.6706l0.45243 0.79375 0.0106-1.2539c6e-3 -0.68966-0.22747-1.8803-0.51844-2.6458-0.55014-1.4474-0.70153-2.7202-0.29358-2.4681 0.34125 0.2109 2.301 4.3182 2.6912 5.6402 0.18253 0.61846 0.43209 1.1245 0.55457 1.1245 0.58507 0-0.0963-3.3056-1.1044-5.3578-0.41103-0.83674-0.64736-1.5214-0.52518-1.5214 0.67745 0 3.2428 2.8514 4.1225 4.5822l0.96579 1.9001-0.13381-1.6107c-0.0736-0.88591-0.33422-1.9983-0.57917-2.472-0.65363-1.264-0.27912-1.317 0.94323-0.13341 1.1201 1.0846 1.6596 1.9165 2.3784 3.6675l0.42643 1.0388 0.1915-1.7003c0.17193-1.5265 1.4274-5.9371 1.6318-5.7327 0.0452 0.04524-0.0451 1.2943-0.20077 2.7757-0.15565 1.4814-0.1985 3.1439-0.0952 3.6944l0.18778 1.0009 0.42595-0.79332c0.23427-0.43633 0.62288-1.5672 0.86359-2.5131l0.43764-1.7198 0.18997 2.1167c0.25009 2.7866 0.25344 2.7937 0.81042 1.7203 0.27679-0.53341 0.55189-1.8225 0.64934-3.0427l0.16909-2.1172 0.32194 1.4552c0.17708 0.80036 0.41542 2.5268 0.52966 3.8365l0.2077 2.3812 0.48189-2.5768c0.36408-1.9469 0.45631-3.452 0.37727-6.1567-0.0575-1.9689-0.0179-3.3454 0.0881-3.0589 0.40452 1.0935 1.0134 4.5475 1.0134 5.7488 0 0.93212 0.0768 1.1779 0.29875 0.95595 0.19537-0.19538 0.25756-1.0834 0.17972-2.5665-0.0655-1.2472-0.0731-2.2677-0.017-2.2677 0.24554 0 2.2074 4.5571 2.4912 5.7869 0.32159 1.3932 0.74695 1.8209 0.7573 0.76153 0.0156-1.5978 2.2682-4.6092 4.192-5.604l0.81516-0.42154-0.50874 0.86303c-0.2798 0.47467-0.59013 1.373-0.6896 1.9963l-0.18086 1.1332 0.9348-0.9348c1.2015-1.2015 1.5906-1.1913 0.97028 0.02545-0.26927 0.52814-0.56697 1.4764-0.66158 2.1073-0.18168 1.2115 0.29951 3.8116 0.7054 3.8116 0.13101 0 0.2382-0.11471 0.2382-0.2549 0-0.60114 3.2669-3.6891 4.7251-4.4663 2.003-1.0676 2.4704-1.0595 1.444 0.02487-0.75617 0.79889-1.4066 1.8039-1.4066 2.1733 0 0.08668 0.32742-0.08149 0.7276-0.37373 0.44638-0.32597 1.3412-0.58935 2.3151-0.68144l1.5875-0.15011-1.2233 0.66156c-0.93349 0.50485-1.3284 0.92441-1.6672 1.7712-0.24419 0.61029-0.34467 1.2089-0.22328 1.3303 0.33816 0.33817 3.2161-1.1346 4.9045-2.5098l1.5087-1.2289-0.52525 1.3326c-0.28889 0.73291-0.52525 1.3972-0.52525 1.4762 0 0.07902 0.69925-0.55559 1.5539-1.4102 1.448-1.448 3.7841-2.9329 5.3253-3.3849 0.48914-0.14346 0.34578 0.0497-0.55031 0.74149-1.0555 0.81486-2.3378 2.3029-1.9844 2.3029 0.0678 0 0.51702-0.22908 0.99828-0.50906 0.96947-0.56401 3.4146-1.0784 5.1258-1.0784h1.1109l-1.0272 1.0272c-1.197 1.197-1.3733 1.8904-0.27407 1.0777 0.41422-0.30625 1.2774-0.6183 1.9182-0.69345l1.1651-0.13664-0.87582 0.55904c-0.78155 0.49887-1.6377 1.8942-1.6377 2.6691 0 0.1576 0.38695-0.0044 0.8599-0.35994 0.47294-0.35556 1.9421-1.1866 3.2648-1.8468s2.7812-1.517 3.2411-1.904c0.98987-0.83292 0.99513-0.81842 0.28501 0.78692-0.3032 0.68544-0.49799 1.2995-0.43287 1.3646 0.2003 0.2003 3.0466-3.0183 3.7881-4.2836 0.38495-0.65687 0.73914-1.1551 0.78709-1.1071 0.048 0.04795-0.27157 1.3159-0.71004 2.8177-0.43846 1.5018-0.73878 2.789-0.66737 2.8604 0.0714 0.07141 0.69159-0.71494 1.3782-1.7475 0.68658-1.0325 1.2613-1.8773 1.2771-1.8773 0.0158 0-0.044 1.0418-0.133 2.3151s-0.13106 2.3531-0.0935 2.3995c0.0376 0.0464 1.0398-1.7991 2.2272-4.101 1.1874-2.302 2.084-3.9473 1.9924-3.6562-0.30966 0.98454-0.91673 3.7016-0.91628 4.101 2.4e-4 0.21828 0.26909-0.07937 0.59743-0.66146 0.61083-1.0828 2.3989-2.2684 4.0245-2.6683l0.79375-0.19527-0.82829 0.7011c-1.0637 0.90034-1.6852 2.223-1.6852 3.5861 0 1.1414 0.69474 3.2065 1.0787 3.2065 0.37776 0 2.3708-2.8395 4.5432-6.4728 1.128-1.8866 2.0498-3.3748 2.0485-3.3073-1e-3 0.06755-0.40175 1.4623-0.88973 3.0994-0.48798 1.6371-0.86062 2.9766-0.8281 2.9766 0.0325 0 0.57527-0.79807 1.2061-1.7735 1.1851-1.8325 4.4579-5.4612 5.3619-5.945 0.43017-0.23022 0.40533-0.13077-0.15313 0.61299-1.4432 1.9221-2.8466 5.5589-2.84 7.3595 2e-3 0.55789 0.14208 0.42858 0.82442-0.76136 0.77363-1.3492 3.2282-3.9906 3.7083-3.9906 0.1206 0-0.12674 0.68461-0.54963 1.5214-0.4229 0.83674-0.9445 2.2357-1.1591 3.1089-0.4863 1.9784-0.78127 4.6328-0.51365 4.6223 0.11042-0.0043 0.59932-0.70416 1.0865-1.5552 0.48714-0.85102 1.602-2.2465 2.4775-3.101l1.5918-1.5537-0.71392 1.1547c-0.39266 0.63509-0.88632 1.6433-1.097 2.2405l-0.38309 1.0858 0.92633-1.0822c0.80884-0.94495 4.648-3.2836 5.349-3.2585 0.1233 0.0044 0.0333 0.11964-0.20007 0.25603-0.55881 0.32664-2.7319 3.1502-2.5582 3.324 0.31564 0.31563 5.1003-2.7336 6.1893-3.9444l1.1534-1.2824-0.40446 1.1501c-0.22246 0.63255-0.69918 1.5966-1.0594 2.1423-0.60129 0.91094-0.61449 0.99219-0.16113 0.99219 1.0047 0 2.2838-1.1748 3.1687-2.9104l0.87684-1.7198-0.17436 1.7198c-0.15471 1.5259-0.35229 2.5727-0.82401 4.3656-0.21986 0.83566 1.7065-1.9488 2.5626-3.7042 0.42584-0.87312 0.94701-2.2423 1.1582-3.0427l0.38392-1.4552 8e-3 1.4552c5e-3 0.80036-0.16391 2.4077-0.37425 3.5719-0.21034 1.1642-0.38478 2.1971-0.38765 2.2955-3e-3 0.09834 0.66584-0.52472 1.486-1.3846 1.348-1.4133 3.6613-3.1598 4.1851-3.1598 0.11333 0-0.20199 0.45166-0.70071 1.0037-0.89652 0.99234-1.8498 2.7409-2.1935 4.0234-0.14058 0.52454-0.0582 0.46978 0.39782-0.26458 0.89598-1.4427 2.625-3.1443 4.3355-4.2666 1.9062-1.2507 2.2311-1.2961 1.1819-0.1652-0.43877 0.47294-1.0547 1.2171-1.3687 1.6536l-0.5709 0.79375 0.65598-0.46933c2.9004-2.0751 5.3567-3.3318 7.3409-3.7556l0.86409-0.18458-1.2968 1.3314c-1.2316 1.2644-2.5614 3.8265-3.0956 5.9641-0.18572 0.74322-0.12141 0.71558 1.8974-0.81524 1.1493-0.8715 2.673-1.924 3.3859-2.3389l1.2962-0.75436-0.72602 1.2389c-0.39932 0.68138-0.61008 1.2389-0.46836 1.2389s1.0646-0.85541 2.0509-1.9009l1.7932-1.9009-0.1476 1.041c-0.0812 0.57256-0.23353 1.2791-0.33853 1.5702-0.16922 0.46902-0.14115 0.46256 0.24694-0.05675 0.629-0.84171 1.2134-2.6325 1.2228-3.7468 0.0169-2.0151 0.54725-0.03318 0.83838 3.1331 0.16011 1.7415 0.38326 3.1093 0.49587 3.0397 0.11261-0.0696 0.42221-0.75022 0.68799-1.5125 0.36741-1.0537 0.47763-2.1178 0.45981-4.439-0.0129-1.6792-0.098-3.4056-0.18904-3.8365-0.24954-1.1806 1.3356 2.126 1.8424 3.8435 0.39889 1.3515 0.44582 1.4064 0.67871 0.79375 0.13761-0.362 0.18156-1.313 0.0977-2.1134-0.14294-1.3636-0.12605-1.4219 0.26819-0.92604 0.63171 0.79451 1.4181 2.7155 1.8242 4.4564 0.19895 0.85281 0.41917 1.608 0.48938 1.6782 0.1276 0.12761 0.38024-1.7574 0.50305-3.7534l0.0651-1.0583 0.55465 1.0583c0.30505 0.58208 0.97711 1.8466 1.4935 2.81l0.93883 1.7517 0.18258-1.9483c0.10041-1.0716 0.28132-2.2766 0.40201-2.6777 0.18664-0.62038 0.22283-0.5301 0.24217 0.6041 0.0125 0.73341 0.20525 2.0342 0.42832 2.8906 0.40743 1.5642 1.6344 4.1103 1.9807 4.1103 0.10203 0 0.25141-0.6385 0.33195-1.4189 0.22867-2.2155 1.4736-4.3433 3.3922-5.7977 1.28-0.97033 1.4291-0.90818 0.65053 0.27126-0.69631 1.0549-1.4699 3.0241-1.4683 3.7374 5.3e-4 0.26478 0.18681 0.12505 0.48505-0.364 0.93527-1.5336 2.8326-2.9147 5.1065-3.717l1.0344-0.36497-0.63803 0.85034c-0.73731 0.98264-2.0202 3.4683-2.0202 3.9143 0 0.1669 0.56555-0.29224 1.2568-1.0203 1.1446-1.2056 2.9614-2.3451 4.4979-2.821 0.52947-0.16399 0.59531-0.09318 0.59531 0.64033 0 0.4536-0.16839 1.1503-0.37419 1.5483-0.20581 0.39799-0.44947 1.1957-0.54147 1.7728l-0.16727 1.0492 0.47532-0.79375c0.46501-0.77655 0.47683-0.61368 0.54529 7.5148 0.0385 4.5697 0.028 8.3505-0.0233 8.4018-0.0513 0.05131-33.446 0.17201-74.211 0.26822-64.009 0.15108-74.137 0.12353-74.262-0.20199zm0.77562-34.188c0.53317-1.7901 1.2215-5.7089 1.493-8.4999 0.31908-3.2803 0.17924-9.2328-0.25993-11.065-0.31777-1.3254-0.12208-1.2531 0.49309 0.18201 0.50768 1.1844 1.1809 4.1909 1.4848 6.631l0.16476 1.3229 0.98871-2.8054c1.1325-3.2134 2.63-6.3581 3.578-7.5133 0.64417-0.785 0.64292-0.77332-0.11275 1.0583-0.71628 1.7362-1.7427 6.1618-1.4881 6.4164 0.0634 0.06339 0.94277-1.6097 1.9542-3.7179 1.4491-3.0206 2.1435-4.1476 3.2755-5.3164 0.79013-0.81576 1.5734-1.4832 1.7405-1.4832 0.19439 0 0.0765 0.60417-0.32718 1.6766-0.78825 2.0942-1.2942 5.6692-1.0733 7.5838 0.26447 2.2923 0.72073 4.4982 0.96111 4.6468 0.32839 0.20296 1.7392-2.7554 2.329-4.8836 0.28438-1.0262 0.60298-2.8509 0.708-4.0547l0.19093-2.1888 0.36733 1.0574c0.20203 0.58156 0.49783 1.9314 0.65733 2.9996 0.18733 1.2546 0.3696 1.8166 0.51482 1.5875 0.30598-0.48277 0.29203-3.8469-0.0207-4.9866l-0.2536-0.9243 0.79682 0.92604c0.69297 0.80535 2.1677 3.5515 2.7706 5.1594 0.26989 0.71972 0.87184-2.3148 0.91848-4.6302l0.0346-1.7198 0.50037 1.0866c0.79372 1.7236 1.3192 4.0193 1.4904 6.5119 0.0872 1.2688 0.26021 2.244 0.38448 2.1672 0.12428-0.07681 0.22596-0.38349 0.22596-0.68152 0-0.93226 1.5098-3.7505 2.5277-4.7186l0.97384-0.92604-0.43231 0.85534c-0.23777 0.47043-0.5062 1.4229-0.59651 2.1167l-0.16421 1.2613 1.0954-1.6219c0.64918-0.96123 1.6618-2.0121 2.486-2.5797 1.5001-1.0332 2.1236-1.2436 1.4372-0.48508-0.40161 0.44377-1.2417 2.2037-1.2417 2.6012 0 0.09927 0.33649-0.28386 0.74775-0.8514 1.1944-1.6483 3.1855-2.9599 5.5958-3.6862 0.63312-0.19078 0.62647-0.16487-0.19893 0.77521-0.87036 0.99128-2.1759 3.3279-2.1759 3.8944 0 0.17219 0.33768-0.15127 0.75039-0.71881 1.6257-2.2356 4.6799-4.2753 7.1358-4.7658 0.86704-0.17314 0.86032-0.16022-0.76023 1.4603-1.71 1.71-1.8928 2.1941-0.57017 1.5102 0.4313-0.22303 1.6032-0.48658 2.6043-0.58566l1.8201-0.18015-1.029 1.0116c-0.9936 0.97672-2.0547 2.9127-2.4226 4.4202-0.14027 0.5747-0.0845 0.7276 0.26531 0.7276 0.77134 0 4.2157-1.7267 5.2422-2.6279 1.1182-0.98175 1.2706-0.67184 0.43584 0.88573l-0.55103 1.0281 0.88176-0.54453c1.3504-0.83394 2.7648-2.8674 3.4358-4.9395l0.60611-1.8716 0.33516 1.8271c0.18434 1.0049 0.3882 1.8801 0.45303 1.9449 0.24023 0.24024 0.77599-2.2512 0.92491-4.3012l0.15377-2.1167 0.5728 0.92604c0.98835 1.5978 1.7316 4.2441 1.8765 6.6807 0.1818 3.0578 0.67671 3.0185 1.4901-0.11838l0.36379-1.403 0.69115 1.5508c0.86583 1.9427 1.7526 4.7867 1.7526 5.6208 0 1.0296 0.42242 0.72978 1.0645-0.75548 0.76303-1.765 1.3096-3.7951 1.3136-4.8792 6e-3 -1.5061 0.47066-1.1821 0.76991 0.53628 0.16036 0.92084 0.2994 1.9026 0.30897 2.1818 0.01 0.27912 0.19051-0.14735 0.40208-0.94771 0.38864-1.4703 1.5555-3.4396 2.1552-3.6375 0.23875-0.07877 0.22108 0.14302-0.0661 0.83046-0.21554 0.51586-0.39189 1.5841-0.39189 2.3738 0 1.3644 0.86117 4.8037 1.3252 5.2923 0.29994 0.31584 0.80792-0.75491 2.1166-4.4616 1.4798-4.1912 2.188-5.7548 3.2806-7.2433 0.90862-1.2378 3.3317-3.2096 3.3317-2.7112 0 0.14597-0.13094 0.34634-0.29099 0.44525-0.16005 0.09891-0.75664 0.90028-1.3258 1.7808-1.2634 1.9548-2.297 5.1174-2.5075 7.6728l-0.1571 1.9072 0.77642-1.5875c0.92461-1.8905 2.3599-3.2545 4.6215-4.392l1.6615-0.83564-1.475 1.4232c-1.4642 1.4128-2.5139 3.3717-2.3203 4.33 0.0813 0.40219 0.17207 0.38708 0.84039-0.13976 0.72915-0.57479 4.2181-2.0783 4.8651-2.0965 0.19178-0.0054 0.0631 0.37349-0.31702 0.93366-0.62776 0.92506-1.1577 3.1529-0.82828 3.4823 0.092 0.09199 0.89066-0.17852 1.7748-0.60111 1.466-0.7007 2.7753-1.8597 3.5962-3.1834 0.26477-0.42695 0.31938-0.23321 0.34148 1.2116l0.0263 1.7198 0.7284-0.85064c0.40061-0.46786 0.9832-1.5394 1.2946-2.3812l0.56625-1.5306 0.0155 1.8521c9e-3 1.0186-0.20536 2.7748-0.47526 3.9026-0.26989 1.1278-0.41613 2.0505-0.32499 2.0505 0.49789 0 3.8601-3.4226 4.2728-4.3495l0.47838-1.0745 0.0187 1.1073c0.0103 0.60899-0.0995 1.418-0.24388 1.7979l-0.26257 0.69061 0.91744-0.69977c0.50459-0.38487 1.3594-0.79945 1.8996-0.92128l0.98219-0.22152-0.6861 0.57863c-0.37735 0.31825-0.83493 0.87336-1.0168 1.2336-0.33034 0.65418-0.32997 0.65442 0.30581 0.1987 1.0936-0.78387 2.9733-1.7079 4.0761-2.0037l1.0583-0.28388-0.7276 0.63812c-0.40019 0.35096-0.72761 0.6983-0.72761 0.77187 0 0.07356 0.7364-0.21452 1.6364-0.64017 2.6282-1.243 6.1717-1.7907 4.2532-0.6574-1.0922 0.64523-2.1201 1.983-1.5236 1.983 0.82977 0 3.689-1.1138 4.772-1.8589 1.2128-0.83442 3.562-3.3209 3.562-3.7701 0-0.15404 0.0735-0.20656 0.16336-0.11671 0.0899 0.08985-0.3318 1.092-0.93698 2.2269l-1.1004 2.0636 1.3441-1.4509c1.5702-1.695 2.7527-3.9198 3.1817-5.9865 0.16763-0.80746 0.36783-1.4051 0.44488-1.328 0.24287 0.24288-0.44246 5.1903-0.85612 6.1803-0.21752 0.5206-0.3496 0.99244-0.29351 1.0485 0.0561 0.05609 0.6531-0.511 1.3267-1.2602 1.5251-1.6962 2.6855-4.0889 3.1312-6.4562l0.34184-1.8155 0.15726 1.1565c0.25869 1.9024-0.56718 8.656-1.2883 10.535-0.0979 0.25513-0.0406 0.32228 0.16597 0.19459 0.39338-0.24312 1.8098-3.023 2.4389-4.7866l0.4719-1.3229 0.0642 4.7625 0.78765-1.5261c0.43321-0.83934 0.94908-2.149 1.1464-2.9104l0.35871-1.3843 0.1978 1.5493c0.20103 1.5745 0.0534 4.2638-0.29969 5.4595-0.13219 0.44761 0.55207-0.12577 2.1345-1.7886 2.6523-2.7871 5.4541-5.2486 4.4362-3.8973-2.1173 2.8108-3.0139 4.1592-3.3648 5.0604-0.38911 0.99945-0.38752 1.0085 0.0636 0.36361 0.85881-1.2278 2.9324-3.3038 3.8194-3.824l0.88119-0.51675-0.99815 1.1666c-0.82761 0.96732-1.78 3.1186-1.78 4.0207 0 0.12176 0.92273-0.70665 2.0505-1.8409 1.3893-1.3973 2.6477-2.3702 3.9026-3.0173 3.1022-1.5996 3.3901-1.5796 1.7859 0.12369-1.5545 1.6506-1.8179 2.1791-0.5576 1.1186 1.0824-0.91082 2.9106-1.8277 4.7067-2.3606 0.7904-0.23451 1.4889-0.42638 1.5521-0.42638 0.0633 0-0.31252 0.47328-0.83512 1.0517-0.93456 1.0344-2.5731 4.0012-2.9263 5.2983l-0.1801 0.66146 0.60843-0.69954c0.65609-0.75434 2.5115-2.0786 2.9123-2.0786 0.13512 0 0.0135 0.32742-0.2702 0.7276-0.54856 0.77369-1.3722 2.9809-1.3722 3.6772 0 0.22964 0.38695-0.16021 0.85989-0.86633 0.85704-1.2796 3.1746-3.0665 4.4318-3.4169l0.66145-0.18438-0.71732 0.76278c-0.39453 0.41953-0.90263 1.288-1.1291 1.9299l-0.41178 1.1671 1.6678-1.6015c1.3258-1.2731 4.4092-3.2538 5.0654-3.2538 0.0684 0-0.38678 0.82906-1.0115 1.8424-1.7183 2.787-2.1405 4.3545-2.1405 7.9472 0 1.6735 0.0977 3.648 0.21723 4.3879l0.21722 1.3452-146.14 0.05842zm0.34867-35.043c0.27775-1.3142 0.3392-2.8693 0.23264-5.887-0.13233-3.7477-0.34619-5.1849-1.378-9.2604-0.15756-0.62236-0.1348-0.61454 0.38498 0.13229 0.81876 1.1764 2.0396 4.7408 2.4478 7.1467l0.35861 2.1137 0.17152-2.1167c0.26422-3.2607-0.14791-6.1994-1.3547-9.66-1.105-3.1686-1.2601-4.3814-0.72144-5.6419 0.2924-0.68426 0.32029-0.59085 0.3188 1.0678-1e-3 1.5089 0.13047 2.0633 0.776 3.2634 2.4174 4.4942 2.3881 4.4074 2.539 7.52 0.0779 1.6068 0.21307 2.7429 0.30043 2.5246 0.52056-1.3007 1.6473-5.5927 1.7985-6.8509l0.1783-1.4834 0.23549 1.0583c0.38016 1.7085 0.20369 4.282-0.52129 7.6023-0.65743 3.0109-0.95929 5.9337-0.36253 3.5102 1.1696-4.7496 2.5068-7.9084 3.9219-9.2641l0.75478-0.72313-0.67188 1.6634c-0.46987 1.1633-0.70172 2.3067-0.77108 3.803-0.083 1.7897-0.0521 2.0047 0.18848 1.3148 0.15821-0.45363 0.54569-1.1484 0.86105-1.5439l0.57339-0.7191-0.10377 2.055c-0.11756 2.3281 0.28527 4.5355 1.0938 5.9937 0.91764 1.6551 1.0664 1.4176 1.5326-2.4474 0.19938-1.6528 0.23902-4.2578 0.11574-7.6068-0.10312-2.8013-0.13219-5.0932-0.0646-5.0932 0.24938 0 1.3302 5.7743 1.6335 8.7266l0.31301 3.0473 0.2035-3.7285c0.22958-4.2064 0.14481-5.0868-0.90202-9.3684-0.78038-3.1919-1.1322-4.9334-0.95826-4.7432 0.29489 0.32236 2.408 5.8694 2.714 7.1245 0.19515 0.80036 0.36855 2.3482 0.38533 3.4396 0.0523 3.3999 0.45153 3.6139 0.48055 0.25764 0.036-4.1604 0.4584-7.2592 1.2163-8.9227 0.65034-1.4274 1.0969-1.8502 0.83845-0.79375-0.0801 0.32742-0.28508 2.3432-0.45552 4.4795-0.23854 2.9901-0.23702 4.719 7e-3 7.5107 0.41042 4.7032 0.57939 5.1684 1.137 3.1302 0.71531-2.6146 1.0504-4.7493 0.94784-6.0386-0.0844-1.0607-0.0508-1.1632 0.24736-0.75577 0.58032 0.79303 1.0795 2.9911 1.2786 5.6308 0.1687 2.2357 0.21738 2.4112 0.44038 1.5875 0.13789-0.50932 0.18188-2.0571 0.0977-3.4396-0.10036-1.6492-0.0662-2.3641 0.0992-2.079 0.34914 0.60164 0.97116 3.4625 1.1907 5.4766 0.23107 2.1195 0.58519 1.8066 0.82048-0.72501 0.17736-1.9084 0.18838-1.9318 0.56826-1.2067 0.21307 0.40666 0.53811 1.7017 0.7223 2.8779l0.3349 2.1385 0.0356-4.8948c0.0403-5.5457 0.31232-7.9385 1.1144-9.803 0.75988-1.7664 1.3235-2.2296 1.0088-0.82909-0.43827 1.9506-0.71607 5.4743-0.52533 6.6633l0.191 1.1906 0.3328-0.79375c1.6458-3.9252 2.6536-8.6247 2.6886-12.536 0.0165-1.8468 0.0847-2.3383 0.24867-1.7914 0.43838 1.4624 0.55904 4.8363 0.27584 7.713-0.33545 3.4073-0.56902 6.965-0.38215 5.8208 0.63574-3.8926 1.8318-7.1448 3.0165-8.2021l0.59293-0.52917-0.15805 0.52917c-1.0406 3.4839-1.8809 9.4065-1.5392 10.848 0.20171 0.85096 0.25608 0.91844 0.27745 0.34439 0.0813-2.1841 2.0016-6.4337 3.5489-7.8535l0.68646-0.6299-0.50891 1.3393c-0.83485 2.1972-1.0815 4.5347-0.88721 8.407 0.0987 1.9669 0.26664 3.4814 0.37318 3.3656 0.27897-0.30315 1.5705-5.9001 1.6098-6.976 0.0308-0.84505 0.0477-0.82557 0.24497 0.28317 0.11652 0.65484 0.22545 2.0241 0.24206 3.0427l0.0302 1.8521 0.43655-0.79375c0.28963-0.52661 0.48665-1.7287 0.5854-3.5719l0.14885-2.7781 0.62349 1.5875c0.34293 0.87312 0.68634 2.3316 0.76315 3.2411 0.14688 1.7393 0.42292 2.1162 0.71054 0.9702 0.22307-0.88878 1.2309-2.4581 2.0875-3.2506l0.67745-0.62672-0.37807 1.4205c-0.5605 2.1059-0.4578 2.3705 0.34943 0.90039 0.74782-1.3619 2.3497-2.5793 3.8771-2.9465l0.77442-0.18618-0.58307 0.81883c-0.32068 0.45036-0.7698 1.2722-0.99805 1.8264l-0.41499 1.0075 0.8851-0.81791c1.4019-1.2955 2.3749-1.8771 4.1285-2.4679 2.0852-0.70244 2.4074-0.69405 1.7139 0.044633-0.55528 0.59149-1.7012 2.8813-1.5284 3.0541 0.16783 0.16783 2.6503-1.2459 3.4898-1.9874 0.4583-0.40481 1.2621-1.3109 1.7863-2.0135 0.73564-0.98613 0.99048-1.1798 1.1173-0.84936 0.23668 0.61679-0.37233 3.4527-1.1386 5.3019-1.1034 2.6627-1.395 3.5719-1.1458 3.5719 0.41825 0 2.1011-3.7624 2.6444-5.9123 0.28854-1.1417 0.73077-3.875 0.98274-6.0741 0.53681-4.685 0.81048-4.401 0.84227 0.87386 0.0222 3.6877-0.34181 6.9477-1.2825 11.485-0.29891 1.4417-0.49862 2.6661-0.44381 2.7209 0.19903 0.19903 1.525-2.9312 2.1386-5.0486 1.2982-4.4798 1.4685-9.7057 0.52188-16.013-0.20557-1.3698-0.36538-2.6199-0.35513-2.7781 0.0364-0.56193 0.8176 1.8766 1.6454 5.1363 0.79047 3.1128 0.84016 3.5913 0.84469 8.1358 3e-3 2.6557 0.0312 4.8286 0.0633 4.8286 0.0322 5.583e-5 0.32985-0.8631 0.66146-1.9181 0.55173-1.7553 0.60088-2.39 0.57878-7.4745-0.026-5.9759 0.0115-5.9996 1.0991-0.69551 0.6861 3.3461 0.91076 7.1001 0.55624 9.2945-0.16277 1.0074 0.12441 0.57822 1.8664-2.7893 1.9202-3.7121 3.1927-5.8221 3.3915-5.6233 0.0464 0.046442-0.20467 1.1976-0.55803 2.558s-0.63996 2.8474-0.63689 3.3042c5e-3 0.67532 0.12107 0.50348 0.62321-0.91897 0.77778-2.2033 2.096-4.1912 4.0157-6.0556 1.2381-1.2024 1.4297-1.3173 1.1028-0.66146-0.45366 0.91039-1.781 5.0288-1.7738 5.5038 3e-3 0.17439 0.55708-0.63543 1.2321-1.7996 1.5149-2.6126 3.3004-4.9248 4.5231-5.8574 0.50918-0.38838 0.87592-0.59857 0.81497-0.4671-0.0609 0.13147-0.60738 1.2337-1.2143 2.4493-1.5828 3.1705-1.956 5.1644-1.8645 9.9606l0.0757 3.9687 0.72937-1.3838c0.99633-1.8902 1.7985-3.9138 2.1784-5.4954l0.31777-1.3229 0.21244 3.175 0.21245 3.175 0.38063-1.3229c0.20935-0.7276 0.40004-2.5429 0.42376-4.0339 0.0237-1.4911 0.0694-2.7115 0.10164-2.712 0.0322-5.292e-4 0.32329 0.86225 0.6469 1.9173 0.63552 2.072 0.80757 5.6671 0.4018 8.3957-0.29491 1.9832 0.0558 1.5043 0.51833-0.70789 0.41668-1.9926 1.0681-3.4005 2.2834-4.9351 0.44324-0.55967 1.2008-1.7503 1.6836-2.6458l0.87768-1.6282 6e-3 0.99053c4e-3 0.61424-0.44232 1.9881-1.1741 3.6164-1.6486 3.668-1.7994 4.5721-0.40899 2.4519 2.207-3.3655 3.6469-6.8193 4.0459-9.7046 0.0604-0.43656 0.12745 0.15875 0.14906 1.3229 0.0216 1.1642-0.13739 3.1205-0.35332 4.3475-0.21592 1.227-0.3522 2.2712-0.30283 2.3206 0.33517 0.33517 3.5766-9.2407 3.6329-10.733 0.0145-0.3839 0.13149-0.99566 0.25995-1.3595 0.46138-1.3066 7e-3 6.4729-0.55348 9.4768-0.30731 1.647-0.51665 3.1208-0.4652 3.2751 0.21172 0.63517 1.8375-3.6111 2.3855-6.2304 0.32416-1.5495 0.69674-2.8173 0.82794-2.8173 0.40991 0-0.0176 5.8243-0.60964 8.3059-0.30873 1.294-0.5159 2.3982-0.46039 2.4537 0.0555 0.055512 0.37132-0.64606 0.70179-1.5591 1.1902-3.2881 2.2754-4.8933 4.2667-6.3112l0.73261-0.52167-0.65093 1.6019c-0.79536 1.9574-1.3323 4.4667-1.5569 7.2752l-0.16922 2.1167 0.65474-1.5439c0.9656-2.2769 2.8187-4.815 2.8083-3.8464-2e-3 0.19972-0.18813 1.137-0.41327 2.0829-0.62703 2.6343-0.85402 3.9696-0.67314 3.96 0.19485-0.010331 2.4692-5.2118 3.3512-7.6642l0.6185-1.7198 0.0139 1.1906c8e-3 0.65484-0.34257 2.4264-0.77823 3.9368-0.43566 1.5104-0.78815 2.9987-0.78331 3.3073l9e-3 0.56115 0.47516-0.56879c0.26133-0.31284 0.72383-1.3844 1.0278-2.3812 0.30394-0.99685 0.92243-3.0308 1.3744-4.5199 0.65999-2.1744 1.0209-2.9167 1.8329-3.7703 0.55607-0.58457 1.1282-1.0629 1.2715-1.0629s-0.0742 0.68461-0.48323 1.5214c-0.92292 1.888-1.463 3.9672-1.6815 6.4728l-0.1681 1.9278 0.54525-0.66146c1.2993-1.5763 2.8949-7.1917 2.9591-10.414 0.0267-1.3393 0.0308-1.3459 0.27106-0.43379 0.28719 1.09 0.0805 5.7691-0.44341 10.038-0.2043 1.6648-0.32827 3.0701-0.27548 3.1229 0.19744 0.19744 1.831-4.6827 2.6626-7.9543 0.50885-2.0018 0.93097-3.2129 1.03-2.9549 0.31357 0.81716 0.16928 5.6072-0.23952 7.9515-0.22399 1.2844-0.70924 3.0562-1.0783 3.9373-0.36909 0.88106-0.74226 1.8401-0.82926 2.1311-0.14497 0.48499-0.11736 0.49603 0.33077 0.13229 0.26893-0.21828 1.3711-2.2138 2.4492-4.4346 1.4109-2.9062 2.3346-4.4473 3.296-5.4993 0.73468-0.80385 1.386-1.4113 1.4474-1.35 0.0614 0.061373-0.30175 1.2991-0.80694 2.7505-0.50519 1.4514-0.98905 3.221-1.0752 3.9325l-0.15672 1.2936 0.35651-1.0583c0.98057-2.9109 3.0968-5.6968 5.7343-7.5488l0.92604-0.65024-0.61431 0.92451c-0.94521 1.4225-2.1326 3.9966-2.3182 5.0255l-0.16702 0.92604 0.66535-0.9421c0.84252-1.193 2.7649-2.7217 2.4543-1.9517-0.77005 1.9088-1.1876 3.4898-1.4577 5.5197-0.1705 1.2812-0.26006 2.3793-0.19904 2.4403 0.061 0.061018 0.55376-1.173 1.095-2.7422 1.2021-3.4853 2.6967-6.4067 4.1332-8.0787 1.175-1.3676 1.9365-1.724 1.0632-0.49758-0.68168 0.95733-1.02 1.8109-1.639 4.1356-0.66644 2.5027-0.60683 3.0013 0.12385 1.0359 0.51507-1.3854 1.6022-3.2848 1.88-3.2848 0.0489 0-0.13783 0.59659-0.41489 1.3258-0.27706 0.72916-0.49301 1.5328-0.47988 1.7859 0.0131 0.2531 0.13171 0.088203 0.26352-0.36644 0.13182-0.45464 0.42622-0.98145 0.65424-1.1707 0.36631-0.30402 0.38953-0.254 0.19949 0.42975-0.27603 0.99311-0.27669 7.2244-7.9e-4 7.9083 0.36548 0.9061 4.2296-11.216 5.0995-15.998l0.36101-1.9844-0.11396 3.5719c-0.0791 2.4795-0.31786 4.4975-0.78069 6.5987-0.3667 1.6648-0.62055 3.073-0.56412 3.1294 0.0564 0.056436 0.41468-0.35313 0.7961-0.91015 0.80375-1.1738 1.572-3.6189 2.0153-6.4141 0.25121-1.5839 0.36393-1.8675 0.58517-1.4721 0.33002 0.58971 0.40306 3.5519 0.12383 5.0214-0.19865 1.0454-0.19624 1.0497 0.19719 0.34923 0.77852-1.386 1.1863-3.9957 1.2122-7.7576 0.0245-3.5566 0.0416-3.6673 0.42835-2.7786 1.1882 2.73 1.7254 9.6337 1.0757 13.825-0.19737 1.2733-0.31626 2.3151-0.2642 2.3151 0.0521 0 0.37756-0.62508 0.72334-1.3891 0.82798-1.8294 1.4568-5.0004 1.4667-7.3972 7e-3 -1.5957 0.0613-1.8379 0.31567-1.4002 0.19851 0.34146 0.35165 2.6878 0.43173 6.6146l0.1241 6.0854 0.58439-3.3346c0.32141-1.834 0.79219-3.9771 1.0462-4.7625 0.44819-1.3859 1.9498-4.0676 2.16-3.8575 0.0573 0.057258-0.0897 0.86546-0.32658 1.796-0.31244 1.2274-0.46765 3.417-0.56537 7.9757l-0.13469 6.2839h-147.22l0.37746-1.7859zm129.35-5.6885c-0.0734-0.1819-0.13346-0.033073-0.13346 0.33073s0.0601 0.51263 0.13346 0.33073c0.0734-0.1819 0.0734-0.47956 0-0.66146zm0.27009-2.6293c-0.0845-0.21107-0.14715-0.14837-0.15985 0.15985-0.0115 0.27891 0.0511 0.43518 0.13897 0.34727 0.0879-0.087919 0.0973-0.31612 0.0209-0.50712z" clip-path="url(#clipPath25322)" fill="#008000"/>
   <path transform="translate(-70.653 -49.945)" d="m106.53 78.129c-0.0795-0.20732-0.11316-4.1859-0.0747-8.8413 0.0672-8.1373 0.0874-8.4337 0.52238-7.6706l0.45243 0.79375 0.0106-1.2539c6e-3 -0.68966-0.22747-1.8803-0.51844-2.6458-0.55014-1.4474-0.70153-2.7202-0.29358-2.4681 0.34125 0.2109 2.301 4.3182 2.6912 5.6402 0.18253 0.61846 0.43209 1.1245 0.55457 1.1245 0.58507 0-0.0963-3.3056-1.1044-5.3578-0.41103-0.83674-0.64736-1.5214-0.52518-1.5214 0.67745 0 3.2428 2.8514 4.1225 4.5822l0.96579 1.9001-0.13381-1.6107c-0.0736-0.88591-0.33422-1.9983-0.57917-2.472-0.65363-1.264-0.27912-1.317 0.94323-0.13341 1.1201 1.0846 1.6596 1.9165 2.3784 3.6675l0.42643 1.0388 0.1915-1.7003c0.17193-1.5265 1.4274-5.9371 1.6318-5.7327 0.0452 0.04524-0.0451 1.2943-0.20077 2.7757-0.15565 1.4814-0.1985 3.1439-0.0952 3.6944l0.18778 1.0009 0.42595-0.79332c0.23427-0.43633 0.62288-1.5672 0.86359-2.5131l0.43764-1.7198 0.18997 2.1167c0.25009 2.7866 0.25344 2.7937 0.81042 1.7203 0.27679-0.53341 0.55189-1.8225 0.64934-3.0427l0.16909-2.1172 0.32194 1.4552c0.17708 0.80036 0.41542 2.5268 0.52966 3.8365l0.2077 2.3812 0.48189-2.5768c0.36408-1.9469 0.45631-3.452 0.37727-6.1567-0.0575-1.9689-0.0179-3.3454 0.0881-3.0589 0.40452 1.0935 1.0134 4.5475 1.0134 5.7488 0 0.93212 0.0768 1.1779 0.29875 0.95595 0.19537-0.19538 0.25756-1.0834 0.17972-2.5665-0.0655-1.2472-0.0731-2.2677-0.017-2.2677 0.24554 0 2.2074 4.5571 2.4912 5.7869 0.32159 1.3932 0.74695 1.8209 0.7573 0.76153 0.0156-1.5978 2.2682-4.6092 4.192-5.604l0.81516-0.42154-0.50874 0.86303c-0.2798 0.47467-0.59013 1.373-0.6896 1.9963l-0.18086 1.1332 0.9348-0.9348c1.2015-1.2015 1.5906-1.1913 0.97028 0.02545-0.26927 0.52814-0.56697 1.4764-0.66158 2.1073-0.18168 1.2115 0.29951 3.8116 0.7054 3.8116 0.13101 0 0.2382-0.11471 0.2382-0.2549 0-0.60114 3.2669-3.6891 4.7251-4.4663 2.003-1.0676 2.4704-1.0595 1.444 0.02487-0.75617 0.79889-1.4066 1.8039-1.4066 2.1733 0 0.08668 0.32742-0.08149 0.7276-0.37373 0.44638-0.32597 1.3412-0.58935 2.3151-0.68144l1.5875-0.15011-1.2233 0.66156c-0.93349 0.50485-1.3284 0.92441-1.6672 1.7712-0.24419 0.61029-0.34467 1.2089-0.22328 1.3303 0.33816 0.33817 3.2161-1.1346 4.9045-2.5098l1.5087-1.2289-0.52525 1.3326c-0.28889 0.73291-0.52525 1.3972-0.52525 1.4762 0 0.07902 0.69925-0.55559 1.5539-1.4102 1.448-1.448 3.7841-2.9329 5.3253-3.3849 0.48914-0.14346 0.34578 0.0497-0.55031 0.74149-1.0555 0.81486-2.3378 2.3029-1.9844 2.3029 0.0678 0 0.51702-0.22908 0.99828-0.50906 0.96947-0.56401 3.4146-1.0784 5.1258-1.0784h1.1109l-1.0272 1.0272c-1.197 1.197-1.3733 1.8904-0.27407 1.0777 0.41422-0.30625 1.2774-0.6183 1.9182-0.69345l1.1651-0.13664-0.87582 0.55904c-0.78155 0.49887-1.6377 1.8942-1.6377 2.6691 0 0.1576 0.38695-0.0044 0.8599-0.35994 0.47294-0.35556 1.9421-1.1866 3.2648-1.8468s2.7812-1.517 3.2411-1.904c0.98987-0.83292 0.99513-0.81842 0.28501 0.78692-0.3032 0.68544-0.49799 1.2995-0.43287 1.3646 0.2003 0.2003 3.0466-3.0183 3.7881-4.2836 0.38495-0.65687 0.73914-1.1551 0.78709-1.1071 0.048 0.04795-0.27157 1.3159-0.71004 2.8177-0.43846 1.5018-0.73878 2.789-0.66737 2.8604 0.0714 0.07141 0.69159-0.71494 1.3782-1.7475 0.68658-1.0325 1.2613-1.8773 1.2771-1.8773 0.0158 0-0.044 1.0418-0.133 2.3151s-0.13106 2.3531-0.0935 2.3995c0.0376 0.0464 1.0398-1.7991 2.2272-4.101 1.1874-2.302 2.084-3.9473 1.9924-3.6562-0.30966 0.98454-0.91673 3.7016-0.91628 4.101 2.4e-4 0.21828 0.26909-0.07937 0.59743-0.66146 0.61083-1.0828 2.3989-2.2684 4.0245-2.6683l0.79375-0.19527-0.82829 0.7011c-1.0637 0.90034-1.6852 2.223-1.6852 3.5861 0 1.1414 0.69474 3.2065 1.0787 3.2065 0.37776 0 2.3708-2.8395 4.5432-6.4728 1.128-1.8866 2.0498-3.3748 2.0485-3.3073-1e-3 0.06755-0.40175 1.4623-0.88973 3.0994-0.48798 1.6371-0.86062 2.9766-0.8281 2.9766 0.0325 0 0.57527-0.79807 1.2061-1.7735 1.1851-1.8325 4.4579-5.4612 5.3619-5.945 0.43017-0.23022 0.40533-0.13077-0.15313 0.61299-1.4432 1.9221-2.8466 5.5589-2.84 7.3595 2e-3 0.55789 0.14208 0.42858 0.82442-0.76136 0.77363-1.3492 3.2282-3.9906 3.7083-3.9906 0.1206 0-0.12674 0.68461-0.54963 1.5214-0.4229 0.83674-0.9445 2.2357-1.1591 3.1089-0.4863 1.9784-0.78127 4.6328-0.51365 4.6223 0.11042-0.0043 0.59932-0.70416 1.0865-1.5552 0.48714-0.85102 1.602-2.2465 2.4775-3.101l1.5918-1.5537-0.71392 1.1547c-0.39266 0.63509-0.88632 1.6433-1.097 2.2405l-0.38309 1.0858 0.92633-1.0822c0.80884-0.94495 4.648-3.2836 5.349-3.2585 0.1233 0.0044 0.0333 0.11964-0.20007 0.25603-0.55881 0.32664-2.7319 3.1502-2.5582 3.324 0.31564 0.31563 5.1003-2.7336 6.1893-3.9444l1.1534-1.2824-0.40446 1.1501c-0.22246 0.63255-0.69918 1.5966-1.0594 2.1423-0.60129 0.91094-0.61449 0.99219-0.16113 0.99219 1.0047 0 2.2838-1.1748 3.1687-2.9104l0.87684-1.7198-0.17436 1.7198c-0.15471 1.5259-0.35229 2.5727-0.82401 4.3656-0.21986 0.83566 1.7065-1.9488 2.5626-3.7042 0.42584-0.87312 0.94701-2.2423 1.1582-3.0427l0.38392-1.4552 8e-3 1.4552c5e-3 0.80036-0.16391 2.4077-0.37425 3.5719-0.21034 1.1642-0.38478 2.1971-0.38765 2.2955-3e-3 0.09834 0.66584-0.52472 1.486-1.3846 1.348-1.4133 3.6613-3.1598 4.1851-3.1598 0.11333 0-0.20199 0.45166-0.70071 1.0037-0.89652 0.99234-1.8498 2.7409-2.1935 4.0234-0.14058 0.52454-0.0582 0.46978 0.39782-0.26458 0.89598-1.4427 2.625-3.1443 4.3355-4.2666 1.9062-1.2507 2.2311-1.2961 1.1819-0.1652-0.43877 0.47294-1.0547 1.2171-1.3687 1.6536l-0.5709 0.79375 0.65598-0.46933c2.9004-2.0751 5.3567-3.3318 7.3409-3.7556l0.86409-0.18458-1.2968 1.3314c-1.2316 1.2644-2.5614 3.8265-3.0956 5.9641-0.18572 0.74322-0.12141 0.71558 1.8974-0.81524 1.1493-0.8715 2.673-1.924 3.3859-2.3389l1.2962-0.75436-0.72602 1.2389c-0.39932 0.68138-0.61008 1.2389-0.46836 1.2389s1.0646-0.85541 2.0509-1.9009l1.7932-1.9009-0.1476 1.041c-0.0812 0.57256-0.23353 1.2791-0.33853 1.5702-0.16922 0.46902-0.14115 0.46256 0.24694-0.05675 0.629-0.84171 1.2134-2.6325 1.2228-3.7468 0.0169-2.0151 0.54725-0.03318 0.83838 3.1331 0.16011 1.7415 0.38326 3.1093 0.49587 3.0397 0.11261-0.0696 0.42221-0.75022 0.68799-1.5125 0.36741-1.0537 0.47763-2.1178 0.45981-4.439-0.0129-1.6792-0.098-3.4056-0.18904-3.8365-0.24954-1.1806 1.3356 2.126 1.8424 3.8435 0.39889 1.3515 0.44582 1.4064 0.67871 0.79375 0.13761-0.362 0.18156-1.313 0.0977-2.1134-0.14294-1.3636-0.12605-1.4219 0.26819-0.92604 0.63171 0.79451 1.4181 2.7155 1.8242 4.4564 0.19895 0.85281 0.41917 1.608 0.48938 1.6782 0.1276 0.12761 0.38024-1.7574 0.50305-3.7534l0.0651-1.0583 0.55465 1.0583c0.30505 0.58208 0.97711 1.8466 1.4935 2.81l0.93883 1.7517 0.18258-1.9483c0.10041-1.0716 0.28132-2.2766 0.40201-2.6777 0.18664-0.62038 0.22283-0.5301 0.24217 0.6041 0.0125 0.73341 0.20525 2.0342 0.42832 2.8906 0.40743 1.5642 1.6344 4.1103 1.9807 4.1103 0.10203 0 0.25141-0.6385 0.33195-1.4189 0.22867-2.2155 1.4736-4.3433 3.3922-5.7977 1.28-0.97033 1.4291-0.90818 0.65053 0.27126-0.69631 1.0549-1.4699 3.0241-1.4683 3.7374 5.3e-4 0.26478 0.18681 0.12505 0.48505-0.364 0.93527-1.5336 2.8326-2.9147 5.1065-3.717l1.0344-0.36497-0.63803 0.85034c-0.73731 0.98264-2.0202 3.4683-2.0202 3.9143 0 0.1669 0.56555-0.29224 1.2568-1.0203 1.1446-1.2056 2.9614-2.3451 4.4979-2.821 0.52947-0.16399 0.59531-0.09318 0.59531 0.64033 0 0.4536-0.16839 1.1503-0.37419 1.5483-0.20581 0.39799-0.44947 1.1957-0.54147 1.7728l-0.16727 1.0492 0.47532-0.79375c0.46501-0.77655 0.47683-0.61368 0.54529 7.5148 0.0385 4.5697 0.028 8.3505-0.0233 8.4018-0.0513 0.05131-33.446 0.17201-74.211 0.26822-64.009 0.15108-74.137 0.12353-74.262-0.20199zm0.77562-34.188c0.53317-1.7901 1.2215-5.7089 1.493-8.4999 0.31908-3.2803 0.17924-9.2328-0.25993-11.065-0.31777-1.3254-0.12208-1.2531 0.49309 0.18201 0.50768 1.1844 1.1809 4.1909 1.4848 6.631l0.16476 1.3229 0.98871-2.8054c1.1325-3.2134 2.63-6.3581 3.578-7.5133 0.64417-0.785 0.64292-0.77332-0.11275 1.0583-0.71628 1.7362-1.7427 6.1618-1.4881 6.4164 0.0634 0.06339 0.94277-1.6097 1.9542-3.7179 1.4491-3.0206 2.1435-4.1476 3.2755-5.3164 0.79013-0.81576 1.5734-1.4832 1.7405-1.4832 0.19439 0 0.0765 0.60417-0.32718 1.6766-0.78825 2.0942-1.2942 5.6692-1.0733 7.5838 0.26447 2.2923 0.72073 4.4982 0.96111 4.6468 0.32839 0.20296 1.7392-2.7554 2.329-4.8836 0.28438-1.0262 0.60298-2.8509 0.708-4.0547l0.19093-2.1888 0.36733 1.0574c0.20203 0.58156 0.49783 1.9314 0.65733 2.9996 0.18733 1.2546 0.3696 1.8166 0.51482 1.5875 0.30598-0.48277 0.29203-3.8469-0.0207-4.9866l-0.2536-0.9243 0.79682 0.92604c0.69297 0.80535 2.1677 3.5515 2.7706 5.1594 0.26989 0.71972 0.87184-2.3148 0.91848-4.6302l0.0346-1.7198 0.50037 1.0866c0.79372 1.7236 1.3192 4.0193 1.4904 6.5119 0.0872 1.2688 0.26021 2.244 0.38448 2.1672 0.12428-0.07681 0.22596-0.38349 0.22596-0.68152 0-0.93226 1.5098-3.7505 2.5277-4.7186l0.97384-0.92604-0.43231 0.85534c-0.23777 0.47043-0.5062 1.4229-0.59651 2.1167l-0.16421 1.2613 1.0954-1.6219c0.64918-0.96123 1.6618-2.0121 2.486-2.5797 1.5001-1.0332 2.1236-1.2436 1.4372-0.48508-0.40161 0.44377-1.2417 2.2037-1.2417 2.6012 0 0.09927 0.33649-0.28386 0.74775-0.8514 1.1944-1.6483 3.1855-2.9599 5.5958-3.6862 0.63312-0.19078 0.62647-0.16487-0.19893 0.77521-0.87036 0.99128-2.1759 3.3279-2.1759 3.8944 0 0.17219 0.33768-0.15127 0.75039-0.71881 1.6257-2.2356 4.6799-4.2753 7.1358-4.7658 0.86704-0.17314 0.86032-0.16022-0.76023 1.4603-1.71 1.71-1.8928 2.1941-0.57017 1.5102 0.4313-0.22303 1.6032-0.48658 2.6043-0.58566l1.8201-0.18015-1.029 1.0116c-0.9936 0.97672-2.0547 2.9127-2.4226 4.4202-0.14027 0.5747-0.0845 0.7276 0.26531 0.7276 0.77134 0 4.2157-1.7267 5.2422-2.6279 1.1182-0.98175 1.2706-0.67184 0.43584 0.88573l-0.55103 1.0281 0.88176-0.54453c1.3504-0.83394 2.7648-2.8674 3.4358-4.9395l0.60611-1.8716 0.33516 1.8271c0.18434 1.0049 0.3882 1.8801 0.45303 1.9449 0.24023 0.24024 0.77599-2.2512 0.92491-4.3012l0.15377-2.1167 0.5728 0.92604c0.98835 1.5978 1.7316 4.2441 1.8765 6.6807 0.1818 3.0578 0.67671 3.0185 1.4901-0.11838l0.36379-1.403 0.69115 1.5508c0.86583 1.9427 1.7526 4.7867 1.7526 5.6208 0 1.0296 0.42242 0.72978 1.0645-0.75548 0.76303-1.765 1.3096-3.7951 1.3136-4.8792 6e-3 -1.5061 0.47066-1.1821 0.76991 0.53628 0.16036 0.92084 0.2994 1.9026 0.30897 2.1818 0.01 0.27912 0.19051-0.14735 0.40208-0.94771 0.38864-1.4703 1.5555-3.4396 2.1552-3.6375 0.23875-0.07877 0.22108 0.14302-0.0661 0.83046-0.21554 0.51586-0.39189 1.5841-0.39189 2.3738 0 1.3644 0.86117 4.8037 1.3252 5.2923 0.29994 0.31584 0.80792-0.75491 2.1166-4.4616 1.4798-4.1912 2.188-5.7548 3.2806-7.2433 0.90862-1.2378 3.3317-3.2096 3.3317-2.7112 0 0.14597-0.13094 0.34634-0.29099 0.44525-0.16005 0.09891-0.75664 0.90028-1.3258 1.7808-1.2634 1.9548-2.297 5.1174-2.5075 7.6728l-0.1571 1.9072 0.77642-1.5875c0.92461-1.8905 2.3599-3.2545 4.6215-4.392l1.6615-0.83564-1.475 1.4232c-1.4642 1.4128-2.5139 3.3717-2.3203 4.33 0.0813 0.40219 0.17207 0.38708 0.84039-0.13976 0.72915-0.57479 4.2181-2.0783 4.8651-2.0965 0.19178-0.0054 0.0631 0.37349-0.31702 0.93366-0.62776 0.92506-1.1577 3.1529-0.82828 3.4823 0.092 0.09199 0.89066-0.17852 1.7748-0.60111 1.466-0.7007 2.7753-1.8597 3.5962-3.1834 0.26477-0.42695 0.31938-0.23321 0.34148 1.2116l0.0263 1.7198 0.7284-0.85064c0.40061-0.46786 0.9832-1.5394 1.2946-2.3812l0.56625-1.5306 0.0155 1.8521c9e-3 1.0186-0.20536 2.7748-0.47526 3.9026-0.26989 1.1278-0.41613 2.0505-0.32499 2.0505 0.49789 0 3.8601-3.4226 4.2728-4.3495l0.47838-1.0745 0.0187 1.1073c0.0103 0.60899-0.0995 1.418-0.24388 1.7979l-0.26257 0.69061 0.91744-0.69977c0.50459-0.38487 1.3594-0.79945 1.8996-0.92128l0.98219-0.22152-0.6861 0.57863c-0.37735 0.31825-0.83493 0.87336-1.0168 1.2336-0.33034 0.65418-0.32997 0.65442 0.30581 0.1987 1.0936-0.78387 2.9733-1.7079 4.0761-2.0037l1.0583-0.28388-0.7276 0.63812c-0.40019 0.35096-0.72761 0.6983-0.72761 0.77187 0 0.07356 0.7364-0.21452 1.6364-0.64017 2.6282-1.243 6.1717-1.7907 4.2532-0.6574-1.0922 0.64523-2.1201 1.983-1.5236 1.983 0.82977 0 3.689-1.1138 4.772-1.8589 1.2128-0.83442 3.562-3.3209 3.562-3.7701 0-0.15404 0.0735-0.20656 0.16336-0.11671 0.0899 0.08985-0.3318 1.092-0.93698 2.2269l-1.1004 2.0636 1.3441-1.4509c1.5702-1.695 2.7527-3.9198 3.1817-5.9865 0.16763-0.80746 0.36783-1.4051 0.44488-1.328 0.24287 0.24288-0.44246 5.1903-0.85612 6.1803-0.21752 0.5206-0.3496 0.99244-0.29351 1.0485 0.0561 0.05609 0.6531-0.511 1.3267-1.2602 1.5251-1.6962 2.6855-4.0889 3.1312-6.4562l0.34184-1.8155 0.15726 1.1565c0.25869 1.9024-0.56718 8.656-1.2883 10.535-0.0979 0.25513-0.0406 0.32228 0.16597 0.19459 0.39338-0.24312 1.8098-3.023 2.4389-4.7866l0.4719-1.3229 0.0642 4.7625 0.78765-1.5261c0.43321-0.83934 0.94908-2.149 1.1464-2.9104l0.35871-1.3843 0.1978 1.5493c0.20103 1.5745 0.0534 4.2638-0.29969 5.4595-0.13219 0.44761 0.55207-0.12577 2.1345-1.7886 2.6523-2.7871 5.4541-5.2486 4.4362-3.8973-2.1173 2.8108-3.0139 4.1592-3.3648 5.0604-0.38911 0.99945-0.38752 1.0085 0.0636 0.36361 0.85881-1.2278 2.9324-3.3038 3.8194-3.824l0.88119-0.51675-0.99815 1.1666c-0.82761 0.96732-1.78 3.1186-1.78 4.0207 0 0.12176 0.92273-0.70665 2.0505-1.8409 1.3893-1.3973 2.6477-2.3702 3.9026-3.0173 3.1022-1.5996 3.3901-1.5796 1.7859 0.12369-1.5545 1.6506-1.8179 2.1791-0.5576 1.1186 1.0824-0.91082 2.9106-1.8277 4.7067-2.3606 0.7904-0.23451 1.4889-0.42638 1.5521-0.42638 0.0633 0-0.31252 0.47328-0.83512 1.0517-0.93456 1.0344-2.5731 4.0012-2.9263 5.2983l-0.1801 0.66146 0.60843-0.69954c0.65609-0.75434 2.5115-2.0786 2.9123-2.0786 0.13512 0 0.0135 0.32742-0.2702 0.7276-0.54856 0.77369-1.3722 2.9809-1.3722 3.6772 0 0.22964 0.38695-0.16021 0.85989-0.86633 0.85704-1.2796 3.1746-3.0665 4.4318-3.4169l0.66145-0.18438-0.71732 0.76278c-0.39453 0.41953-0.90263 1.288-1.1291 1.9299l-0.41178 1.1671 1.6678-1.6015c1.3258-1.2731 4.4092-3.2538 5.0654-3.2538 0.0684 0-0.38678 0.82906-1.0115 1.8424-1.7183 2.787-2.1405 4.3545-2.1405 7.9472 0 1.6735 0.0977 3.648 0.21723 4.3879l0.21722 1.3452-146.14 0.05842zm0.34867-35.043c0.27775-1.3142 0.3392-2.8693 0.23264-5.887-0.13233-3.7477-0.34619-5.1849-1.378-9.2604-0.15756-0.62236-0.1348-0.61454 0.38498 0.13229 0.81876 1.1764 2.0396 4.7408 2.4478 7.1467l0.35861 2.1137 0.17152-2.1167c0.26422-3.2607-0.14791-6.1994-1.3547-9.66-1.105-3.1686-1.2601-4.3814-0.72144-5.6419 0.2924-0.68426 0.32029-0.59085 0.3188 1.0678-1e-3 1.5089 0.13047 2.0633 0.776 3.2634 2.4174 4.4942 2.3881 4.4074 2.539 7.52 0.0779 1.6068 0.21307 2.7429 0.30043 2.5246 0.52056-1.3007 1.6473-5.5927 1.7985-6.8509l0.1783-1.4834 0.23549 1.0583c0.38016 1.7085 0.20369 4.282-0.52129 7.6023-0.65743 3.0109-0.95929 5.9337-0.36253 3.5102 1.1696-4.7496 2.5068-7.9084 3.9219-9.2641l0.75478-0.72313-0.67188 1.6634c-0.46987 1.1633-0.70172 2.3067-0.77108 3.803-0.083 1.7897-0.0521 2.0047 0.18848 1.3148 0.15821-0.45363 0.54569-1.1484 0.86105-1.5439l0.57339-0.7191-0.10377 2.055c-0.11756 2.3281 0.28527 4.5355 1.0938 5.9937 0.91764 1.6551 1.0664 1.4176 1.5326-2.4474 0.19938-1.6528 0.23902-4.2578 0.11574-7.6068-0.10312-2.8013-0.13219-5.0932-0.0646-5.0932 0.24938 0 1.3302 5.7743 1.6335 8.7266l0.31301 3.0473 0.2035-3.7285c0.22958-4.2064 0.14481-5.0868-0.90202-9.3684-0.78038-3.1919-1.1322-4.9334-0.95826-4.7432 0.29489 0.32236 2.408 5.8694 2.714 7.1245 0.19515 0.80036 0.36855 2.3482 0.38533 3.4396 0.0523 3.3999 0.45153 3.6139 0.48055 0.25764 0.036-4.1604 0.4584-7.2592 1.2163-8.9227 0.65034-1.4274 1.0969-1.8502 0.83845-0.79375-0.0801 0.32742-0.28508 2.3432-0.45552 4.4795-0.23854 2.9901-0.23702 4.719 7e-3 7.5107 0.41042 4.7032 0.57939 5.1684 1.137 3.1302 0.71531-2.6146 1.0504-4.7493 0.94784-6.0386-0.0844-1.0607-0.0508-1.1632 0.24736-0.75577 0.58032 0.79303 1.0795 2.9911 1.2786 5.6308 0.1687 2.2357 0.21738 2.4112 0.44038 1.5875 0.13789-0.50932 0.18188-2.0571 0.0977-3.4396-0.10036-1.6492-0.0662-2.3641 0.0992-2.079 0.34914 0.60164 0.97116 3.4625 1.1907 5.4766 0.23107 2.1195 0.58519 1.8066 0.82048-0.72501 0.17736-1.9084 0.18838-1.9318 0.56826-1.2067 0.21307 0.40666 0.53811 1.7017 0.7223 2.8779l0.3349 2.1385 0.0356-4.8948c0.0403-5.5457 0.31232-7.9385 1.1144-9.803 0.75988-1.7664 1.3235-2.2296 1.0088-0.82909-0.43827 1.9506-0.71607 5.4743-0.52533 6.6633l0.191 1.1906 0.3328-0.79375c1.6458-3.9252 2.6536-8.6247 2.6886-12.536 0.0165-1.8468 0.0847-2.3383 0.24867-1.7914 0.43838 1.4624 0.55904 4.8363 0.27584 7.713-0.33545 3.4073-0.56902 6.965-0.38215 5.8208 0.63574-3.8926 1.8318-7.1448 3.0165-8.2021l0.59293-0.52917-0.15805 0.52917c-1.0406 3.4839-1.8809 9.4065-1.5392 10.848 0.20171 0.85096 0.25608 0.91844 0.27745 0.34439 0.0813-2.1841 2.0016-6.4337 3.5489-7.8535l0.68646-0.6299-0.50891 1.3393c-0.83485 2.1972-1.0815 4.5347-0.88721 8.407 0.0987 1.9669 0.26664 3.4814 0.37318 3.3656 0.27897-0.30315 1.5705-5.9001 1.6098-6.976 0.0308-0.84505 0.0477-0.82557 0.24497 0.28317 0.11652 0.65484 0.22545 2.0241 0.24206 3.0427l0.0302 1.8521 0.43655-0.79375c0.28963-0.52661 0.48665-1.7287 0.5854-3.5719l0.14885-2.7781 0.62349 1.5875c0.34293 0.87312 0.68634 2.3316 0.76315 3.2411 0.14688 1.7393 0.42292 2.1162 0.71054 0.9702 0.22307-0.88878 1.2309-2.4581 2.0875-3.2506l0.67745-0.62672-0.37807 1.4205c-0.5605 2.1059-0.4578 2.3705 0.34943 0.90039 0.74782-1.3619 2.3497-2.5793 3.8771-2.9465l0.77442-0.18618-0.58307 0.81883c-0.32068 0.45036-0.7698 1.2722-0.99805 1.8264l-0.41499 1.0075 0.8851-0.81791c1.4019-1.2955 2.3749-1.8771 4.1285-2.4679 2.0852-0.70244 2.4074-0.69405 1.7139 0.044633-0.55528 0.59149-1.7012 2.8813-1.5284 3.0541 0.16783 0.16783 2.6503-1.2459 3.4898-1.9874 0.4583-0.40481 1.2621-1.3109 1.7863-2.0135 0.73564-0.98613 0.99048-1.1798 1.1173-0.84936 0.23668 0.61679-0.37233 3.4527-1.1386 5.3019-1.1034 2.6627-1.395 3.5719-1.1458 3.5719 0.41825 0 2.1011-3.7624 2.6444-5.9123 0.28854-1.1417 0.73077-3.875 0.98274-6.0741 0.53681-4.685 0.81048-4.401 0.84227 0.87386 0.0222 3.6877-0.34181 6.9477-1.2825 11.485-0.29891 1.4417-0.49862 2.6661-0.44381 2.7209 0.19903 0.19903 1.525-2.9312 2.1386-5.0486 1.2982-4.4798 1.4685-9.7057 0.52188-16.013-0.20557-1.3698-0.36538-2.6199-0.35513-2.7781 0.0364-0.56193 0.8176 1.8766 1.6454 5.1363 0.79047 3.1128 0.84016 3.5913 0.84469 8.1358 3e-3 2.6557 0.0312 4.8286 0.0633 4.8286 0.0322 5.583e-5 0.32985-0.8631 0.66146-1.9181 0.55173-1.7553 0.60088-2.39 0.57878-7.4745-0.026-5.9759 0.0115-5.9996 1.0991-0.69551 0.6861 3.3461 0.91076 7.1001 0.55624 9.2945-0.16277 1.0074 0.12441 0.57822 1.8664-2.7893 1.9202-3.7121 3.1927-5.8221 3.3915-5.6233 0.0464 0.046442-0.20467 1.1976-0.55803 2.558s-0.63996 2.8474-0.63689 3.3042c5e-3 0.67532 0.12107 0.50348 0.62321-0.91897 0.77778-2.2033 2.096-4.1912 4.0157-6.0556 1.2381-1.2024 1.4297-1.3173 1.1028-0.66146-0.45366 0.91039-1.781 5.0288-1.7738 5.5038 3e-3 0.17439 0.55708-0.63543 1.2321-1.7996 1.5149-2.6126 3.3004-4.9248 4.5231-5.8574 0.50918-0.38838 0.87592-0.59857 0.81497-0.4671-0.0609 0.13147-0.60738 1.2337-1.2143 2.4493-1.5828 3.1705-1.956 5.1644-1.8645 9.9606l0.0757 3.9687 0.72937-1.3838c0.99633-1.8902 1.7985-3.9138 2.1784-5.4954l0.31777-1.3229 0.21244 3.175 0.21245 3.175 0.38063-1.3229c0.20935-0.7276 0.40004-2.5429 0.42376-4.0339 0.0237-1.4911 0.0694-2.7115 0.10164-2.712 0.0322-5.292e-4 0.32329 0.86225 0.6469 1.9173 0.63552 2.072 0.80757 5.6671 0.4018 8.3957-0.29491 1.9832 0.0558 1.5043 0.51833-0.70789 0.41668-1.9926 1.0681-3.4005 2.2834-4.9351 0.44324-0.55967 1.2008-1.7503 1.6836-2.6458l0.87768-1.6282 6e-3 0.99053c4e-3 0.61424-0.44232 1.9881-1.1741 3.6164-1.6486 3.668-1.7994 4.5721-0.40899 2.4519 2.207-3.3655 3.6469-6.8193 4.0459-9.7046 0.0604-0.43656 0.12745 0.15875 0.14906 1.3229 0.0216 1.1642-0.13739 3.1205-0.35332 4.3475-0.21592 1.227-0.3522 2.2712-0.30283 2.3206 0.33517 0.33517 3.5766-9.2407 3.6329-10.733 0.0145-0.3839 0.13149-0.99566 0.25995-1.3595 0.46138-1.3066 7e-3 6.4729-0.55348 9.4768-0.30731 1.647-0.51665 3.1208-0.4652 3.2751 0.21172 0.63517 1.8375-3.6111 2.3855-6.2304 0.32416-1.5495 0.69674-2.8173 0.82794-2.8173 0.40991 0-0.0176 5.8243-0.60964 8.3059-0.30873 1.294-0.5159 2.3982-0.46039 2.4537 0.0555 0.055512 0.37132-0.64606 0.70179-1.5591 1.1902-3.2881 2.2754-4.8933 4.2667-6.3112l0.73261-0.52167-0.65093 1.6019c-0.79536 1.9574-1.3323 4.4667-1.5569 7.2752l-0.16922 2.1167 0.65474-1.5439c0.9656-2.2769 2.8187-4.815 2.8083-3.8464-2e-3 0.19972-0.18813 1.137-0.41327 2.0829-0.62703 2.6343-0.85402 3.9696-0.67314 3.96 0.19485-0.010331 2.4692-5.2118 3.3512-7.6642l0.6185-1.7198 0.0139 1.1906c8e-3 0.65484-0.34257 2.4264-0.77823 3.9368-0.43566 1.5104-0.78815 2.9987-0.78331 3.3073l9e-3 0.56115 0.47516-0.56879c0.26133-0.31284 0.72383-1.3844 1.0278-2.3812 0.30394-0.99685 0.92243-3.0308 1.3744-4.5199 0.65999-2.1744 1.0209-2.9167 1.8329-3.7703 0.55607-0.58457 1.1282-1.0629 1.2715-1.0629s-0.0742 0.68461-0.48323 1.5214c-0.92292 1.888-1.463 3.9672-1.6815 6.4728l-0.1681 1.9278 0.54525-0.66146c1.2993-1.5763 2.8949-7.1917 2.9591-10.414 0.0267-1.3393 0.0308-1.3459 0.27106-0.43379 0.28719 1.09 0.0805 5.7691-0.44341 10.038-0.2043 1.6648-0.32827 3.0701-0.27548 3.1229 0.19744 0.19744 1.831-4.6827 2.6626-7.9543 0.50885-2.0018 0.93097-3.2129 1.03-2.9549 0.31357 0.81716 0.16928 5.6072-0.23952 7.9515-0.22399 1.2844-0.70924 3.0562-1.0783 3.9373-0.36909 0.88106-0.74226 1.8401-0.82926 2.1311-0.14497 0.48499-0.11736 0.49603 0.33077 0.13229 0.26893-0.21828 1.3711-2.2138 2.4492-4.4346 1.4109-2.9062 2.3346-4.4473 3.296-5.4993 0.73468-0.80385 1.386-1.4113 1.4474-1.35 0.0614 0.061373-0.30175 1.2991-0.80694 2.7505-0.50519 1.4514-0.98905 3.221-1.0752 3.9325l-0.15672 1.2936 0.35651-1.0583c0.98057-2.9109 3.0968-5.6968 5.7343-7.5488l0.92604-0.65024-0.61431 0.92451c-0.94521 1.4225-2.1326 3.9966-2.3182 5.0255l-0.16702 0.92604 0.66535-0.9421c0.84252-1.193 2.7649-2.7217 2.4543-1.9517-0.77005 1.9088-1.1876 3.4898-1.4577 5.5197-0.1705 1.2812-0.26006 2.3793-0.19904 2.4403 0.061 0.061018 0.55376-1.173 1.095-2.7422 1.2021-3.4853 2.6967-6.4067 4.1332-8.0787 1.175-1.3676 1.9365-1.724 1.0632-0.49758-0.68168 0.95733-1.02 1.8109-1.639 4.1356-0.66644 2.5027-0.60683 3.0013 0.12385 1.0359 0.51507-1.3854 1.6022-3.2848 1.88-3.2848 0.0489 0-0.13783 0.59659-0.41489 1.3258-0.27706 0.72916-0.49301 1.5328-0.47988 1.7859 0.0131 0.2531 0.13171 0.088203 0.26352-0.36644 0.13182-0.45464 0.42622-0.98145 0.65424-1.1707 0.36631-0.30402 0.38953-0.254 0.19949 0.42975-0.27603 0.99311-0.27669 7.2244-7.9e-4 7.9083 0.36548 0.9061 4.2296-11.216 5.0995-15.998l0.36101-1.9844-0.11396 3.5719c-0.0791 2.4795-0.31786 4.4975-0.78069 6.5987-0.3667 1.6648-0.62055 3.073-0.56412 3.1294 0.0564 0.056436 0.41468-0.35313 0.7961-0.91015 0.80375-1.1738 1.572-3.6189 2.0153-6.4141 0.25121-1.5839 0.36393-1.8675 0.58517-1.4721 0.33002 0.58971 0.40306 3.5519 0.12383 5.0214-0.19865 1.0454-0.19624 1.0497 0.19719 0.34923 0.77852-1.386 1.1863-3.9957 1.2122-7.7576 0.0245-3.5566 0.0416-3.6673 0.42835-2.7786 1.1882 2.73 1.7254 9.6337 1.0757 13.825-0.19737 1.2733-0.31626 2.3151-0.2642 2.3151 0.0521 0 0.37756-0.62508 0.72334-1.3891 0.82798-1.8294 1.4568-5.0004 1.4667-7.3972 7e-3 -1.5957 0.0613-1.8379 0.31567-1.4002 0.19851 0.34146 0.35165 2.6878 0.43173 6.6146l0.1241 6.0854 0.58439-3.3346c0.32141-1.834 0.79219-3.9771 1.0462-4.7625 0.44819-1.3859 1.9498-4.0676 2.16-3.8575 0.0573 0.057258-0.0897 0.86546-0.32658 1.796-0.31244 1.2274-0.46765 3.417-0.56537 7.9757l-0.13469 6.2839h-147.22l0.37746-1.7859zm129.35-5.6885c-0.0734-0.1819-0.13346-0.033073-0.13346 0.33073s0.0601 0.51263 0.13346 0.33073c0.0734-0.1819 0.0734-0.47956 0-0.66146zm0.27009-2.6293c-0.0845-0.21107-0.14715-0.14837-0.15985 0.15985-0.0115 0.27891 0.0511 0.43518 0.13897 0.34727 0.0879-0.087919 0.0973-0.31612 0.0209-0.50712z" clip-path="url(#clipPath25558)" fill="#71c837"/>
   <path transform="matrix(-1 0 0 1.2377 149.27 -95.12)" d="m106.53 78.129c-0.0795-0.20732-0.11316-4.1859-0.0747-8.8413 0.0672-8.1373 0.0874-8.4337 0.52238-7.6706l0.45243 0.79375 0.0106-1.2539c6e-3 -0.68966-0.22747-1.8803-0.51844-2.6458-0.55014-1.4474-0.70153-2.7202-0.29358-2.4681 0.34125 0.2109 2.301 4.3182 2.6912 5.6402 0.18253 0.61846 0.43209 1.1245 0.55457 1.1245 0.58507 0-0.0963-3.3056-1.1044-5.3578-0.41103-0.83674-0.64736-1.5214-0.52518-1.5214 0.67745 0 3.2428 2.8514 4.1225 4.5822l0.96579 1.9001-0.13381-1.6107c-0.0736-0.88591-0.33422-1.9983-0.57917-2.472-0.65363-1.264-0.27912-1.317 0.94323-0.13341 1.1201 1.0846 1.6596 1.9165 2.3784 3.6675l0.42643 1.0388 0.1915-1.7003c0.17193-1.5265 1.4274-5.9371 1.6318-5.7327 0.0452 0.04524-0.0451 1.2943-0.20077 2.7757-0.15565 1.4814-0.1985 3.1439-0.0952 3.6944l0.18778 1.0009 0.42595-0.79332c0.23427-0.43633 0.62288-1.5672 0.86359-2.5131l0.43764-1.7198 0.18997 2.1167c0.25009 2.7866 0.25344 2.7937 0.81042 1.7203 0.27679-0.53341 0.55189-1.8225 0.64934-3.0427l0.16909-2.1172 0.32194 1.4552c0.17708 0.80036 0.41542 2.5268 0.52966 3.8365l0.2077 2.3812 0.48189-2.5768c0.36408-1.9469 0.45631-3.452 0.37727-6.1567-0.0575-1.9689-0.0179-3.3454 0.0881-3.0589 0.40452 1.0935 1.0134 4.5475 1.0134 5.7488 0 0.93212 0.0768 1.1779 0.29875 0.95595 0.19537-0.19538 0.25756-1.0834 0.17972-2.5665-0.0655-1.2472-0.0731-2.2677-0.017-2.2677 0.24554 0 2.2074 4.5571 2.4912 5.7869 0.32159 1.3932 0.74695 1.8209 0.7573 0.76153 0.0156-1.5978 2.2682-4.6092 4.192-5.604l0.81516-0.42154-0.50874 0.86303c-0.2798 0.47467-0.59013 1.373-0.6896 1.9963l-0.18086 1.1332 0.9348-0.9348c1.2015-1.2015 1.5906-1.1913 0.97028 0.02545-0.26927 0.52814-0.56697 1.4764-0.66158 2.1073-0.18168 1.2115 0.29951 3.8116 0.7054 3.8116 0.13101 0 0.2382-0.11471 0.2382-0.2549 0-0.60114 3.2669-3.6891 4.7251-4.4663 2.003-1.0676 2.4704-1.0595 1.444 0.02487-0.75617 0.79889-1.4066 1.8039-1.4066 2.1733 0 0.08668 0.32742-0.08149 0.7276-0.37373 0.44638-0.32597 1.3412-0.58935 2.3151-0.68144l1.5875-0.15011-1.2233 0.66156c-0.93349 0.50485-1.3284 0.92441-1.6672 1.7712-0.24419 0.61029-0.34467 1.2089-0.22328 1.3303 0.33816 0.33817 3.2161-1.1346 4.9045-2.5098l1.5087-1.2289-0.52525 1.3326c-0.28889 0.73291-0.52525 1.3972-0.52525 1.4762 0 0.07902 0.69925-0.55559 1.5539-1.4102 1.448-1.448 3.7841-2.9329 5.3253-3.3849 0.48914-0.14346 0.34578 0.0497-0.55031 0.74149-1.0555 0.81486-2.3378 2.3029-1.9844 2.3029 0.0678 0 0.51702-0.22908 0.99828-0.50906 0.96947-0.56401 3.4146-1.0784 5.1258-1.0784h1.1109l-1.0272 1.0272c-1.197 1.197-1.3733 1.8904-0.27407 1.0777 0.41422-0.30625 1.2774-0.6183 1.9182-0.69345l1.1651-0.13664-0.87582 0.55904c-0.78155 0.49887-1.6377 1.8942-1.6377 2.6691 0 0.1576 0.38695-0.0044 0.8599-0.35994 0.47294-0.35556 1.9421-1.1866 3.2648-1.8468s2.7812-1.517 3.2411-1.904c0.98987-0.83292 0.99513-0.81842 0.28501 0.78692-0.3032 0.68544-0.49799 1.2995-0.43287 1.3646 0.2003 0.2003 3.0466-3.0183 3.7881-4.2836 0.38495-0.65687 0.73914-1.1551 0.78709-1.1071 0.048 0.04795-0.27157 1.3159-0.71004 2.8177-0.43846 1.5018-0.73878 2.789-0.66737 2.8604 0.0714 0.07141 0.69159-0.71494 1.3782-1.7475 0.68658-1.0325 1.2613-1.8773 1.2771-1.8773 0.0158 0-0.044 1.0418-0.133 2.3151s-0.13106 2.3531-0.0935 2.3995c0.0376 0.0464 1.0398-1.7991 2.2272-4.101 1.1874-2.302 2.084-3.9473 1.9924-3.6562-0.30966 0.98454-0.91673 3.7016-0.91628 4.101 2.4e-4 0.21828 0.26909-0.07937 0.59743-0.66146 0.61083-1.0828 2.3989-2.2684 4.0245-2.6683l0.79375-0.19527-0.82829 0.7011c-1.0637 0.90034-1.6852 2.223-1.6852 3.5861 0 1.1414 0.69474 3.2065 1.0787 3.2065 0.37776 0 2.3708-2.8395 4.5432-6.4728 1.128-1.8866 2.0498-3.3748 2.0485-3.3073-1e-3 0.06755-0.40175 1.4623-0.88973 3.0994-0.48798 1.6371-0.86062 2.9766-0.8281 2.9766 0.0325 0 0.57527-0.79807 1.2061-1.7735 1.1851-1.8325 4.4579-5.4612 5.3619-5.945 0.43017-0.23022 0.40533-0.13077-0.15313 0.61299-1.4432 1.9221-2.8466 5.5589-2.84 7.3595 2e-3 0.55789 0.14208 0.42858 0.82442-0.76136 0.77363-1.3492 3.2282-3.9906 3.7083-3.9906 0.1206 0-0.12674 0.68461-0.54963 1.5214-0.4229 0.83674-0.9445 2.2357-1.1591 3.1089-0.4863 1.9784-0.78127 4.6328-0.51365 4.6223 0.11042-0.0043 0.59932-0.70416 1.0865-1.5552 0.48714-0.85102 1.602-2.2465 2.4775-3.101l1.5918-1.5537-0.71392 1.1547c-0.39266 0.63509-0.88632 1.6433-1.097 2.2405l-0.38309 1.0858 0.92633-1.0822c0.80884-0.94495 4.648-3.2836 5.349-3.2585 0.1233 0.0044 0.0333 0.11964-0.20007 0.25603-0.55881 0.32664-2.7319 3.1502-2.5582 3.324 0.31564 0.31563 5.1003-2.7336 6.1893-3.9444l1.1534-1.2824-0.40446 1.1501c-0.22246 0.63255-0.69918 1.5966-1.0594 2.1423-0.60129 0.91094-0.61449 0.99219-0.16113 0.99219 1.0047 0 2.2838-1.1748 3.1687-2.9104l0.87684-1.7198-0.17436 1.7198c-0.15471 1.5259-0.35229 2.5727-0.82401 4.3656-0.21986 0.83566 1.7065-1.9488 2.5626-3.7042 0.42584-0.87312 0.94701-2.2423 1.1582-3.0427l0.38392-1.4552 8e-3 1.4552c5e-3 0.80036-0.16391 2.4077-0.37425 3.5719-0.21034 1.1642-0.38478 2.1971-0.38765 2.2955-3e-3 0.09834 0.66584-0.52472 1.486-1.3846 1.348-1.4133 3.6613-3.1598 4.1851-3.1598 0.11333 0-0.20199 0.45166-0.70071 1.0037-0.89652 0.99234-1.8498 2.7409-2.1935 4.0234-0.14058 0.52454-0.0582 0.46978 0.39782-0.26458 0.89598-1.4427 2.625-3.1443 4.3355-4.2666 1.9062-1.2507 2.2311-1.2961 1.1819-0.1652-0.43877 0.47294-1.0547 1.2171-1.3687 1.6536l-0.5709 0.79375 0.65598-0.46933c2.9004-2.0751 5.3567-3.3318 7.3409-3.7556l0.86409-0.18458-1.2968 1.3314c-1.2316 1.2644-2.5614 3.8265-3.0956 5.9641-0.18572 0.74322-0.12141 0.71558 1.8974-0.81524 1.1493-0.8715 2.673-1.924 3.3859-2.3389l1.2962-0.75436-0.72602 1.2389c-0.39932 0.68138-0.61008 1.2389-0.46836 1.2389s1.0646-0.85541 2.0509-1.9009l1.7932-1.9009-0.1476 1.041c-0.0812 0.57256-0.23353 1.2791-0.33853 1.5702-0.16922 0.46902-0.14115 0.46256 0.24694-0.05675 0.629-0.84171 1.2134-2.6325 1.2228-3.7468 0.0169-2.0151 0.54725-0.03318 0.83838 3.1331 0.16011 1.7415 0.38326 3.1093 0.49587 3.0397 0.11261-0.0696 0.42221-0.75022 0.68799-1.5125 0.36741-1.0537 0.47763-2.1178 0.45981-4.439-0.0129-1.6792-0.098-3.4056-0.18904-3.8365-0.24954-1.1806 1.3356 2.126 1.8424 3.8435 0.39889 1.3515 0.44582 1.4064 0.67871 0.79375 0.13761-0.362 0.18156-1.313 0.0977-2.1134-0.14294-1.3636-0.12605-1.4219 0.26819-0.92604 0.63171 0.79451 1.4181 2.7155 1.8242 4.4564 0.19895 0.85281 0.41917 1.608 0.48938 1.6782 0.1276 0.12761 0.38024-1.7574 0.50305-3.7534l0.0651-1.0583 0.55465 1.0583c0.30505 0.58208 0.97711 1.8466 1.4935 2.81l0.93883 1.7517 0.18258-1.9483c0.10041-1.0716 0.28132-2.2766 0.40201-2.6777 0.18664-0.62038 0.22283-0.5301 0.24217 0.6041 0.0125 0.73341 0.20525 2.0342 0.42832 2.8906 0.40743 1.5642 1.6344 4.1103 1.9807 4.1103 0.10203 0 0.25141-0.6385 0.33195-1.4189 0.22867-2.2155 1.4736-4.3433 3.3922-5.7977 1.28-0.97033 1.4291-0.90818 0.65053 0.27126-0.69631 1.0549-1.4699 3.0241-1.4683 3.7374 5.3e-4 0.26478 0.18681 0.12505 0.48505-0.364 0.93527-1.5336 2.8326-2.9147 5.1065-3.717l1.0344-0.36497-0.63803 0.85034c-0.73731 0.98264-2.0202 3.4683-2.0202 3.9143 0 0.1669 0.56555-0.29224 1.2568-1.0203 1.1446-1.2056 2.9614-2.3451 4.4979-2.821 0.52947-0.16399 0.59531-0.09318 0.59531 0.64033 0 0.4536-0.16839 1.1503-0.37419 1.5483-0.20581 0.39799-0.44947 1.1957-0.54147 1.7728l-0.16727 1.0492 0.47532-0.79375c0.46501-0.77655 0.47683-0.61368 0.54529 7.5148 0.0385 4.5697 0.028 8.3505-0.0233 8.4018-0.0513 0.05131-33.446 0.17201-74.211 0.26822-64.009 0.15108-74.137 0.12353-74.262-0.20199zm0.77562-34.188c0.53317-1.7901 1.2215-5.7089 1.493-8.4999 0.31908-3.2803 0.17924-9.2328-0.25993-11.065-0.31777-1.3254-0.12208-1.2531 0.49309 0.18201 0.50768 1.1844 1.1809 4.1909 1.4848 6.631l0.16476 1.3229 0.98871-2.8054c1.1325-3.2134 2.63-6.3581 3.578-7.5133 0.64417-0.785 0.64292-0.77332-0.11275 1.0583-0.71628 1.7362-1.7427 6.1618-1.4881 6.4164 0.0634 0.06339 0.94277-1.6097 1.9542-3.7179 1.4491-3.0206 2.1435-4.1476 3.2755-5.3164 0.79013-0.81576 1.5734-1.4832 1.7405-1.4832 0.19439 0 0.0765 0.60417-0.32718 1.6766-0.78825 2.0942-1.2942 5.6692-1.0733 7.5838 0.26447 2.2923 0.72073 4.4982 0.96111 4.6468 0.32839 0.20296 1.7392-2.7554 2.329-4.8836 0.28438-1.0262 0.60298-2.8509 0.708-4.0547l0.19093-2.1888 0.36733 1.0574c0.20203 0.58156 0.49783 1.9314 0.65733 2.9996 0.18733 1.2546 0.3696 1.8166 0.51482 1.5875 0.30598-0.48277 0.29203-3.8469-0.0207-4.9866l-0.2536-0.9243 0.79682 0.92604c0.69297 0.80535 2.1677 3.5515 2.7706 5.1594 0.26989 0.71972 0.87184-2.3148 0.91848-4.6302l0.0346-1.7198 0.50037 1.0866c0.79372 1.7236 1.3192 4.0193 1.4904 6.5119 0.0872 1.2688 0.26021 2.244 0.38448 2.1672 0.12428-0.07681 0.22596-0.38349 0.22596-0.68152 0-0.93226 1.5098-3.7505 2.5277-4.7186l0.97384-0.92604-0.43231 0.85534c-0.23777 0.47043-0.5062 1.4229-0.59651 2.1167l-0.16421 1.2613 1.0954-1.6219c0.64918-0.96123 1.6618-2.0121 2.486-2.5797 1.5001-1.0332 2.1236-1.2436 1.4372-0.48508-0.40161 0.44377-1.2417 2.2037-1.2417 2.6012 0 0.09927 0.33649-0.28386 0.74775-0.8514 1.1944-1.6483 3.1855-2.9599 5.5958-3.6862 0.63312-0.19078 0.62647-0.16487-0.19893 0.77521-0.87036 0.99128-2.1759 3.3279-2.1759 3.8944 0 0.17219 0.33768-0.15127 0.75039-0.71881 1.6257-2.2356 4.6799-4.2753 7.1358-4.7658 0.86704-0.17314 0.86032-0.16022-0.76023 1.4603-1.71 1.71-1.8928 2.1941-0.57017 1.5102 0.4313-0.22303 1.6032-0.48658 2.6043-0.58566l1.8201-0.18015-1.029 1.0116c-0.9936 0.97672-2.0547 2.9127-2.4226 4.4202-0.14027 0.5747-0.0845 0.7276 0.26531 0.7276 0.77134 0 4.2157-1.7267 5.2422-2.6279 1.1182-0.98175 1.2706-0.67184 0.43584 0.88573l-0.55103 1.0281 0.88176-0.54453c1.3504-0.83394 2.7648-2.8674 3.4358-4.9395l0.60611-1.8716 0.33516 1.8271c0.18434 1.0049 0.3882 1.8801 0.45303 1.9449 0.24023 0.24024 0.77599-2.2512 0.92491-4.3012l0.15377-2.1167 0.5728 0.92604c0.98835 1.5978 1.7316 4.2441 1.8765 6.6807 0.1818 3.0578 0.67671 3.0185 1.4901-0.11838l0.36379-1.403 0.69115 1.5508c0.86583 1.9427 1.7526 4.7867 1.7526 5.6208 0 1.0296 0.42242 0.72978 1.0645-0.75548 0.76303-1.765 1.3096-3.7951 1.3136-4.8792 6e-3 -1.5061 0.47066-1.1821 0.76991 0.53628 0.16036 0.92084 0.2994 1.9026 0.30897 2.1818 0.01 0.27912 0.19051-0.14735 0.40208-0.94771 0.38864-1.4703 1.5555-3.4396 2.1552-3.6375 0.23875-0.07877 0.22108 0.14302-0.0661 0.83046-0.21554 0.51586-0.39189 1.5841-0.39189 2.3738 0 1.3644 0.86117 4.8037 1.3252 5.2923 0.29994 0.31584 0.80792-0.75491 2.1166-4.4616 1.4798-4.1912 2.188-5.7548 3.2806-7.2433 0.90862-1.2378 3.3317-3.2096 3.3317-2.7112 0 0.14597-0.13094 0.34634-0.29099 0.44525-0.16005 0.09891-0.75664 0.90028-1.3258 1.7808-1.2634 1.9548-2.297 5.1174-2.5075 7.6728l-0.1571 1.9072 0.77642-1.5875c0.92461-1.8905 2.3599-3.2545 4.6215-4.392l1.6615-0.83564-1.475 1.4232c-1.4642 1.4128-2.5139 3.3717-2.3203 4.33 0.0813 0.40219 0.17207 0.38708 0.84039-0.13976 0.72915-0.57479 4.2181-2.0783 4.8651-2.0965 0.19178-0.0054 0.0631 0.37349-0.31702 0.93366-0.62776 0.92506-1.1577 3.1529-0.82828 3.4823 0.092 0.09199 0.89066-0.17852 1.7748-0.60111 1.466-0.7007 2.7753-1.8597 3.5962-3.1834 0.26477-0.42695 0.31938-0.23321 0.34148 1.2116l0.0263 1.7198 0.7284-0.85064c0.40061-0.46786 0.9832-1.5394 1.2946-2.3812l0.56625-1.5306 0.0155 1.8521c9e-3 1.0186-0.20536 2.7748-0.47526 3.9026-0.26989 1.1278-0.41613 2.0505-0.32499 2.0505 0.49789 0 3.8601-3.4226 4.2728-4.3495l0.47838-1.0745 0.0187 1.1073c0.0103 0.60899-0.0995 1.418-0.24388 1.7979l-0.26257 0.69061 0.91744-0.69977c0.50459-0.38487 1.3594-0.79945 1.8996-0.92128l0.98219-0.22152-0.6861 0.57863c-0.37735 0.31825-0.83493 0.87336-1.0168 1.2336-0.33034 0.65418-0.32997 0.65442 0.30581 0.1987 1.0936-0.78387 2.9733-1.7079 4.0761-2.0037l1.0583-0.28388-0.7276 0.63812c-0.40019 0.35096-0.72761 0.6983-0.72761 0.77187 0 0.07356 0.7364-0.21452 1.6364-0.64017 2.6282-1.243 6.1717-1.7907 4.2532-0.6574-1.0922 0.64523-2.1201 1.983-1.5236 1.983 0.82977 0 3.689-1.1138 4.772-1.8589 1.2128-0.83442 3.562-3.3209 3.562-3.7701 0-0.15404 0.0735-0.20656 0.16336-0.11671 0.0899 0.08985-0.3318 1.092-0.93698 2.2269l-1.1004 2.0636 1.3441-1.4509c1.5702-1.695 2.7527-3.9198 3.1817-5.9865 0.16763-0.80746 0.36783-1.4051 0.44488-1.328 0.24287 0.24288-0.44246 5.1903-0.85612 6.1803-0.21752 0.5206-0.3496 0.99244-0.29351 1.0485 0.0561 0.05609 0.6531-0.511 1.3267-1.2602 1.5251-1.6962 2.6855-4.0889 3.1312-6.4562l0.34184-1.8155 0.15726 1.1565c0.25869 1.9024-0.56718 8.656-1.2883 10.535-0.0979 0.25513-0.0406 0.32228 0.16597 0.19459 0.39338-0.24312 1.8098-3.023 2.4389-4.7866l0.4719-1.3229 0.0642 4.7625 0.78765-1.5261c0.43321-0.83934 0.94908-2.149 1.1464-2.9104l0.35871-1.3843 0.1978 1.5493c0.20103 1.5745 0.0534 4.2638-0.29969 5.4595-0.13219 0.44761 0.55207-0.12577 2.1345-1.7886 2.6523-2.7871 5.4541-5.2486 4.4362-3.8973-2.1173 2.8108-3.0139 4.1592-3.3648 5.0604-0.38911 0.99945-0.38752 1.0085 0.0636 0.36361 0.85881-1.2278 2.9324-3.3038 3.8194-3.824l0.88119-0.51675-0.99815 1.1666c-0.82761 0.96732-1.78 3.1186-1.78 4.0207 0 0.12176 0.92273-0.70665 2.0505-1.8409 1.3893-1.3973 2.6477-2.3702 3.9026-3.0173 3.1022-1.5996 3.3901-1.5796 1.7859 0.12369-1.5545 1.6506-1.8179 2.1791-0.5576 1.1186 1.0824-0.91082 2.9106-1.8277 4.7067-2.3606 0.7904-0.23451 1.4889-0.42638 1.5521-0.42638 0.0633 0-0.31252 0.47328-0.83512 1.0517-0.93456 1.0344-2.5731 4.0012-2.9263 5.2983l-0.1801 0.66146 0.60843-0.69954c0.65609-0.75434 2.5115-2.0786 2.9123-2.0786 0.13512 0 0.0135 0.32742-0.2702 0.7276-0.54856 0.77369-1.3722 2.9809-1.3722 3.6772 0 0.22964 0.38695-0.16021 0.85989-0.86633 0.85704-1.2796 3.1746-3.0665 4.4318-3.4169l0.66145-0.18438-0.71732 0.76278c-0.39453 0.41953-0.90263 1.288-1.1291 1.9299l-0.41178 1.1671 1.6678-1.6015c1.3258-1.2731 4.4092-3.2538 5.0654-3.2538 0.0684 0-0.38678 0.82906-1.0115 1.8424-1.7183 2.787-2.1405 4.3545-2.1405 7.9472 0 1.6735 0.0977 3.648 0.21723 4.3879l0.21722 1.3452-146.14 0.05842zm0.34867-35.043c0.27775-1.3142 0.3392-2.8693 0.23264-5.887-0.13233-3.7477-0.34619-5.1849-1.378-9.2604-0.15756-0.62236-0.1348-0.61454 0.38498 0.13229 0.81876 1.1764 2.0396 4.7408 2.4478 7.1467l0.35861 2.1137 0.17152-2.1167c0.26422-3.2607-0.14791-6.1994-1.3547-9.66-1.105-3.1686-1.2601-4.3814-0.72144-5.6419 0.2924-0.68426 0.32029-0.59085 0.3188 1.0678-1e-3 1.5089 0.13047 2.0633 0.776 3.2634 2.4174 4.4942 2.3881 4.4074 2.539 7.52 0.0779 1.6068 0.21307 2.7429 0.30043 2.5246 0.52056-1.3007 1.6473-5.5927 1.7985-6.8509l0.1783-1.4834 0.23549 1.0583c0.38016 1.7085 0.20369 4.282-0.52129 7.6023-0.65743 3.0109-0.95929 5.9337-0.36253 3.5102 1.1696-4.7496 2.5068-7.9084 3.9219-9.2641l0.75478-0.72313-0.67188 1.6634c-0.46987 1.1633-0.70172 2.3067-0.77108 3.803-0.083 1.7897-0.0521 2.0047 0.18848 1.3148 0.15821-0.45363 0.54569-1.1484 0.86105-1.5439l0.57339-0.7191-0.10377 2.055c-0.11756 2.3281 0.28527 4.5355 1.0938 5.9937 0.91764 1.6551 1.0664 1.4176 1.5326-2.4474 0.19938-1.6528 0.23902-4.2578 0.11574-7.6068-0.10312-2.8013-0.13219-5.0932-0.0646-5.0932 0.24938 0 1.3302 5.7743 1.6335 8.7266l0.31301 3.0473 0.2035-3.7285c0.22958-4.2064 0.14481-5.0868-0.90202-9.3684-0.78038-3.1919-1.1322-4.9334-0.95826-4.7432 0.29489 0.32236 2.408 5.8694 2.714 7.1245 0.19515 0.80036 0.36855 2.3482 0.38533 3.4396 0.0523 3.3999 0.45153 3.6139 0.48055 0.25764 0.036-4.1604 0.4584-7.2592 1.2163-8.9227 0.65034-1.4274 1.0969-1.8502 0.83845-0.79375-0.0801 0.32742-0.28508 2.3432-0.45552 4.4795-0.23854 2.9901-0.23702 4.719 7e-3 7.5107 0.41042 4.7032 0.57939 5.1684 1.137 3.1302 0.71531-2.6146 1.0504-4.7493 0.94784-6.0386-0.0844-1.0607-0.0508-1.1632 0.24736-0.75577 0.58032 0.79303 1.0795 2.9911 1.2786 5.6308 0.1687 2.2357 0.21738 2.4112 0.44038 1.5875 0.13789-0.50932 0.18188-2.0571 0.0977-3.4396-0.10036-1.6492-0.0662-2.3641 0.0992-2.079 0.34914 0.60164 0.97116 3.4625 1.1907 5.4766 0.23107 2.1195 0.58519 1.8066 0.82048-0.72501 0.17736-1.9084 0.18838-1.9318 0.56826-1.2067 0.21307 0.40666 0.53811 1.7017 0.7223 2.8779l0.3349 2.1385 0.0356-4.8948c0.0403-5.5457 0.31232-7.9385 1.1144-9.803 0.75988-1.7664 1.3235-2.2296 1.0088-0.82909-0.43827 1.9506-0.71607 5.4743-0.52533 6.6633l0.191 1.1906 0.3328-0.79375c1.6458-3.9252 2.6536-8.6247 2.6886-12.536 0.0165-1.8468 0.0847-2.3383 0.24867-1.7914 0.43838 1.4624 0.55904 4.8363 0.27584 7.713-0.33545 3.4073-0.56902 6.965-0.38215 5.8208 0.63574-3.8926 1.8318-7.1448 3.0165-8.2021l0.59293-0.52917-0.15805 0.52917c-1.0406 3.4839-1.8809 9.4065-1.5392 10.848 0.20171 0.85096 0.25608 0.91844 0.27745 0.34439 0.0813-2.1841 2.0016-6.4337 3.5489-7.8535l0.68646-0.6299-0.50891 1.3393c-0.83485 2.1972-1.0815 4.5347-0.88721 8.407 0.0987 1.9669 0.26664 3.4814 0.37318 3.3656 0.27897-0.30315 1.5705-5.9001 1.6098-6.976 0.0308-0.84505 0.0477-0.82557 0.24497 0.28317 0.11652 0.65484 0.22545 2.0241 0.24206 3.0427l0.0302 1.8521 0.43655-0.79375c0.28963-0.52661 0.48665-1.7287 0.5854-3.5719l0.14885-2.7781 0.62349 1.5875c0.34293 0.87312 0.68634 2.3316 0.76315 3.2411 0.14688 1.7393 0.42292 2.1162 0.71054 0.9702 0.22307-0.88878 1.2309-2.4581 2.0875-3.2506l0.67745-0.62672-0.37807 1.4205c-0.5605 2.1059-0.4578 2.3705 0.34943 0.90039 0.74782-1.3619 2.3497-2.5793 3.8771-2.9465l0.77442-0.18618-0.58307 0.81883c-0.32068 0.45036-0.7698 1.2722-0.99805 1.8264l-0.41499 1.0075 0.8851-0.81791c1.4019-1.2955 2.3749-1.8771 4.1285-2.4679 2.0852-0.70244 2.4074-0.69405 1.7139 0.044633-0.55528 0.59149-1.7012 2.8813-1.5284 3.0541 0.16783 0.16783 2.6503-1.2459 3.4898-1.9874 0.4583-0.40481 1.2621-1.3109 1.7863-2.0135 0.73564-0.98613 0.99048-1.1798 1.1173-0.84936 0.23668 0.61679-0.37233 3.4527-1.1386 5.3019-1.1034 2.6627-1.395 3.5719-1.1458 3.5719 0.41825 0 2.1011-3.7624 2.6444-5.9123 0.28854-1.1417 0.73077-3.875 0.98274-6.0741 0.53681-4.685 0.81048-4.401 0.84227 0.87386 0.0222 3.6877-0.34181 6.9477-1.2825 11.485-0.29891 1.4417-0.49862 2.6661-0.44381 2.7209 0.19903 0.19903 1.525-2.9312 2.1386-5.0486 1.2982-4.4798 1.4685-9.7057 0.52188-16.013-0.20557-1.3698-0.36538-2.6199-0.35513-2.7781 0.0364-0.56193 0.8176 1.8766 1.6454 5.1363 0.79047 3.1128 0.84016 3.5913 0.84469 8.1358 3e-3 2.6557 0.0312 4.8286 0.0633 4.8286 0.0322 5.583e-5 0.32985-0.8631 0.66146-1.9181 0.55173-1.7553 0.60088-2.39 0.57878-7.4745-0.026-5.9759 0.0115-5.9996 1.0991-0.69551 0.6861 3.3461 0.91076 7.1001 0.55624 9.2945-0.16277 1.0074 0.12441 0.57822 1.8664-2.7893 1.9202-3.7121 3.1927-5.8221 3.3915-5.6233 0.0464 0.046442-0.20467 1.1976-0.55803 2.558s-0.63996 2.8474-0.63689 3.3042c5e-3 0.67532 0.12107 0.50348 0.62321-0.91897 0.77778-2.2033 2.096-4.1912 4.0157-6.0556 1.2381-1.2024 1.4297-1.3173 1.1028-0.66146-0.45366 0.91039-1.781 5.0288-1.7738 5.5038 3e-3 0.17439 0.55708-0.63543 1.2321-1.7996 1.5149-2.6126 3.3004-4.9248 4.5231-5.8574 0.50918-0.38838 0.87592-0.59857 0.81497-0.4671-0.0609 0.13147-0.60738 1.2337-1.2143 2.4493-1.5828 3.1705-1.956 5.1644-1.8645 9.9606l0.0757 3.9687 0.72937-1.3838c0.99633-1.8902 1.7985-3.9138 2.1784-5.4954l0.31777-1.3229 0.21244 3.175 0.21245 3.175 0.38063-1.3229c0.20935-0.7276 0.40004-2.5429 0.42376-4.0339 0.0237-1.4911 0.0694-2.7115 0.10164-2.712 0.0322-5.292e-4 0.32329 0.86225 0.6469 1.9173 0.63552 2.072 0.80757 5.6671 0.4018 8.3957-0.29491 1.9832 0.0558 1.5043 0.51833-0.70789 0.41668-1.9926 1.0681-3.4005 2.2834-4.9351 0.44324-0.55967 1.2008-1.7503 1.6836-2.6458l0.87768-1.6282 6e-3 0.99053c4e-3 0.61424-0.44232 1.9881-1.1741 3.6164-1.6486 3.668-1.7994 4.5721-0.40899 2.4519 2.207-3.3655 3.6469-6.8193 4.0459-9.7046 0.0604-0.43656 0.12745 0.15875 0.14906 1.3229 0.0216 1.1642-0.13739 3.1205-0.35332 4.3475-0.21592 1.227-0.3522 2.2712-0.30283 2.3206 0.33517 0.33517 3.5766-9.2407 3.6329-10.733 0.0145-0.3839 0.13149-0.99566 0.25995-1.3595 0.46138-1.3066 7e-3 6.4729-0.55348 9.4768-0.30731 1.647-0.51665 3.1208-0.4652 3.2751 0.21172 0.63517 1.8375-3.6111 2.3855-6.2304 0.32416-1.5495 0.69674-2.8173 0.82794-2.8173 0.40991 0-0.0176 5.8243-0.60964 8.3059-0.30873 1.294-0.5159 2.3982-0.46039 2.4537 0.0555 0.055512 0.37132-0.64606 0.70179-1.5591 1.1902-3.2881 2.2754-4.8933 4.2667-6.3112l0.73261-0.52167-0.65093 1.6019c-0.79536 1.9574-1.3323 4.4667-1.5569 7.2752l-0.16922 2.1167 0.65474-1.5439c0.9656-2.2769 2.8187-4.815 2.8083-3.8464-2e-3 0.19972-0.18813 1.137-0.41327 2.0829-0.62703 2.6343-0.85402 3.9696-0.67314 3.96 0.19485-0.010331 2.4692-5.2118 3.3512-7.6642l0.6185-1.7198 0.0139 1.1906c8e-3 0.65484-0.34257 2.4264-0.77823 3.9368-0.43566 1.5104-0.78815 2.9987-0.78331 3.3073l9e-3 0.56115 0.47516-0.56879c0.26133-0.31284 0.72383-1.3844 1.0278-2.3812 0.30394-0.99685 0.92243-3.0308 1.3744-4.5199 0.65999-2.1744 1.0209-2.9167 1.8329-3.7703 0.55607-0.58457 1.1282-1.0629 1.2715-1.0629s-0.0742 0.68461-0.48323 1.5214c-0.92292 1.888-1.463 3.9672-1.6815 6.4728l-0.1681 1.9278 0.54525-0.66146c1.2993-1.5763 2.8949-7.1917 2.9591-10.414 0.0267-1.3393 0.0308-1.3459 0.27106-0.43379 0.28719 1.09 0.0805 5.7691-0.44341 10.038-0.2043 1.6648-0.32827 3.0701-0.27548 3.1229 0.19744 0.19744 1.831-4.6827 2.6626-7.9543 0.50885-2.0018 0.93097-3.2129 1.03-2.9549 0.31357 0.81716 0.16928 5.6072-0.23952 7.9515-0.22399 1.2844-0.70924 3.0562-1.0783 3.9373-0.36909 0.88106-0.74226 1.8401-0.82926 2.1311-0.14497 0.48499-0.11736 0.49603 0.33077 0.13229 0.26893-0.21828 1.3711-2.2138 2.4492-4.4346 1.4109-2.9062 2.3346-4.4473 3.296-5.4993 0.73468-0.80385 1.386-1.4113 1.4474-1.35 0.0614 0.061373-0.30175 1.2991-0.80694 2.7505-0.50519 1.4514-0.98905 3.221-1.0752 3.9325l-0.15672 1.2936 0.35651-1.0583c0.98057-2.9109 3.0968-5.6968 5.7343-7.5488l0.92604-0.65024-0.61431 0.92451c-0.94521 1.4225-2.1326 3.9966-2.3182 5.0255l-0.16702 0.92604 0.66535-0.9421c0.84252-1.193 2.7649-2.7217 2.4543-1.9517-0.77005 1.9088-1.1876 3.4898-1.4577 5.5197-0.1705 1.2812-0.26006 2.3793-0.19904 2.4403 0.061 0.061018 0.55376-1.173 1.095-2.7422 1.2021-3.4853 2.6967-6.4067 4.1332-8.0787 1.175-1.3676 1.9365-1.724 1.0632-0.49758-0.68168 0.95733-1.02 1.8109-1.639 4.1356-0.66644 2.5027-0.60683 3.0013 0.12385 1.0359 0.51507-1.3854 1.6022-3.2848 1.88-3.2848 0.0489 0-0.13783 0.59659-0.41489 1.3258-0.27706 0.72916-0.49301 1.5328-0.47988 1.7859 0.0131 0.2531 0.13171 0.088203 0.26352-0.36644 0.13182-0.45464 0.42622-0.98145 0.65424-1.1707 0.36631-0.30402 0.38953-0.254 0.19949 0.42975-0.27603 0.99311-0.27669 7.2244-7.9e-4 7.9083 0.36548 0.9061 4.2296-11.216 5.0995-15.998l0.36101-1.9844-0.11396 3.5719c-0.0791 2.4795-0.31786 4.4975-0.78069 6.5987-0.3667 1.6648-0.62055 3.073-0.56412 3.1294 0.0564 0.056436 0.41468-0.35313 0.7961-0.91015 0.80375-1.1738 1.572-3.6189 2.0153-6.4141 0.25121-1.5839 0.36393-1.8675 0.58517-1.4721 0.33002 0.58971 0.40306 3.5519 0.12383 5.0214-0.19865 1.0454-0.19624 1.0497 0.19719 0.34923 0.77852-1.386 1.1863-3.9957 1.2122-7.7576 0.0245-3.5566 0.0416-3.6673 0.42835-2.7786 1.1882 2.73 1.7254 9.6337 1.0757 13.825-0.19737 1.2733-0.31626 2.3151-0.2642 2.3151 0.0521 0 0.37756-0.62508 0.72334-1.3891 0.82798-1.8294 1.4568-5.0004 1.4667-7.3972 7e-3 -1.5957 0.0613-1.8379 0.31567-1.4002 0.19851 0.34146 0.35165 2.6878 0.43173 6.6146l0.1241 6.0854 0.58439-3.3346c0.32141-1.834 0.79219-3.9771 1.0462-4.7625 0.44819-1.3859 1.9498-4.0676 2.16-3.8575 0.0573 0.057258-0.0897 0.86546-0.32658 1.796-0.31244 1.2274-0.46765 3.417-0.56537 7.9757l-0.13469 6.2839h-147.22l0.37746-1.7859zm129.35-5.6885c-0.0734-0.1819-0.13346-0.033073-0.13346 0.33073s0.0601 0.51263 0.13346 0.33073c0.0734-0.1819 0.0734-0.47956 0-0.66146zm0.27009-2.6293c-0.0845-0.21107-0.14715-0.14837-0.15985 0.15985-0.0115 0.27891 0.0511 0.43518 0.13897 0.34727 0.0879-0.087919 0.0973-0.31612 0.0209-0.50712z" clip-path="url(#clipPath25322)" fill="#008000"/>
   <path transform="matrix(-1 0 0 1 150.05 -49.945)" d="m106.53 78.129c-0.0795-0.20732-0.11316-4.1859-0.0747-8.8413 0.0672-8.1373 0.0874-8.4337 0.52238-7.6706l0.45243 0.79375 0.0106-1.2539c6e-3 -0.68966-0.22747-1.8803-0.51844-2.6458-0.55014-1.4474-0.70153-2.7202-0.29358-2.4681 0.34125 0.2109 2.301 4.3182 2.6912 5.6402 0.18253 0.61846 0.43209 1.1245 0.55457 1.1245 0.58507 0-0.0963-3.3056-1.1044-5.3578-0.41103-0.83674-0.64736-1.5214-0.52518-1.5214 0.67745 0 3.2428 2.8514 4.1225 4.5822l0.96579 1.9001-0.13381-1.6107c-0.0736-0.88591-0.33422-1.9983-0.57917-2.472-0.65363-1.264-0.27912-1.317 0.94323-0.13341 1.1201 1.0846 1.6596 1.9165 2.3784 3.6675l0.42643 1.0388 0.1915-1.7003c0.17193-1.5265 1.4274-5.9371 1.6318-5.7327 0.0452 0.04524-0.0451 1.2943-0.20077 2.7757-0.15565 1.4814-0.1985 3.1439-0.0952 3.6944l0.18778 1.0009 0.42595-0.79332c0.23427-0.43633 0.62288-1.5672 0.86359-2.5131l0.43764-1.7198 0.18997 2.1167c0.25009 2.7866 0.25344 2.7937 0.81042 1.7203 0.27679-0.53341 0.55189-1.8225 0.64934-3.0427l0.16909-2.1172 0.32194 1.4552c0.17708 0.80036 0.41542 2.5268 0.52966 3.8365l0.2077 2.3812 0.48189-2.5768c0.36408-1.9469 0.45631-3.452 0.37727-6.1567-0.0575-1.9689-0.0179-3.3454 0.0881-3.0589 0.40452 1.0935 1.0134 4.5475 1.0134 5.7488 0 0.93212 0.0768 1.1779 0.29875 0.95595 0.19537-0.19538 0.25756-1.0834 0.17972-2.5665-0.0655-1.2472-0.0731-2.2677-0.017-2.2677 0.24554 0 2.2074 4.5571 2.4912 5.7869 0.32159 1.3932 0.74695 1.8209 0.7573 0.76153 0.0156-1.5978 2.2682-4.6092 4.192-5.604l0.81516-0.42154-0.50874 0.86303c-0.2798 0.47467-0.59013 1.373-0.6896 1.9963l-0.18086 1.1332 0.9348-0.9348c1.2015-1.2015 1.5906-1.1913 0.97028 0.02545-0.26927 0.52814-0.56697 1.4764-0.66158 2.1073-0.18168 1.2115 0.29951 3.8116 0.7054 3.8116 0.13101 0 0.2382-0.11471 0.2382-0.2549 0-0.60114 3.2669-3.6891 4.7251-4.4663 2.003-1.0676 2.4704-1.0595 1.444 0.02487-0.75617 0.79889-1.4066 1.8039-1.4066 2.1733 0 0.08668 0.32742-0.08149 0.7276-0.37373 0.44638-0.32597 1.3412-0.58935 2.3151-0.68144l1.5875-0.15011-1.2233 0.66156c-0.93349 0.50485-1.3284 0.92441-1.6672 1.7712-0.24419 0.61029-0.34467 1.2089-0.22328 1.3303 0.33816 0.33817 3.2161-1.1346 4.9045-2.5098l1.5087-1.2289-0.52525 1.3326c-0.28889 0.73291-0.52525 1.3972-0.52525 1.4762 0 0.07902 0.69925-0.55559 1.5539-1.4102 1.448-1.448 3.7841-2.9329 5.3253-3.3849 0.48914-0.14346 0.34578 0.0497-0.55031 0.74149-1.0555 0.81486-2.3378 2.3029-1.9844 2.3029 0.0678 0 0.51702-0.22908 0.99828-0.50906 0.96947-0.56401 3.4146-1.0784 5.1258-1.0784h1.1109l-1.0272 1.0272c-1.197 1.197-1.3733 1.8904-0.27407 1.0777 0.41422-0.30625 1.2774-0.6183 1.9182-0.69345l1.1651-0.13664-0.87582 0.55904c-0.78155 0.49887-1.6377 1.8942-1.6377 2.6691 0 0.1576 0.38695-0.0044 0.8599-0.35994 0.47294-0.35556 1.9421-1.1866 3.2648-1.8468s2.7812-1.517 3.2411-1.904c0.98987-0.83292 0.99513-0.81842 0.28501 0.78692-0.3032 0.68544-0.49799 1.2995-0.43287 1.3646 0.2003 0.2003 3.0466-3.0183 3.7881-4.2836 0.38495-0.65687 0.73914-1.1551 0.78709-1.1071 0.048 0.04795-0.27157 1.3159-0.71004 2.8177-0.43846 1.5018-0.73878 2.789-0.66737 2.8604 0.0714 0.07141 0.69159-0.71494 1.3782-1.7475 0.68658-1.0325 1.2613-1.8773 1.2771-1.8773 0.0158 0-0.044 1.0418-0.133 2.3151s-0.13106 2.3531-0.0935 2.3995c0.0376 0.0464 1.0398-1.7991 2.2272-4.101 1.1874-2.302 2.084-3.9473 1.9924-3.6562-0.30966 0.98454-0.91673 3.7016-0.91628 4.101 2.4e-4 0.21828 0.26909-0.07937 0.59743-0.66146 0.61083-1.0828 2.3989-2.2684 4.0245-2.6683l0.79375-0.19527-0.82829 0.7011c-1.0637 0.90034-1.6852 2.223-1.6852 3.5861 0 1.1414 0.69474 3.2065 1.0787 3.2065 0.37776 0 2.3708-2.8395 4.5432-6.4728 1.128-1.8866 2.0498-3.3748 2.0485-3.3073-1e-3 0.06755-0.40175 1.4623-0.88973 3.0994-0.48798 1.6371-0.86062 2.9766-0.8281 2.9766 0.0325 0 0.57527-0.79807 1.2061-1.7735 1.1851-1.8325 4.4579-5.4612 5.3619-5.945 0.43017-0.23022 0.40533-0.13077-0.15313 0.61299-1.4432 1.9221-2.8466 5.5589-2.84 7.3595 2e-3 0.55789 0.14208 0.42858 0.82442-0.76136 0.77363-1.3492 3.2282-3.9906 3.7083-3.9906 0.1206 0-0.12674 0.68461-0.54963 1.5214-0.4229 0.83674-0.9445 2.2357-1.1591 3.1089-0.4863 1.9784-0.78127 4.6328-0.51365 4.6223 0.11042-0.0043 0.59932-0.70416 1.0865-1.5552 0.48714-0.85102 1.602-2.2465 2.4775-3.101l1.5918-1.5537-0.71392 1.1547c-0.39266 0.63509-0.88632 1.6433-1.097 2.2405l-0.38309 1.0858 0.92633-1.0822c0.80884-0.94495 4.648-3.2836 5.349-3.2585 0.1233 0.0044 0.0333 0.11964-0.20007 0.25603-0.55881 0.32664-2.7319 3.1502-2.5582 3.324 0.31564 0.31563 5.1003-2.7336 6.1893-3.9444l1.1534-1.2824-0.40446 1.1501c-0.22246 0.63255-0.69918 1.5966-1.0594 2.1423-0.60129 0.91094-0.61449 0.99219-0.16113 0.99219 1.0047 0 2.2838-1.1748 3.1687-2.9104l0.87684-1.7198-0.17436 1.7198c-0.15471 1.5259-0.35229 2.5727-0.82401 4.3656-0.21986 0.83566 1.7065-1.9488 2.5626-3.7042 0.42584-0.87312 0.94701-2.2423 1.1582-3.0427l0.38392-1.4552 8e-3 1.4552c5e-3 0.80036-0.16391 2.4077-0.37425 3.5719-0.21034 1.1642-0.38478 2.1971-0.38765 2.2955-3e-3 0.09834 0.66584-0.52472 1.486-1.3846 1.348-1.4133 3.6613-3.1598 4.1851-3.1598 0.11333 0-0.20199 0.45166-0.70071 1.0037-0.89652 0.99234-1.8498 2.7409-2.1935 4.0234-0.14058 0.52454-0.0582 0.46978 0.39782-0.26458 0.89598-1.4427 2.625-3.1443 4.3355-4.2666 1.9062-1.2507 2.2311-1.2961 1.1819-0.1652-0.43877 0.47294-1.0547 1.2171-1.3687 1.6536l-0.5709 0.79375 0.65598-0.46933c2.9004-2.0751 5.3567-3.3318 7.3409-3.7556l0.86409-0.18458-1.2968 1.3314c-1.2316 1.2644-2.5614 3.8265-3.0956 5.9641-0.18572 0.74322-0.12141 0.71558 1.8974-0.81524 1.1493-0.8715 2.673-1.924 3.3859-2.3389l1.2962-0.75436-0.72602 1.2389c-0.39932 0.68138-0.61008 1.2389-0.46836 1.2389s1.0646-0.85541 2.0509-1.9009l1.7932-1.9009-0.1476 1.041c-0.0812 0.57256-0.23353 1.2791-0.33853 1.5702-0.16922 0.46902-0.14115 0.46256 0.24694-0.05675 0.629-0.84171 1.2134-2.6325 1.2228-3.7468 0.0169-2.0151 0.54725-0.03318 0.83838 3.1331 0.16011 1.7415 0.38326 3.1093 0.49587 3.0397 0.11261-0.0696 0.42221-0.75022 0.68799-1.5125 0.36741-1.0537 0.47763-2.1178 0.45981-4.439-0.0129-1.6792-0.098-3.4056-0.18904-3.8365-0.24954-1.1806 1.3356 2.126 1.8424 3.8435 0.39889 1.3515 0.44582 1.4064 0.67871 0.79375 0.13761-0.362 0.18156-1.313 0.0977-2.1134-0.14294-1.3636-0.12605-1.4219 0.26819-0.92604 0.63171 0.79451 1.4181 2.7155 1.8242 4.4564 0.19895 0.85281 0.41917 1.608 0.48938 1.6782 0.1276 0.12761 0.38024-1.7574 0.50305-3.7534l0.0651-1.0583 0.55465 1.0583c0.30505 0.58208 0.97711 1.8466 1.4935 2.81l0.93883 1.7517 0.18258-1.9483c0.10041-1.0716 0.28132-2.2766 0.40201-2.6777 0.18664-0.62038 0.22283-0.5301 0.24217 0.6041 0.0125 0.73341 0.20525 2.0342 0.42832 2.8906 0.40743 1.5642 1.6344 4.1103 1.9807 4.1103 0.10203 0 0.25141-0.6385 0.33195-1.4189 0.22867-2.2155 1.4736-4.3433 3.3922-5.7977 1.28-0.97033 1.4291-0.90818 0.65053 0.27126-0.69631 1.0549-1.4699 3.0241-1.4683 3.7374 5.3e-4 0.26478 0.18681 0.12505 0.48505-0.364 0.93527-1.5336 2.8326-2.9147 5.1065-3.717l1.0344-0.36497-0.63803 0.85034c-0.73731 0.98264-2.0202 3.4683-2.0202 3.9143 0 0.1669 0.56555-0.29224 1.2568-1.0203 1.1446-1.2056 2.9614-2.3451 4.4979-2.821 0.52947-0.16399 0.59531-0.09318 0.59531 0.64033 0 0.4536-0.16839 1.1503-0.37419 1.5483-0.20581 0.39799-0.44947 1.1957-0.54147 1.7728l-0.16727 1.0492 0.47532-0.79375c0.46501-0.77655 0.47683-0.61368 0.54529 7.5148 0.0385 4.5697 0.028 8.3505-0.0233 8.4018-0.0513 0.05131-33.446 0.17201-74.211 0.26822-64.009 0.15108-74.137 0.12353-74.262-0.20199zm0.77562-34.188c0.53317-1.7901 1.2215-5.7089 1.493-8.4999 0.31908-3.2803 0.17924-9.2328-0.25993-11.065-0.31777-1.3254-0.12208-1.2531 0.49309 0.18201 0.50768 1.1844 1.1809 4.1909 1.4848 6.631l0.16476 1.3229 0.98871-2.8054c1.1325-3.2134 2.63-6.3581 3.578-7.5133 0.64417-0.785 0.64292-0.77332-0.11275 1.0583-0.71628 1.7362-1.7427 6.1618-1.4881 6.4164 0.0634 0.06339 0.94277-1.6097 1.9542-3.7179 1.4491-3.0206 2.1435-4.1476 3.2755-5.3164 0.79013-0.81576 1.5734-1.4832 1.7405-1.4832 0.19439 0 0.0765 0.60417-0.32718 1.6766-0.78825 2.0942-1.2942 5.6692-1.0733 7.5838 0.26447 2.2923 0.72073 4.4982 0.96111 4.6468 0.32839 0.20296 1.7392-2.7554 2.329-4.8836 0.28438-1.0262 0.60298-2.8509 0.708-4.0547l0.19093-2.1888 0.36733 1.0574c0.20203 0.58156 0.49783 1.9314 0.65733 2.9996 0.18733 1.2546 0.3696 1.8166 0.51482 1.5875 0.30598-0.48277 0.29203-3.8469-0.0207-4.9866l-0.2536-0.9243 0.79682 0.92604c0.69297 0.80535 2.1677 3.5515 2.7706 5.1594 0.26989 0.71972 0.87184-2.3148 0.91848-4.6302l0.0346-1.7198 0.50037 1.0866c0.79372 1.7236 1.3192 4.0193 1.4904 6.5119 0.0872 1.2688 0.26021 2.244 0.38448 2.1672 0.12428-0.07681 0.22596-0.38349 0.22596-0.68152 0-0.93226 1.5098-3.7505 2.5277-4.7186l0.97384-0.92604-0.43231 0.85534c-0.23777 0.47043-0.5062 1.4229-0.59651 2.1167l-0.16421 1.2613 1.0954-1.6219c0.64918-0.96123 1.6618-2.0121 2.486-2.5797 1.5001-1.0332 2.1236-1.2436 1.4372-0.48508-0.40161 0.44377-1.2417 2.2037-1.2417 2.6012 0 0.09927 0.33649-0.28386 0.74775-0.8514 1.1944-1.6483 3.1855-2.9599 5.5958-3.6862 0.63312-0.19078 0.62647-0.16487-0.19893 0.77521-0.87036 0.99128-2.1759 3.3279-2.1759 3.8944 0 0.17219 0.33768-0.15127 0.75039-0.71881 1.6257-2.2356 4.6799-4.2753 7.1358-4.7658 0.86704-0.17314 0.86032-0.16022-0.76023 1.4603-1.71 1.71-1.8928 2.1941-0.57017 1.5102 0.4313-0.22303 1.6032-0.48658 2.6043-0.58566l1.8201-0.18015-1.029 1.0116c-0.9936 0.97672-2.0547 2.9127-2.4226 4.4202-0.14027 0.5747-0.0845 0.7276 0.26531 0.7276 0.77134 0 4.2157-1.7267 5.2422-2.6279 1.1182-0.98175 1.2706-0.67184 0.43584 0.88573l-0.55103 1.0281 0.88176-0.54453c1.3504-0.83394 2.7648-2.8674 3.4358-4.9395l0.60611-1.8716 0.33516 1.8271c0.18434 1.0049 0.3882 1.8801 0.45303 1.9449 0.24023 0.24024 0.77599-2.2512 0.92491-4.3012l0.15377-2.1167 0.5728 0.92604c0.98835 1.5978 1.7316 4.2441 1.8765 6.6807 0.1818 3.0578 0.67671 3.0185 1.4901-0.11838l0.36379-1.403 0.69115 1.5508c0.86583 1.9427 1.7526 4.7867 1.7526 5.6208 0 1.0296 0.42242 0.72978 1.0645-0.75548 0.76303-1.765 1.3096-3.7951 1.3136-4.8792 6e-3 -1.5061 0.47066-1.1821 0.76991 0.53628 0.16036 0.92084 0.2994 1.9026 0.30897 2.1818 0.01 0.27912 0.19051-0.14735 0.40208-0.94771 0.38864-1.4703 1.5555-3.4396 2.1552-3.6375 0.23875-0.07877 0.22108 0.14302-0.0661 0.83046-0.21554 0.51586-0.39189 1.5841-0.39189 2.3738 0 1.3644 0.86117 4.8037 1.3252 5.2923 0.29994 0.31584 0.80792-0.75491 2.1166-4.4616 1.4798-4.1912 2.188-5.7548 3.2806-7.2433 0.90862-1.2378 3.3317-3.2096 3.3317-2.7112 0 0.14597-0.13094 0.34634-0.29099 0.44525-0.16005 0.09891-0.75664 0.90028-1.3258 1.7808-1.2634 1.9548-2.297 5.1174-2.5075 7.6728l-0.1571 1.9072 0.77642-1.5875c0.92461-1.8905 2.3599-3.2545 4.6215-4.392l1.6615-0.83564-1.475 1.4232c-1.4642 1.4128-2.5139 3.3717-2.3203 4.33 0.0813 0.40219 0.17207 0.38708 0.84039-0.13976 0.72915-0.57479 4.2181-2.0783 4.8651-2.0965 0.19178-0.0054 0.0631 0.37349-0.31702 0.93366-0.62776 0.92506-1.1577 3.1529-0.82828 3.4823 0.092 0.09199 0.89066-0.17852 1.7748-0.60111 1.466-0.7007 2.7753-1.8597 3.5962-3.1834 0.26477-0.42695 0.31938-0.23321 0.34148 1.2116l0.0263 1.7198 0.7284-0.85064c0.40061-0.46786 0.9832-1.5394 1.2946-2.3812l0.56625-1.5306 0.0155 1.8521c9e-3 1.0186-0.20536 2.7748-0.47526 3.9026-0.26989 1.1278-0.41613 2.0505-0.32499 2.0505 0.49789 0 3.8601-3.4226 4.2728-4.3495l0.47838-1.0745 0.0187 1.1073c0.0103 0.60899-0.0995 1.418-0.24388 1.7979l-0.26257 0.69061 0.91744-0.69977c0.50459-0.38487 1.3594-0.79945 1.8996-0.92128l0.98219-0.22152-0.6861 0.57863c-0.37735 0.31825-0.83493 0.87336-1.0168 1.2336-0.33034 0.65418-0.32997 0.65442 0.30581 0.1987 1.0936-0.78387 2.9733-1.7079 4.0761-2.0037l1.0583-0.28388-0.7276 0.63812c-0.40019 0.35096-0.72761 0.6983-0.72761 0.77187 0 0.07356 0.7364-0.21452 1.6364-0.64017 2.6282-1.243 6.1717-1.7907 4.2532-0.6574-1.0922 0.64523-2.1201 1.983-1.5236 1.983 0.82977 0 3.689-1.1138 4.772-1.8589 1.2128-0.83442 3.562-3.3209 3.562-3.7701 0-0.15404 0.0735-0.20656 0.16336-0.11671 0.0899 0.08985-0.3318 1.092-0.93698 2.2269l-1.1004 2.0636 1.3441-1.4509c1.5702-1.695 2.7527-3.9198 3.1817-5.9865 0.16763-0.80746 0.36783-1.4051 0.44488-1.328 0.24287 0.24288-0.44246 5.1903-0.85612 6.1803-0.21752 0.5206-0.3496 0.99244-0.29351 1.0485 0.0561 0.05609 0.6531-0.511 1.3267-1.2602 1.5251-1.6962 2.6855-4.0889 3.1312-6.4562l0.34184-1.8155 0.15726 1.1565c0.25869 1.9024-0.56718 8.656-1.2883 10.535-0.0979 0.25513-0.0406 0.32228 0.16597 0.19459 0.39338-0.24312 1.8098-3.023 2.4389-4.7866l0.4719-1.3229 0.0642 4.7625 0.78765-1.5261c0.43321-0.83934 0.94908-2.149 1.1464-2.9104l0.35871-1.3843 0.1978 1.5493c0.20103 1.5745 0.0534 4.2638-0.29969 5.4595-0.13219 0.44761 0.55207-0.12577 2.1345-1.7886 2.6523-2.7871 5.4541-5.2486 4.4362-3.8973-2.1173 2.8108-3.0139 4.1592-3.3648 5.0604-0.38911 0.99945-0.38752 1.0085 0.0636 0.36361 0.85881-1.2278 2.9324-3.3038 3.8194-3.824l0.88119-0.51675-0.99815 1.1666c-0.82761 0.96732-1.78 3.1186-1.78 4.0207 0 0.12176 0.92273-0.70665 2.0505-1.8409 1.3893-1.3973 2.6477-2.3702 3.9026-3.0173 3.1022-1.5996 3.3901-1.5796 1.7859 0.12369-1.5545 1.6506-1.8179 2.1791-0.5576 1.1186 1.0824-0.91082 2.9106-1.8277 4.7067-2.3606 0.7904-0.23451 1.4889-0.42638 1.5521-0.42638 0.0633 0-0.31252 0.47328-0.83512 1.0517-0.93456 1.0344-2.5731 4.0012-2.9263 5.2983l-0.1801 0.66146 0.60843-0.69954c0.65609-0.75434 2.5115-2.0786 2.9123-2.0786 0.13512 0 0.0135 0.32742-0.2702 0.7276-0.54856 0.77369-1.3722 2.9809-1.3722 3.6772 0 0.22964 0.38695-0.16021 0.85989-0.86633 0.85704-1.2796 3.1746-3.0665 4.4318-3.4169l0.66145-0.18438-0.71732 0.76278c-0.39453 0.41953-0.90263 1.288-1.1291 1.9299l-0.41178 1.1671 1.6678-1.6015c1.3258-1.2731 4.4092-3.2538 5.0654-3.2538 0.0684 0-0.38678 0.82906-1.0115 1.8424-1.7183 2.787-2.1405 4.3545-2.1405 7.9472 0 1.6735 0.0977 3.648 0.21723 4.3879l0.21722 1.3452-146.14 0.05842zm0.34867-35.043c0.27775-1.3142 0.3392-2.8693 0.23264-5.887-0.13233-3.7477-0.34619-5.1849-1.378-9.2604-0.15756-0.62236-0.1348-0.61454 0.38498 0.13229 0.81876 1.1764 2.0396 4.7408 2.4478 7.1467l0.35861 2.1137 0.17152-2.1167c0.26422-3.2607-0.14791-6.1994-1.3547-9.66-1.105-3.1686-1.2601-4.3814-0.72144-5.6419 0.2924-0.68426 0.32029-0.59085 0.3188 1.0678-1e-3 1.5089 0.13047 2.0633 0.776 3.2634 2.4174 4.4942 2.3881 4.4074 2.539 7.52 0.0779 1.6068 0.21307 2.7429 0.30043 2.5246 0.52056-1.3007 1.6473-5.5927 1.7985-6.8509l0.1783-1.4834 0.23549 1.0583c0.38016 1.7085 0.20369 4.282-0.52129 7.6023-0.65743 3.0109-0.95929 5.9337-0.36253 3.5102 1.1696-4.7496 2.5068-7.9084 3.9219-9.2641l0.75478-0.72313-0.67188 1.6634c-0.46987 1.1633-0.70172 2.3067-0.77108 3.803-0.083 1.7897-0.0521 2.0047 0.18848 1.3148 0.15821-0.45363 0.54569-1.1484 0.86105-1.5439l0.57339-0.7191-0.10377 2.055c-0.11756 2.3281 0.28527 4.5355 1.0938 5.9937 0.91764 1.6551 1.0664 1.4176 1.5326-2.4474 0.19938-1.6528 0.23902-4.2578 0.11574-7.6068-0.10312-2.8013-0.13219-5.0932-0.0646-5.0932 0.24938 0 1.3302 5.7743 1.6335 8.7266l0.31301 3.0473 0.2035-3.7285c0.22958-4.2064 0.14481-5.0868-0.90202-9.3684-0.78038-3.1919-1.1322-4.9334-0.95826-4.7432 0.29489 0.32236 2.408 5.8694 2.714 7.1245 0.19515 0.80036 0.36855 2.3482 0.38533 3.4396 0.0523 3.3999 0.45153 3.6139 0.48055 0.25764 0.036-4.1604 0.4584-7.2592 1.2163-8.9227 0.65034-1.4274 1.0969-1.8502 0.83845-0.79375-0.0801 0.32742-0.28508 2.3432-0.45552 4.4795-0.23854 2.9901-0.23702 4.719 7e-3 7.5107 0.41042 4.7032 0.57939 5.1684 1.137 3.1302 0.71531-2.6146 1.0504-4.7493 0.94784-6.0386-0.0844-1.0607-0.0508-1.1632 0.24736-0.75577 0.58032 0.79303 1.0795 2.9911 1.2786 5.6308 0.1687 2.2357 0.21738 2.4112 0.44038 1.5875 0.13789-0.50932 0.18188-2.0571 0.0977-3.4396-0.10036-1.6492-0.0662-2.3641 0.0992-2.079 0.34914 0.60164 0.97116 3.4625 1.1907 5.4766 0.23107 2.1195 0.58519 1.8066 0.82048-0.72501 0.17736-1.9084 0.18838-1.9318 0.56826-1.2067 0.21307 0.40666 0.53811 1.7017 0.7223 2.8779l0.3349 2.1385 0.0356-4.8948c0.0403-5.5457 0.31232-7.9385 1.1144-9.803 0.75988-1.7664 1.3235-2.2296 1.0088-0.82909-0.43827 1.9506-0.71607 5.4743-0.52533 6.6633l0.191 1.1906 0.3328-0.79375c1.6458-3.9252 2.6536-8.6247 2.6886-12.536 0.0165-1.8468 0.0847-2.3383 0.24867-1.7914 0.43838 1.4624 0.55904 4.8363 0.27584 7.713-0.33545 3.4073-0.56902 6.965-0.38215 5.8208 0.63574-3.8926 1.8318-7.1448 3.0165-8.2021l0.59293-0.52917-0.15805 0.52917c-1.0406 3.4839-1.8809 9.4065-1.5392 10.848 0.20171 0.85096 0.25608 0.91844 0.27745 0.34439 0.0813-2.1841 2.0016-6.4337 3.5489-7.8535l0.68646-0.6299-0.50891 1.3393c-0.83485 2.1972-1.0815 4.5347-0.88721 8.407 0.0987 1.9669 0.26664 3.4814 0.37318 3.3656 0.27897-0.30315 1.5705-5.9001 1.6098-6.976 0.0308-0.84505 0.0477-0.82557 0.24497 0.28317 0.11652 0.65484 0.22545 2.0241 0.24206 3.0427l0.0302 1.8521 0.43655-0.79375c0.28963-0.52661 0.48665-1.7287 0.5854-3.5719l0.14885-2.7781 0.62349 1.5875c0.34293 0.87312 0.68634 2.3316 0.76315 3.2411 0.14688 1.7393 0.42292 2.1162 0.71054 0.9702 0.22307-0.88878 1.2309-2.4581 2.0875-3.2506l0.67745-0.62672-0.37807 1.4205c-0.5605 2.1059-0.4578 2.3705 0.34943 0.90039 0.74782-1.3619 2.3497-2.5793 3.8771-2.9465l0.77442-0.18618-0.58307 0.81883c-0.32068 0.45036-0.7698 1.2722-0.99805 1.8264l-0.41499 1.0075 0.8851-0.81791c1.4019-1.2955 2.3749-1.8771 4.1285-2.4679 2.0852-0.70244 2.4074-0.69405 1.7139 0.044633-0.55528 0.59149-1.7012 2.8813-1.5284 3.0541 0.16783 0.16783 2.6503-1.2459 3.4898-1.9874 0.4583-0.40481 1.2621-1.3109 1.7863-2.0135 0.73564-0.98613 0.99048-1.1798 1.1173-0.84936 0.23668 0.61679-0.37233 3.4527-1.1386 5.3019-1.1034 2.6627-1.395 3.5719-1.1458 3.5719 0.41825 0 2.1011-3.7624 2.6444-5.9123 0.28854-1.1417 0.73077-3.875 0.98274-6.0741 0.53681-4.685 0.81048-4.401 0.84227 0.87386 0.0222 3.6877-0.34181 6.9477-1.2825 11.485-0.29891 1.4417-0.49862 2.6661-0.44381 2.7209 0.19903 0.19903 1.525-2.9312 2.1386-5.0486 1.2982-4.4798 1.4685-9.7057 0.52188-16.013-0.20557-1.3698-0.36538-2.6199-0.35513-2.7781 0.0364-0.56193 0.8176 1.8766 1.6454 5.1363 0.79047 3.1128 0.84016 3.5913 0.84469 8.1358 3e-3 2.6557 0.0312 4.8286 0.0633 4.8286 0.0322 5.583e-5 0.32985-0.8631 0.66146-1.9181 0.55173-1.7553 0.60088-2.39 0.57878-7.4745-0.026-5.9759 0.0115-5.9996 1.0991-0.69551 0.6861 3.3461 0.91076 7.1001 0.55624 9.2945-0.16277 1.0074 0.12441 0.57822 1.8664-2.7893 1.9202-3.7121 3.1927-5.8221 3.3915-5.6233 0.0464 0.046442-0.20467 1.1976-0.55803 2.558s-0.63996 2.8474-0.63689 3.3042c5e-3 0.67532 0.12107 0.50348 0.62321-0.91897 0.77778-2.2033 2.096-4.1912 4.0157-6.0556 1.2381-1.2024 1.4297-1.3173 1.1028-0.66146-0.45366 0.91039-1.781 5.0288-1.7738 5.5038 3e-3 0.17439 0.55708-0.63543 1.2321-1.7996 1.5149-2.6126 3.3004-4.9248 4.5231-5.8574 0.50918-0.38838 0.87592-0.59857 0.81497-0.4671-0.0609 0.13147-0.60738 1.2337-1.2143 2.4493-1.5828 3.1705-1.956 5.1644-1.8645 9.9606l0.0757 3.9687 0.72937-1.3838c0.99633-1.8902 1.7985-3.9138 2.1784-5.4954l0.31777-1.3229 0.21244 3.175 0.21245 3.175 0.38063-1.3229c0.20935-0.7276 0.40004-2.5429 0.42376-4.0339 0.0237-1.4911 0.0694-2.7115 0.10164-2.712 0.0322-5.292e-4 0.32329 0.86225 0.6469 1.9173 0.63552 2.072 0.80757 5.6671 0.4018 8.3957-0.29491 1.9832 0.0558 1.5043 0.51833-0.70789 0.41668-1.9926 1.0681-3.4005 2.2834-4.9351 0.44324-0.55967 1.2008-1.7503 1.6836-2.6458l0.87768-1.6282 6e-3 0.99053c4e-3 0.61424-0.44232 1.9881-1.1741 3.6164-1.6486 3.668-1.7994 4.5721-0.40899 2.4519 2.207-3.3655 3.6469-6.8193 4.0459-9.7046 0.0604-0.43656 0.12745 0.15875 0.14906 1.3229 0.0216 1.1642-0.13739 3.1205-0.35332 4.3475-0.21592 1.227-0.3522 2.2712-0.30283 2.3206 0.33517 0.33517 3.5766-9.2407 3.6329-10.733 0.0145-0.3839 0.13149-0.99566 0.25995-1.3595 0.46138-1.3066 7e-3 6.4729-0.55348 9.4768-0.30731 1.647-0.51665 3.1208-0.4652 3.2751 0.21172 0.63517 1.8375-3.6111 2.3855-6.2304 0.32416-1.5495 0.69674-2.8173 0.82794-2.8173 0.40991 0-0.0176 5.8243-0.60964 8.3059-0.30873 1.294-0.5159 2.3982-0.46039 2.4537 0.0555 0.055512 0.37132-0.64606 0.70179-1.5591 1.1902-3.2881 2.2754-4.8933 4.2667-6.3112l0.73261-0.52167-0.65093 1.6019c-0.79536 1.9574-1.3323 4.4667-1.5569 7.2752l-0.16922 2.1167 0.65474-1.5439c0.9656-2.2769 2.8187-4.815 2.8083-3.8464-2e-3 0.19972-0.18813 1.137-0.41327 2.0829-0.62703 2.6343-0.85402 3.9696-0.67314 3.96 0.19485-0.010331 2.4692-5.2118 3.3512-7.6642l0.6185-1.7198 0.0139 1.1906c8e-3 0.65484-0.34257 2.4264-0.77823 3.9368-0.43566 1.5104-0.78815 2.9987-0.78331 3.3073l9e-3 0.56115 0.47516-0.56879c0.26133-0.31284 0.72383-1.3844 1.0278-2.3812 0.30394-0.99685 0.92243-3.0308 1.3744-4.5199 0.65999-2.1744 1.0209-2.9167 1.8329-3.7703 0.55607-0.58457 1.1282-1.0629 1.2715-1.0629s-0.0742 0.68461-0.48323 1.5214c-0.92292 1.888-1.463 3.9672-1.6815 6.4728l-0.1681 1.9278 0.54525-0.66146c1.2993-1.5763 2.8949-7.1917 2.9591-10.414 0.0267-1.3393 0.0308-1.3459 0.27106-0.43379 0.28719 1.09 0.0805 5.7691-0.44341 10.038-0.2043 1.6648-0.32827 3.0701-0.27548 3.1229 0.19744 0.19744 1.831-4.6827 2.6626-7.9543 0.50885-2.0018 0.93097-3.2129 1.03-2.9549 0.31357 0.81716 0.16928 5.6072-0.23952 7.9515-0.22399 1.2844-0.70924 3.0562-1.0783 3.9373-0.36909 0.88106-0.74226 1.8401-0.82926 2.1311-0.14497 0.48499-0.11736 0.49603 0.33077 0.13229 0.26893-0.21828 1.3711-2.2138 2.4492-4.4346 1.4109-2.9062 2.3346-4.4473 3.296-5.4993 0.73468-0.80385 1.386-1.4113 1.4474-1.35 0.0614 0.061373-0.30175 1.2991-0.80694 2.7505-0.50519 1.4514-0.98905 3.221-1.0752 3.9325l-0.15672 1.2936 0.35651-1.0583c0.98057-2.9109 3.0968-5.6968 5.7343-7.5488l0.92604-0.65024-0.61431 0.92451c-0.94521 1.4225-2.1326 3.9966-2.3182 5.0255l-0.16702 0.92604 0.66535-0.9421c0.84252-1.193 2.7649-2.7217 2.4543-1.9517-0.77005 1.9088-1.1876 3.4898-1.4577 5.5197-0.1705 1.2812-0.26006 2.3793-0.19904 2.4403 0.061 0.061018 0.55376-1.173 1.095-2.7422 1.2021-3.4853 2.6967-6.4067 4.1332-8.0787 1.175-1.3676 1.9365-1.724 1.0632-0.49758-0.68168 0.95733-1.02 1.8109-1.639 4.1356-0.66644 2.5027-0.60683 3.0013 0.12385 1.0359 0.51507-1.3854 1.6022-3.2848 1.88-3.2848 0.0489 0-0.13783 0.59659-0.41489 1.3258-0.27706 0.72916-0.49301 1.5328-0.47988 1.7859 0.0131 0.2531 0.13171 0.088203 0.26352-0.36644 0.13182-0.45464 0.42622-0.98145 0.65424-1.1707 0.36631-0.30402 0.38953-0.254 0.19949 0.42975-0.27603 0.99311-0.27669 7.2244-7.9e-4 7.9083 0.36548 0.9061 4.2296-11.216 5.0995-15.998l0.36101-1.9844-0.11396 3.5719c-0.0791 2.4795-0.31786 4.4975-0.78069 6.5987-0.3667 1.6648-0.62055 3.073-0.56412 3.1294 0.0564 0.056436 0.41468-0.35313 0.7961-0.91015 0.80375-1.1738 1.572-3.6189 2.0153-6.4141 0.25121-1.5839 0.36393-1.8675 0.58517-1.4721 0.33002 0.58971 0.40306 3.5519 0.12383 5.0214-0.19865 1.0454-0.19624 1.0497 0.19719 0.34923 0.77852-1.386 1.1863-3.9957 1.2122-7.7576 0.0245-3.5566 0.0416-3.6673 0.42835-2.7786 1.1882 2.73 1.7254 9.6337 1.0757 13.825-0.19737 1.2733-0.31626 2.3151-0.2642 2.3151 0.0521 0 0.37756-0.62508 0.72334-1.3891 0.82798-1.8294 1.4568-5.0004 1.4667-7.3972 7e-3 -1.5957 0.0613-1.8379 0.31567-1.4002 0.19851 0.34146 0.35165 2.6878 0.43173 6.6146l0.1241 6.0854 0.58439-3.3346c0.32141-1.834 0.79219-3.9771 1.0462-4.7625 0.44819-1.3859 1.9498-4.0676 2.16-3.8575 0.0573 0.057258-0.0897 0.86546-0.32658 1.796-0.31244 1.2274-0.46765 3.417-0.56537 7.9757l-0.13469 6.2839h-147.22l0.37746-1.7859zm129.35-5.6885c-0.0734-0.1819-0.13346-0.033073-0.13346 0.33073s0.0601 0.51263 0.13346 0.33073c0.0734-0.1819 0.0734-0.47956 0-0.66146zm0.27009-2.6293c-0.0845-0.21107-0.14715-0.14837-0.15985 0.15985-0.0115 0.27891 0.0511 0.43518 0.13897 0.34727 0.0879-0.087919 0.0973-0.31612 0.0209-0.50712z" clip-path="url(#clipPath25558)" fill="#71c837"/>
  </g>
 </g>
</svg>
