<?xml version="1.0" encoding="UTF-8"?>
<!-- Created with Inkscape (http://www.inkscape.org/) -->
<svg width="210mm" height="297mm" version="1.1" viewBox="0 0 210 297" xmlns="http://www.w3.org/2000/svg">
 <path d="m89.627 291.61c-0.26703-0.73844 0.0083-1.4384 0.85022-2.1618 1.5078-1.2956 1.7409-1.3098 3.1582-0.19303 0.88842 0.70006 0.98553 1.0986 0.48169 1.977-0.88347 1.5402-3.9757 1.8004-4.4901 0.37786zm51.65 0.62093c-0.791-0.83936-0.33787-2.6184 0.83685-3.2855 2.3648-1.343 5.0255 1.0795 3.2524 2.9611-0.73573 0.7807-3.4559 0.9965-4.0892 0.32442zm-102.74-1.0677c-1.5878-1.232-0.80105-3.0614 1.4134-3.2863 2.1584-0.21923 3.1321 0.77249 2.3266 2.3696-0.68856 1.3653-2.5682 1.8259-3.74 0.91666zm-25.761-2.1966c-0.63058-0.27655-2.2244-0.52206-3.5419-0.54556-2.4775-0.0444-4.197-1.2281-4.197-2.8896 0-1.3216 5.213-6.2671 6.5924-6.2541 1.3145 0.0123 5.0717 6.053 4.7698 7.6684-0.27823 1.4885-2.285 2.6077-3.6233 2.0208zm72.912-0.0736c-1.3734-0.8156-1.2-2.1507 0.42612-3.2813 2.2922-1.5938 5.1679 0.85704 3.048 2.5977-1.2603 1.0348-2.479 1.2747-3.4742 0.68364zm7.7736-2.0864c-1.6553-1.1864-3.0096-2.5817-3.0096-3.1007 0-1.3918 3.8826-6.7598 5.2135-7.208 1.7865-0.60171 2.6245 0.63962 2.9927 4.4332 0.18647 1.9212 0.50012 4.0682 0.69697 4.7711 0.37343 1.3334-0.94963 3.2942-2.2084 3.2729-0.37159-6e-3 -2.0299-0.98212-3.6852-2.1685zm43.233 1.7744c-0.826-0.87652-0.3164-2.701 0.88627-3.1731 2.4948-0.97933 4.7098 0.88615 3.2573 2.7433-0.67289 0.86037-3.4649 1.15-4.1436 0.42982zm8.3523-1.7397c-1.8424-1.3166-3.0019-2.5878-3.0019-3.2911 0-1.6067 4.3983-7.3382 5.6312-7.3382 1.62 0 2.3943 1.2701 2.3943 3.9276 0 1.3572 0.2335 3.3317 0.5189 4.3877 0.38335 1.4184 0.29998 2.2517-0.31913 3.1896-1.1343 1.7185-1.7341 1.6179-5.2234-0.87562zm-111.09 0.66011c-0.88842-0.70005-0.98554-1.0986-0.48168-1.977 0.80624-1.4056 3.2679-1.7368 4.1857-0.56333 0.57333 0.73307 0.4834 1.1386-0.47901 2.1598-1.4063 1.4923-1.7609 1.5342-3.225 0.38049zm7.7925-1.6092c-3.5789-2.4931-3.7085-2.9893-1.6453-6.2948 2.0438-3.2743 3.921-4.7962 5.249-4.2555 1.119 0.45565 1.337 1.2354 1.8247 6.5248 0.57855 6.2749-0.76694 7.2727-5.4284 4.0255zm155.06 0.28771c-1.1304-1.1995-1.1241-3.5177 0.0122-4.5184 1.4428-1.2707 2.8258 0.71608 2.6188 3.7622-0.0966 1.4217-1.5973 1.8531-2.631 0.75619zm-135.37-0.50016c-0.65254-1.8045 0.22861-2.8658 2.211-2.663 1.5613 0.15968 1.867 0.43994 1.867 1.7117 0 1.2718-0.30568 1.552-1.867 1.7117-1.2858 0.13151-1.9741-0.10517-2.211-0.76038zm51.699-0.0823c-1.0812-1.1473-1.1195-1.6103-0.21293-2.5723 1.515-1.6077 4.4714-0.4441 4.4714 1.7599 0 1.8321-2.7951 2.3653-4.2584 0.81243zm53.078 0.42158c-0.42169-0.28365-0.67966-1.1691-0.57325-1.9677 0.35358-2.6536 4.4929-2.0211 4.4929 0.68651 0 1.597-2.3218 2.3559-3.9196 1.2812zm35.612-0.8141c-0.9653-1.2941-1.1832-2.5465-0.63863-3.6701 0.80422-1.6593 2.6843-1.3286 3.1288 0.55039 0.59478 2.5147-1.2332 4.8048-2.4901 3.1197zm-135.44-2.9644c-1.2685-1.7029-2.3063-3.6186-2.3063-4.2571 0-1.3456 4.7727-4.7835 6.6655-4.8014 1.8345-0.0174 2.6773 1.4334 2.1872 3.7655-0.23138 1.101-0.4778 3.0249-0.54761 4.2752-0.27769 4.9734-2.741 5.3913-5.9988 1.0178zm54.034 2.6998c-1.1514-0.49524-4.7476-6.0628-4.7476-7.3501 0-1.624 5.4479-5.2357 7.1955-4.7702 1.4593 0.38866 1.9455 1.8231 1.356 4.0004-0.22646 0.83644-0.43745 2.6646-0.46888 4.0627-0.0321 1.4272-0.45217 2.9611-0.95797 3.4978-0.93734 0.99466-1.214 1.0598-2.3772 0.5595zm53.035-0.0173c-1.2466-0.34827-5.0433-5.9228-5.0433-7.4048 0-1.2655 5.1359-4.956 6.897-4.956 1.6436 0 2.488 2.1267 1.7438 4.3921-0.33834 1.0299-0.61516 2.9071-0.61516 4.1716 0 1.279-0.39971 2.7232-0.90084 3.255-0.49545 0.52576-0.94688 0.92417-1.0032 0.88535-0.0563-0.0389-0.54149-0.19323-1.0782-0.34317zm-156.98-2.6686c-0.49331-0.97813-0.43119-1.5861 0.27967-2.7374 1.0272-1.6636 1.4981-1.8052 2.4925-0.75 1.4107 1.4969 0.44347 4.7448-1.413 4.7448-0.39878 0-1.0104-0.56584-1.3592-1.2574zm67.309 0.37422c-0.54874-1.5174 0.90578-2.8508 2.8862-2.6457 1.4583 0.15101 1.7686 0.44995 1.7686 1.7039 0 1.3188-0.28606 1.5459-2.1543 1.7099-1.5484 0.13591-2.2517-0.0801-2.5005-0.76814zm51.579-0.0371c-0.49795-1.377 0.8648-2.7297 2.75-2.7297 1.8894 0 2.7008 1.3703 1.6255 2.7452-0.92785 1.1864-3.9447 1.1757-4.3755-0.0154zm-102.86-0.65147c-0.54422-0.69585-0.58746-1.245-0.15568-1.977 0.80188-1.3595 3.2668-1.6091 4.1932-0.42457 0.62259 0.79605 0.57588 1.1548-0.28123 2.1598-1.2394 1.4532-2.7336 1.5494-3.7563 0.24175zm159.63 0.1024c-0.64672-1.7884 0.023-4.3096 1.1448-4.3096 1.4788 0 2.3169 1.6059 1.8557 3.5557-0.41759 1.7656-2.45 2.2762-3.0005 0.75383zm-134.07-0.95247c-0.85711-1.005-0.90382-1.3638-0.28123-2.1598 0.95221-1.2175 3.405-0.92085 4.2265 0.51119 0.50384 0.87838 0.40674 1.277-0.48169 1.977-1.4928 1.1763-2.2408 1.1054-3.4635-0.32837zm-53.494-0.13308c-1.5785-1.6751-0.013684-5.7407 1.9083-4.958 1.5526 0.63219 0.77351 5.688-0.87647 5.688-0.18917 0-0.65351-0.32848-1.0319-0.72998zm104.91 0c-0.99098-1.0516-0.84718-2.1783 0.36592-2.8673 2.2244-1.2632 4.9341 0.89232 3.4719 2.7619-0.8055 1.0299-2.9121 1.0878-3.8378 0.10536zm52.739 0c-1.7451-1.8518 0.4249-3.9742 3.0007-2.935 2.3473 0.947 1.5249 3.665-1.109 3.665-0.66212 0-1.5134-0.32848-1.8917-0.72998zm42.421-1.2166c-1.4257-1.5129-0.43985-4.7448 1.4473-4.7448 0.98672 0 1.8911 2.551 1.4865 4.1929-0.34742 1.4098-1.8576 1.6939-2.9338 0.55194zm-6.9937-1.1676c-3.8027-3.3136-4.586-4.2855-4.586-5.6896 0-1.5601 1.809-3.0694 3.0414-2.5374 0.50948 0.2199 0.50134 0.30788-0.0317 0.34359-1.0362 0.0696-0.88377 1.2647 0.1613 1.2647 0.48283 0 1.0216-0.39747 1.1973-0.88328 0.17858-0.49385 1.4754-1.0672 2.9415-1.3005 2.1703-0.34535 2.7546-0.22488 3.3914 0.69928 0.89487 1.2987 0.60158 2.5824-1.2917 5.6534-2.6391 4.2808-2.6916 4.3075-4.8233 2.4499zm-109.35 0.27812c-0.91041-0.38982-0.92676-2.1723-0.02866-3.1254 0.97641-1.0361 3.0485-0.90389 3.9527 0.25223 0.65856 0.84204 0.57771 1.1458-0.56657 2.1291-1.3437 1.1546-2.0388 1.3086-3.3574 0.74403zm51.228-0.5272c-0.48206-0.51154-0.73-1.3351-0.55097-1.8302 0.37718-1.043 2.6686-1.7896 3.9239-1.2785 1.2241 0.49846 1.0669 2.6624-0.24766 3.409-1.4997 0.85168-2.0934 0.79462-3.1253-0.30037zm-125.78-0.40822c-1.4912-1.5824-0.465-5.0205 1.3872-4.6474 1.2876 0.2594 1.7847 3.1945 0.76242 4.5017-0.83388 1.0662-1.2552 1.0948-2.1496 0.14571zm22.233-0.80221c-0.59184-0.75673-0.53247-1.1468 0.32812-2.1559 1.2288-1.4408 3.0239-1.3374 3.9217 0.2259 1.2045 2.0975-2.7236 3.8814-4.2498 1.93zm-27.536-0.63325c-1.0555-1.3496-0.037353-4.1647 1.5961-4.4134 1.5374-0.23414 2.3088 2.1425 1.3271 4.0889-0.76186 1.5106-1.897 1.6366-2.9233 0.32447zm50.905-0.31653c-1.511-0.93391-1.2593-2.9014 0.42866-3.351 2.6533-0.70665 4.6153 1.2274 3.1481 3.1033-0.81634 1.0438-2.1404 1.1354-3.5768 0.24769zm51.123-0.91473c-0.54625-0.69843-0.58808-1.2423-0.15207-1.977 0.87102-1.4678 2.1062-1.534 3.663-0.19635 1.1706 1.0059 1.2553 1.312 0.5963 2.1546-0.98105 1.2544-3.1331 1.2642-4.1072 0.0187zm52.894 0.23348c-1.0222-1.0847-0.83633-2.1845 0.49705-2.9417 0.92175-0.52347 1.4947-0.45757 2.5796 0.29678 0.76709 0.53335 1.3947 1.1824 1.3947 1.4424 0 0.89854-1.3803 1.9326-2.5796 1.9326-0.66211 0-1.5134-0.32847-1.8917-0.72997zm-99.877-3.2443c-1.6791-2.1469 1.4975-4.2428 3.7461-2.4716 0.91479 0.72055 1.0166 1.119 0.51127 2-0.83498 1.4557-3.2763 1.7261-4.2574 0.47162zm51.615-0.58032c-1.0887-1.392-0.26274-2.7452 1.6756-2.7452 1.7575 0 2.9872 1.4256 2.4926 2.8895-0.35698 1.0565-3.3089 0.95424-4.1681-0.14432zm52.739 0c-1.0753-1.3749-0.26386-2.7452 1.6255-2.7452 1.8851 0 3.2479 1.3527 2.75 2.7296-0.43076 1.1912-3.4476 1.2019-4.3755 0.0154zm-152.78-13.075c-0.63058-0.2938-2.2338-0.5534-3.5627-0.57692-1.8034-0.0318-2.5718-0.35132-3.0297-1.2594-0.82172-1.6293-0.11922-2.9012 3.1933-5.7816 3.1382-2.7288 3.659-2.5776 6.1936 1.7991 1.372 2.3691 1.5836 3.1974 1.1514 4.5071-0.56483 1.7116-2.0371 2.2011-3.9459 1.3118zm180.64-0.97359c-0.56098-1.5513-0.4077-2.5374 0.55287-3.5567 1.2433-1.3194 1.8855-1.1993 2.61 0.48792 0.45 1.0481 0.44111 1.7984-0.0325 2.7374-0.76484 1.5165-2.6304 1.714-3.1304 0.33136zm-4.2891-0.19453c-1.0669-0.71714-0.9979-3.5959 0.11455-4.7764 0.74384-0.78932 1.0592-0.8202 1.7914-0.17535 1.1458 1.009 1.1396 3.3221-0.0121 4.5442-1.0488 1.113-0.89381 1.0796-1.8938 0.40749zm8.5832-3.8618c-0.70359-2.0054 0.11359-3.802 1.7293-3.802 1.5823 0 2.1147 1.9041 1.0967 3.9226-0.83083 1.6473-2.2266 1.5877-2.826-0.12069zm-180.04-0.73639c-0.37118-0.4746-0.59174-1.6323-0.49013-2.5726 0.14757-1.3658 0.47296-1.7096 1.6179-1.7096 1.1915 0 1.4629 0.32646 1.6099 1.9366 0.21163 2.3182-1.5671 3.8422-2.7377 2.3456zm167.78-0.70806c-0.72338-0.76759-0.4305-3.7081 0.44623-4.4802 1.5107-1.3304 2.676-0.26322 2.4785 2.2698-0.13725 1.7608-0.44703 2.3269-1.3483 2.4638-0.64355 0.0977-1.353-0.0164-1.5764-0.25348zm-180.44-1.7856c-0.93994-1.2018-0.083305-4.1238 1.2914-4.4047 1.3833-0.28269 2.3041 1.8766 1.6176 3.7929-0.63293 1.7666-1.8119 2.0145-2.909 0.6118zm185.19-2.4875c-1.567-2.9464-1.7354-3.6511-1.1809-4.9426 0.57003-1.3276 0.89929-1.4619 2.7761-1.1327 1.1711 0.20544 3.0783 0.37655 4.2381 0.38023 2.2163 6e-3 3.9104 1.2566 3.9104 2.8843 0 1.3869-5.188 6.2471-6.6685 6.2471-0.91837 0-1.7299-0.90679-3.0752-3.4364zm-176.32-1.0693c-0.4133-1.7474 0.59684-4.0107 1.79-4.0107 1.3231 0 2.2258 2.6221 1.4395 4.1813-0.89577 1.7761-2.7928 1.6759-3.2295-0.17057zm-4.8348-1.8071c0-2.5224 1.2997-3.9391 2.5797-2.8119 1.6921 1.4902 0.85416 4.8665-1.2078 4.8665-1.1761 0-1.3718-0.29306-1.3718-2.0546zm-5.5892-15.677c-0.3941-0.41849-0.71656-1.3864-0.71656-2.1509 0-1.6241 3.2521-7.4914 4.1523-7.4914 1.3676 0 6.7394 5.0353 6.7307 6.3092-0.01433 2.1105-0.68317 2.6127-4.004 3.0059-1.7341 0.20534-3.6688 0.53415-4.2994 0.7307s-1.469 0.015-1.8631-0.40352zm191.73-0.28913c-0.81134-0.86096-0.42378-4.3494 0.52619-4.7362 1.4355-0.58457 2.5868 0.82753 2.3929 2.9352-0.12414 1.3499-0.50109 1.9266-1.3427 2.0545-0.64355 0.0978-1.353-0.0164-1.5764-0.25345zm5.0052-1.7194c-1.1148-1.8054-0.61573-3.9838 0.91266-3.9838 1.5759 0 2.5511 2.2177 1.7726 4.031-0.78977 1.8394-1.5284 1.8264-2.6852-0.0473zm-9.4344-2.7872c-0.9229-1.8299-0.2525-4.2382 1.1798-4.2382 1.4993 0 2.7392 2.7236 1.8907 4.1534-0.90363 1.5228-2.3255 1.5621-3.0705 0.0849zm-191.13-0.93597c-1.5056-1.5976-0.94953-4.5189 0.8601-4.5189 1.5564 0 2.5238 2.2285 1.7499 4.031-0.72445 1.6873-1.3666 1.8073-2.61 0.48792zm203.88-0.97292c-0.8373-0.88851-0.90393-2.8808-0.13892-4.1543 0.92077-1.5327 2.5872 0.0719 2.5872 2.4912 0 2.2062-1.1807 3.0082-2.4483 1.6631zm-8.653-2.4369c-2.255-1.9466-2.9434-2.9341-2.9434-4.2223 0-2.1141 0.11253-2.1803 5.1014-3.0017 4.4776-0.73722 5.7904-0.29274 5.7904 1.9604 0 1.3309-3.734 7.8044-4.5017 7.8044-0.27676 0-1.8278-1.1434-3.4466-2.5408zm-182.81 1.2203c-0.99359-1.0543-0.88398-4.1194 0.16254-4.5456 1.3974-0.56903 2.6497 0.9959 2.4583 3.0719-0.18547 2.0114-1.4461 2.7203-2.6209 1.4737zm-9.6216-3.7667c-0.44984-1.9019 0.15655-4.0374 1.1464-4.0374 2.3105 0 2.7614 5.0182 0.48176 5.3622-0.94991 0.14333-1.3599-0.19021-1.6282-1.3248zm4.8802-1.0434c-0.77789-1.5424-0.41631-2.7012 1.114-3.5703 0.95159-0.54042 1.2685-0.43039 1.8009 0.62518 0.89853 1.7816 0.22839 4.2093-1.1619 4.2093-0.61348 0-1.4023-0.56888-1.753-1.2642zm185.72-15.846c-0.95205-1.8877 0.19203-4.3293 1.9074-4.0707 0.92565 0.13955 1.3359 0.67104 1.469 1.9033 0.33415 3.0925-2.1165 4.6656-3.3764 2.1674zm-180.25-0.53137c-0.63058-0.28754-1.9638-0.54204-2.9627-0.56555-2.8279-0.0665-3.6297-0.61647-3.6297-2.4893 0-1.3271 0.65607-2.2624 2.9412-4.1931 1.6176-1.3667 3.2755-2.485 3.6841-2.485 0.9046 0 4.2666 6.074 4.2666 7.7084 0 2.3018-1.8161 3.157-4.2994 2.0246zm175.35-0.96713c-0.46956-1.9853 0.35724-3.5952 1.8464-3.5952 0.88254 0 1.084 0.45229 1.084 2.4332 0 2.0486-0.20066 2.4635-1.2696 2.6248-0.97338 0.14688-1.3608-0.1944-1.6609-1.4629zm9.3559-1.846c-0.72337-0.76763-0.4305-3.7081 0.44623-4.4802 1.5107-1.3304 2.676-0.26321 2.4785 2.2699-0.13725 1.7608-0.44703 2.3269-1.3483 2.4638-0.64355 0.0977-1.353-0.0164-1.5764-0.25345zm-12.141-2.4268c-1.0319-1.095-1.0856-1.725-0.28305-3.3164 0.70355-1.395 2.7428-1.5618 3.2126-0.2628 0.48169 1.332-0.22186 3.7636-1.2048 4.1639-0.46654 0.18997-1.2427-0.0732-1.7247-0.58467zm-167.58-0.35652c-1.4912-1.5824-0.465-5.0205 1.3872-4.6474 1.2876 0.25942 1.7847 3.1946 0.76241 4.5017-0.83387 1.0662-1.2552 1.0948-2.1496 0.14571zm172.52-2.9603c-3.0145-5.1459-2.0777-8.0852 2.1487-6.7415 1.2089 0.38435 2.9549 0.69881 3.8799 0.69881 1.9905 0 3.0577 0.9647 3.0577 2.7638 0 1.4065-5.0365 6.3608-6.4663 6.3608-0.44806 0-1.6271-1.3869-2.6201-3.082zm-185.23 0.0802c-0.83586-1.6574 0.19297-4.298 1.6746-4.298 1.422 0 2.108 2.4016 1.2002 4.2015-0.80389 1.5939-2.0976 1.6374-2.8748 0.0965zm9.1721-3.0416c-0.71537-1.4184 0.14502-4.298 1.2842-4.298 1.1293 0 2.1352 1.2897 2.1352 2.7374 0 2.5614-2.3693 3.6427-3.4194 1.5606zm-4.5183-0.18996c-1.017-1.0792-0.80125-3.9887 0.34212-4.6128 1.5964-0.87126 2.4363-0.16289 2.4363 2.0548 0 2.3176-1.609 3.799-2.7784 2.558zm185.68-16.542c-1.1092-1.4182-0.52187-4.2638 0.92518-4.4825 1.4461-0.2186 2.2135 1.5687 1.6665 3.8813-0.39113 1.6537-1.557 1.9242-2.5917 0.60121zm-191.97-1.091c-1.3831-1.4677-0.27658-4.9763 2.785-8.831 0.90388-1.1381 1.2911-0.98466 4.4943 1.7804 2.2929 1.9792 2.9434 2.9237 2.9434 4.2732 0 2.0588-1.0015 2.5729-6.0666 3.1145-2.3279 0.2489-3.7094 0.13684-4.1561-0.33718zm196.41-0.81808c-0.80418-1.8729-0.0329-3.6026 1.6064-3.6026 1.4521 0 2.4299 2.9215 1.4129 4.2218-1.0923 1.3966-2.2562 1.1579-3.0193-0.61921zm-9.0863-2.7671c-0.78634-1.5591 0.11637-4.1812 1.4395-4.1812 1.1932 0 2.2033 2.2633 1.79 4.0107-0.43673 1.8465-2.3338 1.9467-3.2295 0.17055zm12.765-1.2613c-1.7826-1.8916 0.0141-6.3984 1.8917-4.7448 1.4587 1.2847 0.80064 5.4748-0.85988 5.4748-0.18917 0-0.65351-0.3285-1.0318-0.72999zm-203.51-0.60831c-0.93618-0.99344-0.86896-3.8281 0.11124-4.6914 1.7584-1.5486 3.6193 2.9226 1.9525 4.6914-0.37835 0.40149-0.84269 0.72997-1.0319 0.72997-0.18918 0-0.65352-0.32848-1.0319-0.72997zm194.65-2.3961c-2.04-1.8544-2.723-2.9008-2.723-4.1719 0-1.9629 0.82046-2.435 4.2316-2.435 1.33 0 2.7207-0.32105 3.0905-0.71347 0.99199-1.0527 3.5697 0.33834 3.5697 1.9263 0 1.9259-3.4136 7.9149-4.4974 7.8906-0.52166-0.0117-2.1738-1.1351-3.6714-2.4966zm-182.61-0.0372c-1.3753-1.4594-0.60854-4.7448 1.1074-4.7448 1.4318 0 2.4427 2.6751 1.6242 4.298-0.67627 1.3409-1.727 1.5128-2.7315 0.44682zm-9.4113-3.8796c-1.2409-2.8901 1.1195-5.0379 2.7084-2.4646 0.7315 1.1847 0.79799 1.7937 0.303 2.7752-0.86597 1.717-2.1999 1.5795-3.0114-0.3106zm5.117-0.0284c-0.2235-0.23717-0.40636-0.93307-0.40636-1.5465 0-0.83924 0.43549-1.1152 1.7596-1.1152 1.4969 0 1.7323 0.20436 1.5764 1.3687-0.18086 1.3513-2.0835 2.191-2.9297 1.293zm185.35-16.613c-0.92442-1.8329 0.22026-4.4328 1.8439-4.1881 0.93054 0.14025 1.3403 0.66959 1.4736 1.9039 0.32471 3.0051-2.1089 4.6807-3.3176 2.2842zm-180.35-0.62588c-0.65164-0.27992-2.1178-0.50893-3.2582-0.50893-2.7032 0-3.2959-0.44657-3.2959-2.4832 0-1.2882 0.68841-2.2757 2.9434-4.2223 3.1131-2.6873 3.3026-2.7798 4.2498-2.0753 0.99676 0.7415 3.6986 6.0575 3.6986 7.2771 0 2.2683-1.7991 3.1031-4.3377 2.0126zm175.57 0.20614c-0.72337-0.76761-0.4305-3.708 0.44623-4.4802 1.5107-1.3304 2.676-0.26321 2.4785 2.2699-0.13726 1.7608-0.44703 2.3269-1.3483 2.4638-0.64355 0.0978-1.3529-0.0163-1.5764-0.25346zm8.9627-3.6027c-0.58777-1.6254 0.5348-4.2297 1.8232-4.2297 0.93932 0 1.1327 0.41543 1.1327 2.4332 0 2.0617-0.19737 2.463-1.2924 2.628-0.80617 0.12146-1.432-0.19138-1.6635-0.83158zm-12.274-2.1775c-0.86473-1.7146 0.15901-4.1812 1.7354-4.1812 1.4201 0 2.1054 2.4029 1.1983 4.2015-0.82484 1.6355-2.103 1.6266-2.9337-0.0202zm-167.24-0.0448c-1.6009-1.6989-0.08913-5.3315 1.8844-4.5278 1.5396 0.62694 0.78868 5.2578-0.85258 5.2578-0.18918 0-0.65352-0.3285-1.0319-0.72996zm173.31-1.3991c-0.48021-0.83643-1.26-2.1955-1.733-3.0202-2.0991-3.6602-0.40765-6.2416 3.3654-5.1361 1.1528 0.33777 2.3208 0.46664 2.5956 0.28638 0.27483-0.18026 1.3032-0.0306 2.2853 0.33281 2.8445 1.0522 2.4726 3.3862-1.0402 6.5294-3.2701 2.926-4.2665 3.1095-5.4732 1.0077zm-186.01-1.4809c-0.71537-1.4184 0.14502-4.298 1.2842-4.298 1.8872 0 2.873 3.232 1.4473 4.7448-1.0045 1.066-2.0553 0.89408-2.7315-0.44683zm9.2399-2.9293c-0.56769-1.1496 0.01036-3.4186 1.0435-4.0962 0.91994-0.60334 2.3081 0.82577 2.3081 2.3762 0 2.5185-2.3594 3.7293-3.3516 1.72zm-4.5593-0.27374c-1.0653-1.1304-0.83802-4.0085 0.37078-4.695 1.3628-0.77397 2.3808 0.24514 2.3808 2.3834 0 1.4561-0.89644 3.0416-1.7198 3.0416-0.18917 0-0.65351-0.32849-1.0319-0.72997zm-6.5885-16.076c-1.3241-1.4051 2.0785-9.3519 4.0042-9.3519 0.83929 0 5.1781 3.264 6.0437 4.5466 0.7695 1.1402 0.45284 3.3109-0.56447 3.8695-1.3301 0.73046-8.9668 1.484-9.4834 0.93574zm192.26-0.46849c-0.3879-0.49598-0.62214-1.6711-0.52053-2.6114 0.14758-1.3658 0.47296-1.7096 1.6179-1.7096 1.289 0 1.4331 0.24389 1.4331 2.4249 0 2.6378-1.2297 3.5593-2.5305 1.8962zm4.7628-1.2281c-0.64673-1.7884 0.023-4.3096 1.1448-4.3096 1.4788 0 2.3169 1.6058 1.8557 3.5557-0.41758 1.7656-2.45 2.2762-3.0005 0.75386zm-8.9916-2.5604c-0.81134-0.86095-0.42378-4.3494 0.52619-4.7362 1.4355-0.58457 2.5868 0.82753 2.3929 2.9352-0.12414 1.3498-0.50109 1.9266-1.3427 2.0545-0.64355 0.0978-1.353-0.0163-1.5764-0.25346zm-191.82-2.2054c-0.63951-1.8227 0.10436-3.8019 1.4289-3.8019 1.2081 0 2.3294 2.6481 1.773 4.187-0.53117 1.4688-2.6404 1.2152-3.2019-0.38507zm204.35-0.19552c-1.1571-1.2279-1.149-2.9521 0.0198-4.1923 1.6627-1.7644 3.7588 1.4731 2.5305 3.9086-0.75087 1.4888-1.3516 1.5556-2.5503 0.28369zm-191.52-1.2755c-1.3077-1.3877-0.87424-4.1082 0.69231-4.3448 2.3036-0.34801 3.227 4.0816 1.0367 4.9734-0.45181 0.18398-1.2299-0.0989-1.7291-0.6286zm182.45-1.58c-3.8895-3.673-3.5612-6.5299 0.75035-6.5299 1.151 0 2.9106-0.30251 3.9101-0.67225 2.2428-0.82964 3.5342 0.0714 3.468 2.4196-0.0624 2.2127-2.9327 7.0419-4.2889 7.2158-0.63255 0.0812-2.288-0.96795-3.8396-2.4333zm-191.92-1.72c-0.9078-1.8-0.22178-4.2015 1.2002-4.2015 1.4816 0 2.5104 2.6407 1.6746 4.298-0.77713 1.5409-2.0709 1.4975-2.8748-0.0965zm5.3192-0.65556c-0.99359-1.0543-0.88398-4.1194 0.16254-4.5456 1.3974-0.56903 2.6497 0.9959 2.4583 3.0719-0.18546 2.0114-1.4461 2.7203-2.6209 1.4736zm5.3145-16.962c-0.63058-0.26902-2.1308-0.50837-3.3339-0.53188-2.8195-0.05511-4.405-0.97778-4.405-2.5634 0-1.579 5.0252-6.595 6.5924-6.5803 1.5277 0.01435 5.101 6.1627 4.5847 7.8888-0.4781 1.5985-2.0116 2.3954-3.4382 1.7868zm180.1-0.37188c-0.70341-0.74643-0.39203-3.695 0.47041-4.4545 1.8551-1.6338 3.3182 0.91339 2.239 3.8978-0.35062 0.96959-2.0008 1.3086-2.7094 0.55668zm-5.2926-2.2752c-0.4133-1.7474 0.59683-4.0107 1.79-4.0107 1.3231 0 2.2258 2.6221 1.4395 4.1812-0.89576 1.7761-2.7928 1.6759-3.2295-0.17055zm9.1721-3.0416c-0.4133-1.7474 0.59684-4.0107 1.79-4.0107 1.3231 0 2.2258 2.6221 1.4395 4.1812-0.89576 1.7761-2.7928 1.6759-3.2295-0.17055zm-180.27-1.0099c-0.4933-0.97812-0.43119-1.5861 0.27968-2.7374 1.0272-1.6635 1.4981-1.8052 2.4925-0.75001 1.4107 1.4969 0.44346 4.7448-1.413 4.7448-0.39878 0-1.0104-0.56584-1.3592-1.2574zm168.66 0.11976c-0.45652-0.30714-0.68502-1.3339-0.57325-2.576 0.157-1.7449 0.40819-2.0653 1.619-2.0653 1.1449 0 1.4703 0.34384 1.6179 1.7096 0.10161 0.94031-0.12346 2.1037-0.50013 2.5853-0.78562 1.0045-1.1084 1.0562-2.1635 0.34634zm-180.59-1.4457c-1.6459-1.7466 0.24162-6.1932 1.9793-4.6629 1.1697 1.0301 1.0054 4.0447-0.25954 4.7631-0.72839 0.41366-1.2649 0.38239-1.7198-0.10025zm185.08-2.6618c-2.5749-4.8414-1.6254-7.7739 2.0385-6.2957 0.80601 0.32518 2.4621 0.59125 3.6802 0.59125 2.1638 0 4.0164 1.1983 4.0164 2.5978 0 1.0807-5.7488 6.5269-6.8895 6.5269-0.64925 0-1.6952-1.2572-2.8456-3.4202zm-175.88-0.35132c-1.4912-1.5824-0.465-5.0205 1.3872-4.6474 1.2876 0.2594 1.7847 3.1945 0.76242 4.5017-0.83388 1.0662-1.2552 1.0948-2.1496 0.14571zm-5.2474-1.3651c-0.8966-1.1464-0.3368-3.8999 0.89482-4.4014 0.48799-0.19871 1.3054 0.08244 1.8165 0.6248 0.72311 0.76733 0.806 1.358 0.37364 2.6626-0.64477 1.9455-2.0405 2.4495-3.085 1.114zm-5.1704-16.732c-0.51947-1.03-0.29741-1.897 1.253-4.8923 1.2511-2.417 2.2429-3.6428 2.9513-3.6476 1.7272-0.01169 6.672 4.7429 6.672 6.4153 0 1.897-1.1639 2.4595-6.1257 2.9605-3.7852 0.38221-4.1705 0.31441-4.7506-0.8359zm192.72-1.3614c-1.4596-1.5489-0.0173-5.8307 1.7531-5.2045 1.0501 0.37144 1.4929 2.6536 0.79895 4.118-0.81342 1.7167-1.6303 2.0645-2.552 1.0865zm-4.5645-0.89713c-1.0021-0.4291-0.89683-4.1559 0.14331-5.0719 1.9946-1.7566 3.5775 2.5041 1.6788 4.5189-0.49545 0.52576-0.94689 0.93431-1.0032 0.9079-0.0563-0.02641-0.42482-0.1861-0.81893-0.35485zm-191.73-3.5984c-0.80418-1.8729-0.032915-3.6026 1.6064-3.6026 1.4521 0 2.4298 2.9215 1.4129 4.2218-1.0923 1.3967-2.2562 1.158-3.0193-0.61921zm200.25-0.40899c-0.65119-1.856 0.0939-3.7605 1.5625-3.9935 0.88188-0.13995 1.303 0.2136 1.5628 1.312 0.73789 3.1198-2.1132 5.5661-3.1253 2.6815zm-187.68-0.83612c-0.7261-0.7705-0.42902-3.7094 0.45353-4.4866 1.3092-1.153 2.6812 0.34142 2.4656 2.6856-0.12414 1.3499-0.50109 1.9267-1.3427 2.0545-0.64356 0.09776-1.353-0.01631-1.5764-0.25346zm175.42-0.60831c-0.72337-0.76761-0.4305-3.7081 0.44623-4.4802 1.5107-1.3304 2.676-0.26322 2.4785 2.2699-0.13726 1.7608-0.44703 2.3269-1.3483 2.4638-0.64355 0.09776-1.3529-0.01631-1.5764-0.25346zm6.9295-1.0124c-0.46646-0.40525-1.562-2.0682-2.4345-3.6954-1.2563-2.343-1.468-3.2344-1.0174-4.2839 0.51182-1.192 0.93589-1.3063 4.2184-1.1362 5.3491 0.27708 6.16 0.57506 6.5973 2.4243 0.33105 1.3997 0.0274 1.9638-2.141 3.9774-3.4555 3.2088-4.2049 3.5982-5.2228 2.7139zm-191.32-1.3083c-0.37668-0.48163-0.60174-1.645-0.50014-2.5853 0.14758-1.3658 0.47297-1.7096 1.6179-1.7096 1.2108 0 1.462 0.32044 1.619 2.0653 0.24497 2.7225-1.3408 4.0145-2.7367 2.2297zm4.5588-1.8573c-0.66518-1.8566 0.1122-3.9585 1.464-3.9585 1.2472 0 2.3521 2.8773 1.5948 4.1534-0.99035 1.6689-2.4238 1.5776-3.0589-0.19488zm28.995-13.884c-0.56748-0.44033-0.93571-1.33-0.81829-1.977 0.29597-1.6308 4.0994-1.7024 4.3934-0.08265 0.22396 1.2341-0.83534 2.8603-1.8632 2.8603-0.37407 0-1.1444-0.36027-1.7119-0.8006zm52.739 0c-0.56749-0.44033-0.93572-1.33-0.81829-1.977 0.29598-1.6308 4.0994-1.7024 4.3934-0.08265 0.22396 1.2341-0.83534 2.8603-1.8632 2.8603-0.37407 0-1.1444-0.36027-1.7119-0.8006zm50.825 0.09677c-0.97882-1.0387-0.89543-2.9098 0.14863-3.3349 0.47364-0.19287 1.5218-0.17473 2.3292 0.04031 1.1905 0.31707 1.4341 0.70319 1.2886 2.0426-0.13544 1.2465-0.53196 1.6954-1.6166 1.8299-0.79044 0.09801-1.7578-0.16203-2.1497-0.5779zm51.557 0.06073c-0.94233-0.40096-1.2766-0.96616-1.1465-1.9385 0.14937-1.1163 0.54651-1.3725 2.1276-1.3725 2.5396 0 3.7534 1.7764 2.1026 3.0772-1.2667 0.99813-1.2841 0.99945-3.0837 0.23374zm-182.11-1.7346c-3.6333-0.48349-4.2994-0.94956-4.2994-3.0081 0-1.2756 0.65022-2.1902 2.7854-3.9181 1.532-1.2398 3.2083-2.2541 3.7251-2.2541 1.1064 0 4.3547 5.222 4.3704 7.026 0.0065 0.68587-0.29866 1.5755-0.67701 1.977-0.72629 0.77071-1.3126 0.78831-5.9045 0.17725zm31.265-2.1555c-1.0233-1.3084-0.48343-3.0427 1.0177-3.2696 1.5802-0.23876 2.9722 0.8559 2.9722 2.3373 0 1.8053-2.7962 2.4587-3.9899 0.93229zm52.831 0.15327c-0.95767-1.0162-0.85965-2.8881 0.17326-3.3088 1.2553-0.51115 3.5467 0.23544 3.9239 1.2785 0.71132 1.967-2.6071 3.6115-4.0972 2.0303zm51.02 0c-1.199-1.2724-0.79221-2.8689 0.84195-3.3042 1.9246-0.5126 4.0893 1.8008 2.9946 3.2004-0.80442 1.0285-2.9114 1.0855-3.8366 0.10379zm51.335 0.07293c-1.511-0.9339-1.2593-2.9014 0.42866-3.351 2.6533-0.70665 4.6152 1.2274 3.1481 3.1033-0.81633 1.0438-2.1404 1.1355-3.5768 0.24768zm-164.89-0.78763c-0.76459-0.97761-0.23976-9.3566 0.66202-10.57 1.2593-1.6937 3.2108-0.82116 5.5657 2.4885 1.2714 1.7869 2.3116 3.5589 2.3116 3.9379 0 0.8867-5.7079 4.9795-6.9445 4.9795-0.51736 0-1.235-0.37636-1.5948-0.83636zm52.739 0c-1.0155-1.2984-0.14-9.4195 1.1647-10.804 0.57352-0.60859 1.4356-0.94656 1.9157-0.75104 1.1395 0.464 5.4588 6.2276 5.4588 7.2841 0 0.98106-5.6106 5.1074-6.9445 5.1074-0.51736 0-1.235-0.37636-1.5948-0.83636zm50.755 0.41598c-0.51473-0.54621 0.20194-9.2955 0.87493-10.681 0.28434-0.5855 1.1447-1.0645 1.9119-1.0645 1.7409 0 6.2738 6.1321 5.7486 7.7766-0.73156 2.2909-7.2573 5.3256-8.5354 3.9692zm51.231-0.78377c-0.33401-0.66228-0.46508-1.8257-0.29128-2.5853 0.1738-0.75965 0.40658-2.7292 0.51726-4.3767 0.21938-3.2653 1.435-4.8177 3.2187-4.1106 1.4664 0.58131 5.2635 6.0208 5.0434 7.2248-0.24494 1.3394-5.0225 4.961-6.6111 5.0116-0.70719 0.0225-1.5387-0.49305-1.877-1.1638zm-18.266-0.81709c-1.6635-2.127 1.9529-4.594 3.8239-2.6086 0.72452 0.76882 0.80001 1.2484 0.32362 2.0559-0.79536 1.348-3.2678 1.6775-4.1475 0.55268zm-103.56-1.0258c-0.58014-0.99609 0.26154-2.9446 1.444-3.3429 1.2995-0.43766 3.4319 0.63558 3.4319 1.7273 0 1.8828-3.9566 3.1938-4.8758 1.6156zm51.692 0.20821c-1.663-1.7647 1.4381-4.4895 3.6681-3.223 1.2826 0.72839 1.3127 0.87143 0.51556 2.4519-0.57952 1.149-3.3469 1.6591-4.1837 0.77109zm45.845-0.96316c-0.44359-0.75279-0.97533-3.2442-1.1816-5.5365-0.38928-4.3253 0.092-5.8693 1.8293-5.8693 1.2752 0 7.0115 4.1853 7.0115 5.1157 0 0.81292-3.7536 6.3912-4.8404 7.1933-1.0735 0.79231-1.9934 0.49758-2.8188-0.90315zm-145.02 0.35485c-0.70341-0.74643-0.39203-3.695 0.47041-4.4545 1.8551-1.6338 3.3182 0.91339 2.239 3.8978-0.35062 0.96959-2.0008 1.3086-2.7094 0.55668zm41.793-1.1587c-0.49546-0.52576-0.90082-1.8563-0.90082-2.9567s-0.16049-3.2433-0.35665-4.7619c-0.31189-2.4147-0.20165-2.8492 0.87855-3.4626 1.0532-0.59811 1.7393-0.37651 4.656 1.5037 1.8815 1.2128 3.4209 2.5284 3.4209 2.9234 0 0.85583-3.7312 6.5355-4.7402 7.2157-1.0792 0.72748-1.9679 0.5888-2.9578-0.4616zm51.356-0.10863c-0.28781-0.5855-0.70399-3.165-0.92483-5.7321-0.37391-4.3467-0.31871-4.7146 0.80286-5.3516 1.008-0.57243 1.7128-0.35683 4.3213 1.3219 3.6123 2.3246 4.089 3.1684 2.8885 5.1127-3.1107 5.0379-5.9736 6.9158-7.0878 4.6492zm-105.3-1.6216c-0.90138-1.4598-0.90364-1.6805-0.031621-3.0928 1.0522-1.704 1.5189-1.8507 2.5177-0.79081 1.0291 1.092 0.8305 3.2027-0.41376 4.3976-1.0548 1.013-1.1429 0.99114-2.0723-0.51403zm37.292 0.26435c-0.84115-0.9863-0.8966-1.373-0.30528-2.1291 1.4353-1.8352 4.595-0.75834 4.595 1.566 0 1.9786-2.7722 2.3425-4.2897 0.56314zm52.771 0.2493c-1.0812-1.1473-1.1195-1.6103-0.21292-2.5723 1.515-1.6077 4.4714-0.4441 4.4714 1.7599 0 1.8321-2.7951 2.3653-4.2585 0.81244zm51.101 0.57921c-0.85339-0.90558-0.39429-3.1962 0.71552-3.57 1.6791-0.56551 3.5644 0.73635 3.3526 2.315-0.13157 0.98077-0.6327 1.3748-1.9185 1.5085-0.9572 0.09951-1.9246-0.01456-2.1497-0.25346zm51.298-0.35326c-0.95767-1.0162-0.85965-2.8881 0.17327-3.3088 1.3016-0.53001 3.5523 0.25081 3.9581 1.3732 0.76638 2.1193-2.5112 3.6548-4.1314 1.9356zm-25.529-0.89219c-1.4851-1.5759 0.8275-4.0394 3.1793-3.3868 1.2811 0.3555 1.3691 2.9135 0.11781 3.4231-1.1973 0.48754-2.8203 0.46967-3.2971-0.03631zm-103.35-1.6847c-0.65254-1.8045 0.22861-2.8658 2.211-2.663 1.5613 0.15967 1.867 0.43993 1.867 1.7117s-0.30568 1.552-1.867 1.7117c-1.2858 0.1315-1.9741-0.10519-2.211-0.76039zm51.003-0.0466c-0.49288-1.363 0.85804-2.7297 2.6981-2.7297 1.8791 0 2.4764 0.7401 1.9684 2.4387-0.45239 1.5125-4.1416 1.7426-4.6665 0.29097zm-105.71-1.291c-0.81821-2.2837 0.70311-4.7916 2.342-3.8608 1.3592 0.77192 1.4799 3.1773 0.22611 4.5078-1.2748 1.3528-1.9089 1.193-2.5681-0.64697zm-4.5278-0.48942c-0.37668-0.48163-0.60173-1.645-0.50013-2.5853 0.14758-1.3658 0.47296-1.7096 1.6179-1.7096s1.4703 0.34384 1.6179 1.7096c0.17547 1.6239-0.68331 3.461-1.6179 3.461-0.23808 0-0.74106-0.39406-1.1177-0.87568zm29.322-0.4626c-1.0909-1.1577-0.80704-2.2801 0.76953-3.0423 1.2472-0.60301 1.6332-0.51816 2.6758 0.58818 1.0179 1.0801 1.0967 1.4484 0.47876 2.2385-0.87956 1.1246-2.9598 1.2389-3.9241 0.21566zm52.739 0c-1.0045-1.066-0.84255-2.181 0.42108-2.8986 1.5294-0.86856 4.0503 0.20413 4.0503 1.7235 0 1.8209-3.0961 2.6345-4.4714 1.1751zm50.911-0.17475c-1.0753-1.3749-0.26387-2.7452 1.6255-2.7452 1.8852 0 3.2479 1.3527 2.75 2.7297-0.43074 1.1912-3.4476 1.2019-4.3755 0.01549zm51.365-0.02536c-1.7483-1.8552 0.72662-4.0606 3.0659-2.7321 1.3869 0.78762 1.5443 2.7705 0.26139 3.2929-1.4535 0.59188-2.3898 0.43407-3.3273-0.56083zm-22.9-1.3004c-0.76117-0.80772-0.35729-2.6073 0.72281-3.2207 2.0538-1.1664 4.4072 0.57336 3.4209 2.529-0.54224 1.0752-3.3419 1.5426-4.1437 0.69178zm-102.6-0.904c-1.4851-0.8819-1.2083-2.8619 0.46218-3.3068 2.0443-0.54447 3.2673 0.12011 3.0511 1.6579-0.21814 1.5514-2.1503 2.4582-3.5133 1.6489zm51.77 0.2171c-2.5573-0.91183-1.4565-3.9437 1.3279-3.6575 1.4917 0.15334 1.825 0.45261 1.825 1.6387 0 1.5352-1.6129 2.5679-3.1529 2.0188zm46.456-2.8324c-1.2767-1.6324-0.48187-3.0708 1.6969-3.0708 1.5122 0 2.042 0.28274 2.2042 1.1764 0.21334 1.1756-1.246 2.7776-2.5302 2.7776-0.37408 0-0.99098-0.39746-1.3709-0.88325zm-103.07-0.73625c-0.39411-0.16875-0.71656-0.96315-0.71656-1.7653 0-1.0481 0.40294-1.5658 1.4319-1.8398 1.9427-0.51742 3.1542 0.07186 3.1542 1.5343 0 1.7336-2.0699 2.8414-3.8695 2.0709zm51.228-0.5272c-1.66-1.7616 0.51395-3.8908 3.0876-3.024 1.4618 0.49234 1.4846 2.5026 0.0376 3.3243-1.4997 0.8517-2.0934 0.79464-3.1253-0.30036z" fill="#afe9af" stroke-width=".59052"/>
</svg>
