<svg width="174.61mm" height="211.64mm" version="1.1" viewBox="0 0 174.61 211.64" xmlns="http://www.w3.org/2000/svg">
 <g transform="translate(-176.27 -23.044)">
  <path d="m251.67 234.15c-4.9296-1.2805-8.7299-4.3219-10.972-8.781-1.6112-3.2042-1.6908-4.0718-1.8249-19.911-0.12668-14.955-0.31535-18.005-1.5058-24.342-2.5656-13.658-8.3014-26.709-16.69-37.976-2.8992-3.8941-3.8774-5.4481-5.6201-8.9292-8.6074-17.194-7.4718-38.003 2.9344-53.769 8.1233-12.307 19.861-20.454 34.102-23.668 7.4639-1.6847 17.221-1.5439 24.61 0.35508 12.767 3.2808 23.542 10.666 31.247 21.415 4.5664 6.3707 7.8755 14.498 9.2428 22.7 0.66734 4.0031 0.67341 13.692 0.0108 17.298-1.6921 9.2085-4.7168 16.191-10.549 24.351-8.5243 11.928-13.345 22.281-16.196 34.783-1.6963 7.4394-1.809 8.9279-2.0139 26.591-0.20832 17.958-0.17246 17.574-1.9769 21.148-2.2987 4.5531-6.379 7.7106-11.436 8.8498-1.576 0.35503-3.583 0.42647-11.642 0.41441-8.7664-0.0131-9.9352-0.066-11.722-0.53004zm21.417-6.5964c1.4408-0.27325 3.89-1.2422 3.6774-1.4548-0.0675-0.0675-6.426-0.83971-14.13-1.716-7.704-0.87626-14.335-1.65-14.735-1.7195-0.40018-0.0695-0.7276-0.0198-0.7276 0.11036s0.58444 0.87612 1.2988 1.6577c1.4039 1.5361 3.4561 2.7281 5.329 3.0953 1.6478 0.32306 17.608 0.34535 19.287 0.0269zm8.2163-9.5044c0-1.2975-2e-3 -1.2999-0.99218-1.4567-1.7187-0.27203-33.161-3.8582-33.827-3.8582-0.58581 0-0.63517 0.1028-0.63517 1.3229 0 0.72761 0.0298 1.3343 0.0661 1.3482 0.29031 0.11119 33.396 3.8948 34.264 3.916l1.1245 0.0274zm0-12.062v-3.5719h-35.454v1.5875c0 0.87313 0.0893 1.5945 0.19844 1.6031 0.10914 9e-3 7.5803 0.8867 16.603 1.9514 9.0223 1.0647 16.91 1.9506 17.529 1.9688l1.1245 0.033zm0.10861-13.428c0.67656-11.398 2.663-20.527 6.6926-30.758 2.9599-7.5152 6.7917-14.358 12.742-22.754 4.7059-6.6402 7.0816-11.501 8.6157-17.627 4.4998-17.971-1.7008-36.657-16.03-48.303-9.0009-7.3162-19.89-10.995-31.312-10.58-9.0301 0.32879-16.65 2.7096-24.068 7.52-23.264 15.085-28.872 45.98-12.37 68.146 6.7775 9.104 11.605 18.209 14.996 28.284 3.0437 9.0427 4.1406 14.896 5.0596 26.998l0.1557 2.0505h35.341zm-33.366-25.058c-1.0865-0.66247-1.5243-1.3502-2.2937-3.6031-1.1183-3.2744-3.3805-8.6365-5.0791-12.039-3.0185-6.0463-5.284-9.7325-10.085-16.409-2.8317-3.9377-4.5827-7.0107-4.5827-8.0425 0-1.8242 1.7485-3.5754 3.5678-3.5732 1.3536 2e-3 2.404 0.88516 3.6802 3.0952 0.65525 1.1347 2.3119 3.5962 3.6814 5.47 4.6004 6.2943 8.906 13.701 11.785 20.273 2.3166 5.2885 4.2732 10.676 4.2732 11.766 0 1.4314-0.66854 2.4901-1.9358 3.0654-1.4048 0.63782-1.9603 0.63721-3.0108-3e-3zm44.155-31.768c-1.068-0.65112-1.7348-2.1065-1.4946-3.2618 0.0952-0.45787 0.8066-1.785 1.5809-2.9492 0.77428-1.1642 1.9542-3.2158 2.6219-4.5592s1.4984-2.6288 1.8457-2.8564c2.3129-1.5155 5.4462 0.0972 5.4491 2.8046 2e-3 1.9867-4.7213 10.119-6.3734 10.974-1.0456 0.54072-2.6004 0.47574-3.6295-0.15171zm-68.234-17.18c-1.2941-0.78908-1.678-1.8263-1.9973-5.3975-0.35039-3.9181-0.17626-5.007 0.98668-6.1699 0.74573-0.74573 1.0668-0.87872 2.1211-0.87872 1.4963 0 2.607 0.60123 3.143 1.7012 0.23314 0.47852 0.5182 2.3622 0.69367 4.584 0.291 3.6844 0.2843 3.7958-0.28947 4.8167-0.39972 0.7112-0.91375 1.1757-1.609 1.4538-1.3466 0.53881-2.0251 0.5144-3.0486-0.10966zm76.233-2.0996c-1.6547-0.75152-1.9022-1.548-1.8995-6.1132 4e-3 -6.1683-1.1348-11.098-3.7483-16.231-1.7105-3.3596-3.3195-5.588-6.1557-8.5256-6.0837-6.301-13.536-9.7431-22.59-10.434-3.6658-0.2798-4.2881-0.51303-5.1528-1.9312-1.0647-1.7461-0.32573-4.0812 1.5388-4.8626 0.79382-0.33267 1.5546-0.37858 3.8968-0.23514 16.967 1.0391 31.652 12.334 37.011 28.467 1.6433 4.9471 2.477 10.825 2.1703 15.301-0.20504 2.9923-0.61326 3.881-2.0908 4.5519-1.3714 0.62263-1.6339 0.62375-2.9791 0.0128zm-111.15 38.867c-1.6852-1.1111-2.0988-3.3411-0.92097-4.9648 0.64311-0.88651 17.949-10.889 19.188-11.09 1.9316-0.31345 3.8635 1.3761 3.8656 3.3807 2e-3 1.4841-0.92909 2.5724-3.4403 4.0231-14.123 8.1585-15.639 8.9823-16.728 9.0899-0.83617 0.0826-1.3464-0.0314-1.964-0.43865zm139.59-3.3381c-3.699-2.1263-7.7498-4.4515-9.0018-5.1671-2.9196-1.6688-3.4587-2.2467-3.5974-3.8567-0.1936-2.2472 1.6495-4.0399 3.7956-3.6916 1.1174 0.18132 18.307 10.066 19.056 10.959 1.8328 2.1821 0.14873 5.6228-2.7521 5.6228-0.51485 0-3.0332-1.298-7.5006-3.866zm-151.35-39.23c-0.86456-0.86456-1.0272-1.2018-1.0272-2.1298 0-1.3474 0.52424-2.4209 1.5078-3.0876 0.69062-0.46807 1.4354-0.5078 10.928-0.58293 5.6026-0.0443 10.57-0.01 11.039 0.0767 1.221 0.2254 2.3978 1.3219 2.7258 2.5399 0.23439 0.87044 0.19545 1.2346-0.2364 2.2108-0.90162 2.0383-0.65316 2.0001-13.017 2.0001h-10.892zm148.83 0.52528c-1.1524-0.70271-1.7938-2.3769-1.4293-3.7305 0.32202-1.1959 1.509-2.2948 2.72-2.5184 0.46866-0.0865 5.436-0.12102 11.039-0.0767 10.041 0.0795 10.198 0.089 11.011 0.66907 1.7753 1.2664 1.8963 3.793 0.25359 5.2984l-0.93848 0.86006-10.918-1e-3c-10.239-1e-3 -10.969-0.0321-11.738-0.50094zm-119.43-31.808c-0.3638-0.14392-4.6319-2.5451-9.4847-5.3361-7.871-4.5268-8.8775-5.1809-9.3266-6.061-0.60301-1.182-0.62767-1.7855-0.12239-2.9948 0.4837-1.1577 1.8147-1.9794 3.2083-1.9807 0.91625-7.94e-4 2.3672 0.74634 9.7896 5.0414 4.7926 2.7733 9.0578 5.3816 9.478 5.7963 0.58094 0.57319 0.79057 1.061 0.87462 2.0352 0.13582 1.5744-0.48884 2.7091-1.8459 3.353-1.045 0.49588-1.6071 0.52794-2.5709 0.14663zm111.16-0.14424c-1.1745-0.59562-1.882-1.7987-1.8832-3.2025-7.9e-4 -0.9098 0.16558-1.3055 0.85891-2.0429 0.49968-0.53144 4.5102-3.0236 9.5738-5.9492 7.5068-4.3373 8.8667-5.0347 9.8166-5.0347 3.1264 0 4.6229 3.6711 2.385 5.8506-1.0424 1.0152-17.932 10.555-18.945 10.701-0.57098 0.08204-1.2466-0.0385-1.8061-0.32224zm-88.765-24.233c-1.0293-1.0556-10.679-17.769-10.902-18.881-0.37844-1.8922 1.3601-3.8046 3.4588-3.8046 1.8432 0 2.4394 0.61598 5.1437 5.315 1.3738 2.3872 3.7253 6.4731 5.2255 9.0798 2.1947 3.8134 2.7276 4.9428 2.7276 5.78 0 2.0438-1.4068 3.3712-3.573 3.3712-1.0533 0-1.37-0.13087-2.0808-0.8599zm64.858 0.44572c-0.92853-0.50382-1.5247-1.6645-1.5247-2.9686 0-1.0431 0.20146-1.4177 8.4822-15.773 2.1317-3.6954 2.8526-4.3894 4.5616-4.3911 2.0307-2e-3 3.4485 1.3668 3.4485 3.3292 0 0.94142-0.7114 2.3353-5.0005 9.7977-2.7503 4.7851-5.3776 9.0871-5.8385 9.5601-0.72258 0.74147-1.0147 0.85844-2.1212 0.8493-0.70577-0.0058-1.6092-0.18744-2.0075-0.40358zm-31.846-8.4302c-0.45104-0.19635-1.0761-0.77129-1.3891-1.2776-0.55773-0.90243-0.56899-1.1326-0.56899-11.632v-10.711l0.60394-0.89902c0.38831-0.57804 1.0023-1.0378 1.7198-1.2877 0.98146-0.3419 1.2502-0.3419 2.2317 0 0.71745 0.24993 1.3315 0.7097 1.7198 1.2877l0.60394 0.89902v10.711c0 10.503-0.0111 10.729-0.56951 11.633-0.91655 1.483-2.6856 2.0021-4.3516 1.2768z" fill="#fc0" stroke-width=".26458"/>
 </g>
</svg>
