<svg width="282.87mm" height="297.49mm" version="1.1" viewBox="0 0 282.87 297.49" xmlns="http://www.w3.org/2000/svg">
 <g transform="translate(-63.338 77.36)" stroke-width="0">
  <path transform="matrix(.26458 0 0 .26458 176.27 23.044)" d="m-69.298-379.4c-55.915 2.7728-114.16-5.3012-168.36 11.496-51.951 21.462-84.465 78.626-78.837 134.34-0.2081 25.083-0.5143 50.277-0.4676 75.291 16.596-5.0265 53.197 10.051 57.393-7.4672 3.2852-41.318-7.923-86.845 10.92-125.36 23.571-38.24 74.077-30.03 112.24-32.214 83.498-0.40692 166.99 0.7776 250.49 1.1366 3.3125 81.873-1.696 164.5 8.2513 245.89 23.819 68.077 94.902 113.06 166.3 111.35 61.473 2.9724 123.05 1.4709 184.57 1.8848 0.0679 47.868-0.13436 95.848 0.10071 143.65 17.251-4.9176 54.161 9.9204 59.033-7.4672-0.0193-66.512 0.0383-133.04-0.0288-199.54-114.8-117.63-229.59-235.3-344.25-353.05-85.784 0.0183-171.57-0.0524-257.35 0.0719zm247.92 73.917c88.976 84.335 172.94 174.24 257.98 262.63 3.7581 4.6118 18.683 17.296 3.0796 15.105-63.246 1.3561-127.03 3.6383-190.01-2.0646-44.66-14.082-79.838-58.709-74.01-106.85 0.31286-55.88-3.1838-114.14 2.9639-168.82z" style="paint-order:stroke fill markers"/>
  <path transform="matrix(.26458 0 0 .26458 176.27 23.044)" d="m-288.22 217.97c-31.323-8.371-31.798 13.203-28.757 38.012 0.76417 100.9-3.3145 202.09 3.0464 302.8 9.6724 62.342 69.649 114.06 133.92 105.77 147.64 1.3379 295.4 4.0024 443 0.33706 8.1006 0.1316 34.394-1.9081 22.466-15.344-13.33-11.783-23.532-30.898-38.825-38.072-149.18-1.85-298.5 1.2272-447.58-4.2497-13.517 0.72649-28.905-12.548-39.645-11.503 4.695-10.909-12.75-17.592-13.46-28.797-10.094-52.182-3.2812-106.48-5.4994-159.46-0.0959-63.504 0.13887-127.13-0.11897-190.56-9.5151 0.35729-19.03 0.71459-28.545 1.0719z" style="paint-order:stroke fill markers"/>
  <g fill="#f55">
   <path transform="matrix(.26458 0 0 .26458 176.27 23.044)" d="m-341.8-121.66c-21.271 0.0666-42.549 0.0709-63.808 0.78772-5.0908 2.9077-12.523 5.6249-13.309 12.266-2.1566 1.6083-6.1205 1.7408-5.4601 5.5231-3.5562 55.954-2.0906 112.06-2.3469 168.09 0.35651 32.885-0.16501 65.83 1.3938 98.673 3.5787 5.9 8.8786 11.296 14.872 14.386 3.9067 3.2159 9.8885 0.65044 14.501 1.1978 34.978-2.3888 70.1-0.31434 105.05-2.757 9.246 2.4644 19.245 1.5784 28.838 1.9064 20.208 0.58895 40.421-0.0162 60.536-1.8776 9.2739 2.2181 19.148 0.71884 28.686 0.6717 31.442-0.67909 62.908 0.46933 94.363 0.0871 19.098 0.13023 38.276-0.26457 57.315-0.52142 22.268 2.2952 44.84 1.3232 67.151 3.5736 6.5775 0.80429 13.824-0.73995 17.528-6.773 1.6911-2.6506 6.1954-2.1885 6.4259-5.9493 2.0576-3.4246 5.5905-6.3396 4.5177-10.868 1.227-85.027 0.46914-170.08 0.7014-255.11-3.0838-8.4824-9.3414-18.548-19.616-17.99 0.65207-0.718 1.9323-3.372-0.38487-3.8199-17.223-2.4741-34.829-0.98239-52.197-1.4737-114.92 0.62735-229.84-0.19773-344.76-0.0262zm-8.1075 50.028c19.711 0.9366 39.993-0.50973 59.173 4.8037 3.9496 1.7115 7.9882 3.5422 11.96 4.9835 1.2741 2.1405 2.4775 5.0599 5.6184 3.543 1.7551 0.46781 0.11645 3.6488 2.0754 4.6652 4.5243 4.1213 7.2812 9.4898 9.647 15.026 2.509 2.0052 4.1175 4.8197 4.2696 8.1776 1.7945 15.346 3.1558 31.162 0.56831 46.471-0.82238 4.2475-2.7746 8.1466-5.2929 11.489-0.32693 4.515-2.9088 8.7534-5.4565 12.053 0.83043 2.5613-1.2733 3.8569-3.6707 3.5987-4.1064 1.3668-6.1267 5.8749-10.325 7.3485-4.9106 3.8845-11.13 4.6638-16.92 6.1471-0.78347 1.0756 0.3656 3.7615-2.0197 3.507-12.955 1.0448-26.179-0.72422-38.998 1.3417-2.5411 2.8999-0.68364 8.0271-1.578 11.555-0.98913 17.56 0.87423 35.406-1.8948 52.795-1.9788 7.072-10.642 8.1123-16.789 6.978-9.2817-1.2467-18.846-0.59214-28.027-1.9226-4.6056-2.4216-8.4278-7.4374-9.1938-12.557 2.3306-26.912 1.2149-54.032 1.7338-81.028 0.44429-33.199-0.49982-66.464 1.1185-99.621 0.94043-5.505 5.6382-11.733 11.813-9.9082 10.729 0.1842 21.459 0.36841 32.188 0.55261zm142.18-0.28416c13.405 0.44646 27.111-0.81644 40.167 2.7445 7.3548 1.1603 15.169 0.22217 22.326 1.4244 2.928 5.7613 9.911 8.5331 15.915 9.8358 3.0182 0.17484 4.8932 3.1665 8.255 2.8488 3.8949-0.02602 8.4297 2.9064 6.6597 7.219 0.19139 3.7293 5.7599 5.3485 3.8549 9.6405-1.5871 5.3063 3.5717 9.0003 4.2958 13.993-0.13306 3.9662 3.3438 5.9841 4.944 9.1524 1.0364 10.713 5.1583 21.04 4.7318 31.982 0.53894 18.797-2.005 37.486-4.8199 55.977-1.5767 3.3235-4.9911 5.8746-4.8307 10.017-1.8492 6.9609-5.2238 13.646-9.2657 19.567-2.6922 1.712-2.8952 5.5587-5.7551 6.6291-6.9756 5.2043-11.985 14.107-21.477 14.898-10.671 3.1435-20.724 9.5187-32.237 7.9079-20.258-0.13188-40.611 0.54839-60.816-0.19149-5.0265-0.0787-8.2061-4.9412-7.5137-9.7036-0.87369-35.876-1.0301-71.807-0.9348-107.7-0.19508-12.857 1.7081-25.883 0.0384-38.653-2.3365-4.0785-5.2248-9.3629-1.2463-13.445 3.7508-9.381-1.2149-20.595 3.8757-29.547 6.2962-5.9321 16.153-3.8561 24.029-4.6185 3.2684-0.02141 6.5368 0.01058 9.8052 0.02158zm195.96 0.13488c15.423 0.16304 30.934-0.19131 46.23 1.4388 4.9269-0.56699 10.972-1.0299 13.559 4.2444 3.4021 8.042 0.75 17.305 1.0139 25.767 0.27373 5.1554-2.8296 10.614-8.4577 10.828-19.943 2.1308-40.26-0.26099-60.184 1.5934-1.7137 2.3449-1.4368 5.9628-4.3271 7.6992-3.1734 5.0804-0.79081 11.843-1.5055 17.495 0.50544 3.7201-0.69967 8.8109 1.6782 11.793-1.8362 0.92451 2.0274 2.1476 2.8344 1.7175 16.164 1.1579 32.601 0.43222 48.647 1.9064 1.0832-0.69623-0.11976-4.3865 1.0161-3.7606 0.6242 1.9997 0.53517 4.6202 2.1725 5.854 0.97429 9.4786 1.6817 19.455 0.67802 28.946-1.8143 3.8686-0.41005 9.871-4.3433 12.672-13.68-2.2363-27.918-1.0884-41.787-0.80211-6.0689-0.9313-6.4565 6.7544-7.7082 10.775-2.7548 15.548-4.8582 31.807-1.7859 47.447 1.8636 4.3638 1.9843 9.9093-2.4369 12.812-3.1302 6.1524-11.362 4.1673-17.02 4.9599-10.903-0.0872-22.066 1.3449-32.83-0.49967-3.3244-2.6856-1.1855-8.2955-2.0736-11.971-0.34592-59.539-0.5456-119.09 0.02569-178.63-1.058-5.8303 3.3746-12.094 9.5745-11.687 18.997-0.73032 38.023-0.57705 57.031-0.60069zm45.794 88.454c3.0602 0.34811-0.38242 2.9847-0.87046 0.41544 0.09939-0.35186 0.56325-0.411 0.87046-0.41544z" style="paint-order:stroke fill markers"/>
   <g>
    <path transform="matrix(.26458 0 0 .26458 176.27 23.044)" d="m-185.34-29.167c-5.5392 0.75361-3.8696 8.4619-4.5123 12.33-0.47242 34.708-0.99356 69.472-0.0504 104.16 3.7073 1.8999 7.832-0.39754 11.472-1.2517 5.9026 1.2544 10.727-4.1419 14.643-7.782 1.6231-1.4815-0.81084-2.1965-1.4963-2.1887 2.383-1.645 7.1488 0.4396 7.5428-3.5897 3.4292-12.799 7.0472-25.741 6.0662-39.151-0.40396-12.521 1.1846-25.632-4.1401-37.39-1.5803-3.778-0.0166-9.6823-5.3019-10.922-2.8412-0.55132-4.2864-2.7728-4.6005-5.3882-4.4988-5.791-12.512-8.5101-19.623-8.8233zm7.5176 9.2675c2.476 0.63579 1.3601 6.1316-0.94059 3.0952-1.5508-1.0103-1.0215-3.3255 0.94059-3.0952z" style="paint-order:stroke fill markers"/>
    <path transform="matrix(.26458 0 0 .26458 176.27 23.044)" d="m-325.03-30.101c-4.398 1.7037-9.0061 2.4028-13.74 1.8398-3.8365 1.1085-1.404 7.0378-2.3542 9.8016 0.0982 11.5-0.68175 23.261 0.80571 34.62 6.4568 1.8636 13.811 0.86256 20.193-1.0701 1.9207-0.45514 2.9787-2.4783 3.8253-3.507 3.4624-0.88758 4.7621-5.7988 6.14-8.7981 1.3449-9.0009 0.84519-19.329-4.2821-27.117-2.0019-2.2568-6.2107-1.6887-6.9313-4.9853-1.0081-0.81019-2.422-0.8746-3.6563-0.78413z" style="paint-order:stroke fill markers"/>
    <path transform="matrix(.26458 0 0 .26458 176.27 23.044)" d="m320.35 216.07c-8.4889 9.2463-24.813 15.023-19.653 30.465-0.42514 87.446-0.85385 174.89-1.2845 262.34-25.309 0.83306-51.832-4.0922-76.567 1.3785-8.0051 10.671 6.1308 23.343 12.91 30.867 9.8526 6.0871 11.716 18.156 20.642 24.493 3.6999 1.2218 5.7569-0.59085 6.2924 4.6239 7.7338 11.772 18.071 23.891 29.621 30.785 12.151 20.398 31.683 36.867 48.869 53.442 2.0948 4.1584 7.8305 0.62955 5.1326 5.5955 3.6784 9.2082 13.325 19.168 23.303 18.44-2.4596 15.996 16.838 24.95 24.597 36.648 11.219 9.2582 18.677 26.646 33.866 29.725 16.154-9.6378 32.682-22.662 42.149-38.996 3.799-5.2676 10.511-8.4396 12.498-15.52 3.4054-3.5787 9.0308-2.7067 10.301-8.4696 7.8141-9.1578 17.314-17.95 23.44-27.855 10.524-3.2919 12.466-17.705 21.95-23.16 2.5784-3.3108 1.2933-8.6394 6.6281-7.7574 8.3998-5.5703 15.017-14.502 17.992-23.45 7.4078 0.0608 8.4952-9.3124 15.886-9.4513 16.993-24.61 41.849-43.528 57.969-68.586 1.55-3.305 8.8954-7.5476 3.4336-11.959-27.138-4.437-55.214-1.6374-82.681-3.2047-6.1558-39.978-2.3727-81.038-4.0339-121.42-0.22792-51.919-0.22591-103.86-0.45273-155.76-10.337-14.235-25.695-14.747-41.783-13.21-63.675-1e-3 -127.35 2e-3 -191.03 5e-3z" style="paint-order:stroke fill markers"/>
   </g>
  </g>
 </g>
</svg>
