<?xml version="1.0" encoding="UTF-8"?>
<!-- Created with Inkscape (http://www.inkscape.org/) -->
<svg width="148.49mm" height="129.37mm" version="1.1" viewBox="0 0 148.49 129.37" xmlns="http://www.w3.org/2000/svg">
 <g transform="translate(-61.576 -77.701)">
  <path d="m120.79 207.04c-0.16244-0.024-0.51382-0.10719-0.78085-0.18495-0.30082-0.0876-0.9293-0.14136-1.6522-0.14136-0.8078 0-1.274-0.0449-1.5157-0.14583-0.19197-0.0802-0.70563-0.16572-1.1415-0.19002-1.0025-0.0559-1.5608-0.32509-2.0716-0.99893-0.78505-1.0356-0.92676-2.374-0.42673-4.0306 0.66168-2.1921 1.4142-3.106 2.9122-3.5368 1.3823-0.39752 1.8057-1.0384 2.0693-3.1324 0.19169-1.5229-0.0604-3.303-0.88053-6.2168-0.24319-0.86406-0.46074-1.4433-0.59099-1.5736-0.19483-0.19483-0.37476-0.21259-3.2816-0.32397-2.7436-0.10514-3.7865-0.17649-5.6873-0.3891-0.83571-0.0935-0.83849-0.0843-0.59503 1.9652 0.24625 2.073 0.27044 4.4265 0.057 5.5422-0.19841 1.037-0.38326 1.5753-0.94978 2.766-0.48316 1.0154-0.9674 2.3797-1.8088 5.0961-0.58088 1.8753-1.0119 2.7903-1.4838 3.1503-0.939 0.71621-2.9804 1.056-5.047 0.84009-1.9319-0.20185-2.9337-0.23211-3.4421-0.10396-0.71899 0.18122-1.5126 0.13405-2.5548-0.15186-0.66319-0.18193-1.2467-0.27023-1.8952-0.28681-0.74792-0.0191-1.0255-0.0691-1.3754-0.2476-0.26535-0.13537-0.69206-0.24314-1.0812-0.27305-0.35355-0.0272-0.79787-0.128-0.98738-0.22403-1.348-0.68308-1.8366-2.8429-1.0205-4.511 0.42066-0.85979 1.3584-2.1985 1.8853-2.6913 0.58448-0.54671 1.1509-0.84864 1.9351-1.0316 0.32194-0.0751 0.78463-0.26855 1.0282-0.42989 0.66438-0.44007 1.1157-0.53522 1.9084-0.40242 1.3776 0.23077 1.4366 0.20128 1.9888-0.99387 0.51884-1.123 0.74019-2.1785 0.73848-3.5216-0.0022-1.7747-0.30314-2.9092-1.6449-6.2023-1.0434-2.5608-1.2657-3.2611-1.6563-5.2178-0.62983-3.1553-1.3526-5.3394-3.3785-10.209-0.40114-0.9642-1.1619-2.4652-1.9972-3.9405-1.3352-2.3582-1.7695-3.4576-2.2079-5.5896-0.42787-2.0808-0.54242-3.0116-0.59972-4.8732-0.11413-3.7078 0.44257-6.286 2.4977-11.568 1.4831-3.8116 2.5772-8.1978 3.3397-13.389 0.22055-1.5015 0.27572-2.2298 0.27964-3.6918 0.0045-1.6979-0.01045-1.8546-0.22142-2.3123-0.27712-0.60124-0.56058-0.91962-0.97652-1.0969-0.41866-0.17838-1.8939-0.17462-2.7575 7e-3 -0.37133 0.0781-1.2492 0.2352-1.9508 0.3491-0.70162 0.11389-1.7408 0.29919-2.3094 0.41177-0.85385 0.16908-1.2221 0.19293-2.1167 0.13708-0.59562-0.0372-2.3012-0.1042-3.7903-0.14892-2.266-0.068-2.8357-0.11529-3.4949-0.28981-0.9439-0.24989-2.3289-0.90081-3.3162-1.5586-0.39614-0.26392-1.4098-0.89164-2.2526-1.3949-2.3912-1.428-3.3621-2.3288-4.2026-3.8992-0.35191-0.65751-0.36884-0.73207-0.36884-1.6244 0-0.8805 0.01998-0.97214 0.34138-1.565 0.43047-0.79411 1.3014-1.6875 2.809-2.8815 1.1972-0.94819 1.6129-1.3791 3.5454-3.6755 2.0412-2.4256 3.4202-3.777 4.8432-4.7464 1.0453-0.71213 1.1586-0.93317 1.0688-2.0858-0.08159-1.047 0.13022-1.8301 0.7026-2.5977 0.94418-1.2661 1.2116-2.0269 1.2089-3.4392-0.0011-0.55671-0.04915-1.3223-0.10684-1.7014-0.15037-0.98792-0.12701-2.9263 0.04586-3.8051 0.24626-1.252 0.76256-2.0488 1.502-2.3182 0.1561-0.0569 0.54213-0.17882 0.85786-0.27102 0.47162-0.13774 0.83881-0.38146 2.0581-1.3661 2.6737-2.1592 3.4995-2.7909 4.6253-3.5387 2.1863-1.4522 4.3322-2.3359 6.2585-2.5774 1.4842-0.18611 4.7515-0.30079 8.4382-0.29617 2.8839 4e-3 3.2359 0.0225 4.1618 0.22385 2.3302 0.50662 5.2232 1.6809 7.3827 2.9966 0.80055 0.48776 0.82332 0.49476 1.4275 0.4387 2.3414-0.21724 6.3881 1.9776 7.7308 4.1931 0.17579 0.29004 0.60492 1.1808 0.95363 1.9795 1.6223 3.7156 3.8054 6.8374 8.2965 11.864 0.76889 0.86052 1.2202 1.4634 1.4767 1.9727 0.36941 0.73342 0.36944 0.73357 0.36528 1.969-3e-3 0.97582-0.0509 1.401-0.2267 2.0231-0.37113 1.3135-1.0612 2.9262-2.3851 5.5746-1.383 2.7666-1.5726 3.1941-2.2208 5.0086-1.7867 5.0016-3.0822 7.7116-3.885 8.1267-0.60854 0.31469-0.99121-0.0435-2.161-2.0229-1.4516-2.4562-1.7169-2.715-2.0437-1.9936-0.24114 0.53225-0.231 5.3321 0.015 7.0887 0.31323 2.2369 0.85911 3.6633 1.6001 4.181 0.21097 0.1474 0.9152 0.42693 1.565 0.62118 2.4318 0.727 4.1512 1.5124 5.8879 2.6897 0.53101 0.35994 1.1069 0.72848 1.2798 0.81896 0.20026 0.10482 1.297 0.29339 3.0217 0.51959 1.489 0.19528 3.3719 0.46241 4.1841 0.59361 2.7512 0.44444 4.1276 0.55799 7.437 0.61353 5.6675 0.0951 10.991-0.3715 19.341-1.6951 5.7828-0.91674 8.3336-1.125 11.538-0.94218 3.331 0.19008 4.5785 0.41019 6.6126 1.1668l1.2274 0.45652 1.2881-0.22168c4.4402-0.76416 8.6696-2.3439 11.724-4.379 3.3593-2.2385 5.3223-4.3742 6.9289-7.5386 1.2763-2.5137 1.986-5.0395 2.3351-8.3098 0.18986-1.779 0.1407-4.3961-0.11689-6.2218-0.0917-0.64977-0.17154-1.8459-0.17748-2.6581-0.01-1.3573 8e-3 -1.5142 0.21732-1.9398 0.26125-0.53042 0.48242-0.641 0.87549-0.43773 0.8065 0.41706 2.1253 3.2027 2.6864 5.6745 0.71795 3.1624 0.92534 5.209 0.86201 8.5065-0.0532 2.7702-0.23752 4.2586-0.81212 6.5573-1.8901 7.5615-6.6218 12.739-13.34 14.598-1.3966 0.38634-2.3197 0.54774-4.3215 0.75559-2.0805 0.21601-2.2691 0.29423-1.8725 0.77646 1.2269 1.4918 1.605 1.9927 2.2786 3.0184 0.90418 1.3769 2.0083 3.521 2.7123 5.267 1.4367 3.5632 2.3397 6.8833 3.9628 14.57 0.73772 3.4937 1.0522 4.3197 2.3047 6.0546 1.3883 1.9228 1.7197 2.9694 2.6655 8.4174 0.87524 5.0413 1.545 8.0052 2.4161 10.692 0.53083 1.6374 0.85318 2.3359 1.357 2.9405 0.76087 0.91307 1.3918 2.3934 1.7405 4.084 0.18992 0.92072 0.11565 1.4552-0.28514 2.052-0.41385 0.61625-1.17 1.0036-2.1475 1.1001-0.49022 0.0484-0.89253 0.15997-1.2613 0.34975-0.58331 0.30019-0.98501 0.33204-3.1504 0.24978-0.57807-0.022-1.1045 0.0131-1.3783 0.0919-0.72179 0.20759-1.8243 0.16694-2.5597-0.0944-0.4371-0.15532-0.98315-0.24852-1.7229-0.29407-1.2665-0.078-1.6832-0.24774-2.2842-0.93055-0.66796-0.75885-0.75384-1.3923-0.41253-3.0429 0.30889-1.4938 0.85475-2.8456 1.4306-3.543 0.30081-0.36427 0.45801-0.9804 0.37847-1.4833-1.0396-6.5735-2.9286-11.61-5.5906-14.904-0.91436-1.1317-5.6541-5.2708-7.6492-6.6798-1.3755-0.9714-2.7681-1.8554-3.4112-2.1652-0.68276-0.32894-0.78042-0.34645-3.2488-0.58229-2.9561-0.28244-4.1532-0.30911-4.5547-0.10149-0.37352 0.19316-0.56064 0.62651-0.76255 1.766-0.36931 2.0843 0.14556 3.5092 2.405 6.6557 0.72093 1.004 0.96483 2.4969 0.66746 4.0856-0.15255 0.81509-0.42228 1.6659-1.5137 4.7748-0.21861 0.62269-1.0252 3.0372-1.7924 5.3655-0.76723 2.3283-1.5717 4.5975-1.7877 5.0426-0.67974 1.4008-1.8398 2.2926-3.4456 2.6486-0.81625 0.18099-2.6024 0.19171-7.9064 0.0475-3.5848-0.0975-4.0717-0.18394-4.8661-0.86394-0.57438-0.49164-0.78985-0.99392-0.79255-1.8475-4e-3 -1.4006 0.85646-3.5438 1.8145-4.5173 0.95949-0.97493 1.8983-1.2634 4.2155-1.2952 1.4722-0.0202 1.5653-0.0331 1.795-0.24888 0.13324-0.12517 0.27069-0.32027 0.30544-0.43353 0.0348-0.11327 0.34115-0.87047 0.68087-1.6827 1.4426-3.4487 1.8459-5.177 1.515-6.4914-0.16247-0.64521-0.56016-1.0446-2.1892-2.1986-1.7987-1.2742-2.9264-2.3543-3.5183-3.37-0.43896-0.7532-0.54755-0.88187-0.74647-0.88454-0.062-1e-3 -1.5904 0.98597-3.3965 2.1929-1.806 1.2069-3.9261 2.5664-4.7112 3.021-3.521 2.0389-7.4428 3.6084-11.583 4.6359-1.7613 0.43706-2.015 0.56688-2.1993 1.1254-0.24279 0.73567-0.37375 3.0425-0.38568 6.7934-0.0136 4.2773-0.0508 4.6836-0.70749 7.7282-0.74712 3.4639-1.0728 5.3379-1.0728 6.1726 0 0.60862-0.4527 1.3978-1.0189 1.7762-0.94522 0.63169-1.1187 0.65514-4.9865 0.67384-1.9222 9e-3 -3.6278-3e-3 -3.7903-0.0267zm-6.5847-35.226c1.3812-0.70137 3.731-2.8547 6.9419-6.3616 2.1984-2.401 3.0837-3.4802 4.1098-5.0097 1.9967-2.9763 2.7526-5.3567 2.6415-8.3189-0.21669-5.7803-3.9705-8.5879-9.0082-6.7377-3.0801 1.1312-5.9053 4.1622-7.5651 8.116-0.25004 0.59562-0.46997 1.1003-0.48874 1.1215-0.0664 0.075-0.42828-0.44173-0.83547-1.1927-0.7079-1.3056-2.379-3.1746-3.5822-4.0064-1.5386-1.0636-3.0597-1.5832-4.6348-1.5832-2.1311 0-3.6326 0.99634-4.6733 3.1011-0.52311 1.0579-0.69797 1.7622-0.75784 3.0522-0.03669 0.79024-0.0061 1.2996 0.11294 1.8834 0.6121 3.0011 2.8967 6.347 6.2158 9.1032 1.5856 1.3167 2.4871 1.9638 6.3931 4.589 2.937 1.974 3.9116 2.5814 4.1462 2.5843 0.1687 2e-3 0.61173-0.15113 0.98449-0.34041z" fill="#d45500" stroke-width=".098449"/>
  <g fill="#fc0" stroke="#fc0" stroke-linecap="round" stroke-linejoin="round">
   <path transform="matrix(.26458 0 0 .26458 61.921 77.701)" d="m540.97 143.99c-2.5013 34.387-28.545 63.83-61.68 72.277-13.695 5.9106-28.208 4.2092-42.16 0.43163-38.698-4.0764-76.66 9.1184-115.43 7.6003-28.958-0.22364-60.057 0.47017-85.479-15.466-11.137-6.7701-23.277-5.8354-35.5-2.945-40.859 24.375-69.372 14.569-100 16.084-7.6658 22.093-17.674 44.491-18.438 68.137 1.8516 33.213 24.288 60.296 30.786 92.427 4.3646 18.679 16.477 36.935 11.158 56.702 12.716 4.2033 25.216 14.421 38.948 13.147 11.245-10.749 5.6307-29.276 7.1831-43.192 12.309 2.2836 27.065-1.7296 37.969 5.0861 4.9233 11.191 4.45 24.03 3.4674 36.002 16.788 0.85993 34.116 4.18 50.612 3.7048 7.6684-16.83-0.16053-37.286 6.309-54.159 25.843-8.5608 51.233-19.13 73.514-35.154 8.7021-11.072 13.947 2.6424 21.019 7.9362 6.1708 5.8131 16.713 11.726 11.749 21.831-1.9575 4.472 11.72 3.5691 13.064 0.49491 3.1519-1.8679 9.1395 1.5218 10.19-2.4351 3.8328-0.0314 7.9508 1.3093 9.8304-1.8129 14.458 0.78224 12.153-18.697 6.1508-26.621-5.7825-7.7471-12.703-23.797-1.0827-29.207 17.859-2.2041 35.311 4.3985 48.001 16.978 12.959 9.5566 23.561 21.816 32.146 35.164 12.406 3.419 27.033 5.3543 39.519 1.5503 0.43608-25.045-17.763-45.399-21.144-69.842-5.7012-28.126-15.054-55.696-31.54-79.395 7.1432-3.9178 18.997-3.365 27.509-6.7982 29.594-9.357 45.913-40.375 48.236-69.799 0.54011-11.234 2.8097-24.787-3.5005-34.497-14.269-6.2547-8.6424 7.0495-11.402 15.773zm-313.51 109.14c17.781 2.2827 24.479 22.032 21.477 37.653-5.5031 26.617-28.78 44.335-47.354 62.263-7.9842 9.9997-17.896-3.1682-25.661-6.7447-21.405-14.63-49.025-33.809-45.605-63.417 2.7264-20.283 29.866-22.575 41.965-9.183 4.0982 6.0518 15.12 12.389 19.139 2.7552 7.6508-11.914 21.328-22.991 36.038-23.326z" stroke-width="6.2644" style="paint-order:stroke fill markers"/>
   <rect x="88.568" y="136.43" width="44.981" height="34.825" stroke-width=".9" style="paint-order:stroke fill markers"/>
  </g>
  <g fill="none" stroke="#fff" stroke-linecap="round">
   <path d="m112.22 132.31 7.58 12.748c1.3625 3.8558 3.256 7.8178 3.1009 11.37v9.6473l-0.34454 13.782v17.572" stroke-width="1.865"/>
   <path d="m116.01 131.45 6.0296 7.58c1.5505 1.6199 3.1009 5.5529 4.6514 14.299v15.332l-0.17228 29.631" stroke-width="2.065"/>
   <path d="m120.49 130.76 6.3741 8.4414c1.9669 5.4474 5.154 9.7855 3.79 18.261 1.2982 6.8776 1.6844 13.603 1.0336 20.156l-1.895 20.845" stroke-width="1.865"/>
  </g>
  <path d="m111.19 133.09 2.3472-1.1628s0.6245-0.62449 0.94751-0.66756c0.32301-0.0431 3.3378-0.51682 3.3378-0.51682s2.1319 0.0646 2.0027-0.0646c-0.1292-0.12921-0.23687-0.60296-0.23687-0.60296l-5.1682-0.7537-3.9192 2.1534z" fill="#d45500" stroke="#d45500" stroke-width=".26458px"/>
  <path d="m121.35 198.03 9.9057 0.77523-0.90444 2.0242-10.293-1.9812z" fill="#d45500" stroke="#d45500" stroke-width=".26458px"/>
  <g>
   <path d="m62.012 113.52 0.88317-1.5532c2.0491-0.35182 4.114-0.7773 5.4513 2.1927-1.1419 1.1274-0.57703 3.3461-6.3344 1.5227-0.14905-0.61641-0.60361-1.019 0-2.1622z" stroke="#000" stroke-width=".26458px"/>
   <circle cx="92.375" cy="96.583" r="1.5836" stroke="#d45500" stroke-linecap="round" stroke-linejoin="round" stroke-width="1.865" style="paint-order:stroke fill markers"/>
   <circle cx="78.609" cy="96.583" r="1.5836" stroke="#d45500" stroke-linecap="round" stroke-linejoin="round" stroke-width="1.865" style="paint-order:stroke fill markers"/>
  </g>
  <path d="m111.31 186.51c-19.619-17.107-14.131-32.529-14.032-50.868" fill="none" stroke="#fff" stroke-width="1.465"/>
  <path d="m110.76 186.91h1.1268l-0.0914-1.0354h-0.7918z" fill="#fff" stroke="#fff" stroke-width=".26458px"/>
  <g stroke-width="0">
   <path transform="matrix(.26458 0 0 .26458 61.576 77.701)" d="m97.221 226.61c-4.4648 13.057-10.184 26.027-12.289 39.68 4.1844 7.6104 12.675 12.033 18.739 18.122 7.6561 5.8496 14.347 13.614 23.171 17.606 5.3883-0.27879 1.2264-10.135 2.543-14.497 0.0855-22.819 2.1209-45.573 2.7516-68.37h-32.067c-0.94959 2.4867-1.8992 4.9734-2.8488 7.46z" fill="#87aade" style="paint-order:stroke fill markers"/>
   <path transform="matrix(.26458 0 0 .26458 61.576 77.701)" d="m187.51 210.88c-13.795 4.1586-27.802 8.6765-42.408 8.5337-6.0291-0.51292-9.0811 1.9453-7.458 8.2783-0.24496 23.903-3.5256 47.835-2.3347 71.703 3.0582 2.6123 6.6819-2.9255 9.397-4.1796 21.392-17.267 42.694-34.76 62.939-53.341-5.817-10.495-11.204-21.69-19.1-30.761-0.30812-0.18895-0.67452-0.28778-1.0359-0.2338z" fill="#87aade" style="paint-order:stroke fill markers"/>
   <path transform="matrix(.26458 0 0 .26458 61.576 77.701)" d="m84.902 271.18c-4.0637 0.92518-2.1159 7.4804-3.4382 10.434-3.0428 21.634 7.4442 42.074 15.285 61.56 3.6788 7.263 5.0283 17.155 13.805 20.17 14.32 7.1333 28.3 15.397 43.453 20.582 5.2739 1.0566 1.4592-3.2688 0.13685-5.2946-15.311-21.292-22.834-47.149-24.776-73.088 0.16837-2.6946-1.1197-4.2862-3.6509-4.1652-14.613-8.1444-25.39-21.81-39.813-30.121-0.3257-0.0907-0.66673-0.0917-1.0017-0.0773z" fill="#5fd3bc" style="paint-order:stroke fill markers"/>
   <path transform="matrix(.26458 0 0 .26458 61.576 77.701)" d="m207.41 244.03c-13.372 8.621-24.362 20.568-36.953 30.308-10.817 8.4646-20.789 18.391-32.54 25.455-1.9873-0.26597-3.5634 0.0684-2.7948 2.6761 1.502 29.788 11.419 59.73 31.41 82.247 4.7269 3.461 8.2631-4.3006 11.607-6.5788 16.866-17.837 33.174-36.191 49.765-54.283-0.14167-18.164 1.6138-37.123-6.1507-54.155-3.7054-8.8065-6.4371-19.01-13.708-25.569-0.1992-0.0732-0.42168-0.1433-0.63666-0.10071z" fill="#5fd3bc" style="paint-order:stroke fill markers"/>
   <path transform="matrix(.26458 0 0 .26458 61.576 77.701)" d="m410.06 339.26c-19.633 4.2311-41.365 7.5084-56.456 21.896-1.5262 5.9131 6.1643 9.3834 9.2303 13.488 3.6447 4.1777 9.2172 7.6906 11.561 12.365-0.17922 4.4062-3.1414 12.087 3.3999 13.188 8.2448 1.134 15.578-3.4952 23.73-3.7826 7.5572-1.8534 18.693-2.4959 20.543-11.896 4.1168-12.586-6.0593-23.003-10.05-33.971-1.339-3.4754 0.9505-8.5123-1.4586-11.312l-0.2338-4e-3z" fill="#d4aa00" style="paint-order:stroke fill markers"/>
   <path transform="matrix(.26458 0 0 .26458 61.576 77.701)" d="m112.18 382.86c-1.5875 0.24188 0.0731 2.3879-7e-3 3.2988 3.3213 11.651 8.4144 22.794 10.835 34.695 1.1622 5.9158 0.87969 12-0.35353 17.872-0.53636 3.3222 3.4287 3.9019 5.6562 4.9611 9.6924 3.9653 18.776 9.9904 29.301 11.514 2.6834 0.14932 5.5958 0.50409 8.154 0.0345 6.9423-5.8016 9.0068-15.427 8.8178-24.096 0.0816-5.8374-0.0196-11.679-0.41231-17.504-20.869-4.1328-41.786-12.055-57.224-27.18-1.5026-1.176-2.821-3.2202-4.767-3.5952z" fill="#d4aa00" style="paint-order:stroke fill markers"/>
  </g>
 </g>
</svg>
